<?xml version="1.0" encoding="utf-8"?>
<!-- Generator: Adobe Illustrator 26.5.0, SVG Export Plug-In . SVG Version: 6.00 Build 0)  -->
<svg version="1.1" xmlns="http://www.w3.org/2000/svg" xmlns:xlink="http://www.w3.org/1999/xlink" x="0px" y="0px"
	 viewBox="0 0 820 530" style="enable-background:new 0 0 820 530;" xml:space="preserve">
<style type="text/css">
	.st0{display:none;}
	.st1{fill:none;stroke:#DDDDDD;stroke-miterlimit:10;}
	.st2{display:inline;}
	.st3{fill:none;}
	.st4{display:none;fill:none;stroke:#DDDDDD;stroke-miterlimit:10;}
	.st5{fill:none;stroke:#888888;stroke-miterlimit:10;}
	.st6{display:inline;fill:#4C79A9;}
	.st7{fill:#4C79A9;}
	.st8{display:none;fill:#4C79A9;}
	.st9{display:inline;fill:#491211;}
	.st10{display:inline;fill:#6C100F;}
	.st11{display:inline;fill:#8D1E1F;}
	.st12{display:inline;fill:#A83732;}
	.st13{display:inline;fill:#CB5453;}
	.st14{display:inline;fill:#222222;}
	.st15{display:inline;fill:#464647;}
	.st16{display:inline;fill:#30B566;}
	.st17{display:inline;fill:#091015;}
	.st18{display:inline;fill:#F0EFEF;}
	.st19{fill:#222222;}
	.st20{fill:none;stroke:#464647;stroke-miterlimit:10;}
	.st21{opacity:0.7;fill:#8D1E1F;}
	.st22{opacity:0.8;fill:#8D1E1F;}
	.st23{fill:#F0EFEF;}
	.st24{font-family:'BankGothicBT-Medium';}
	.st25{font-size:12px;}
	.st26{font-size:16px;}
	.st27{font-family:'BarlowCondensed-Medium';}
	.st28{font-size:18px;}
	.st29{fill:#8D1E1F;}
</style>
<g id="Layer_1" class="st0">
	<path class="st1" d="M-849.5,204.5h600v300h-600V204.5z"/>
	<g>
		<g transform="translate(0.5,0.5)" class="st2">
			<path pointer-events="none" class="st3" d="M-850,204L-850,204L-850,204L-850,204z"/>
			<g>
				<g pointer-events="none">
					<line class="st1" x1="-850" y1="504" x2="-250" y2="504"/>
					<line class="st1" x1="-850" y1="467" x2="-250" y2="467"/>
					<line class="st1" x1="-850" y1="429" x2="-250" y2="429"/>
					<line class="st1" x1="-850" y1="392" x2="-250" y2="392"/>
					<line class="st1" x1="-850" y1="354" x2="-250" y2="354"/>
					<line class="st1" x1="-850" y1="317" x2="-250" y2="317"/>
					<line class="st1" x1="-850" y1="279" x2="-250" y2="279"/>
					<line class="st1" x1="-850" y1="242" x2="-250" y2="242"/>
					<line class="st1" x1="-850" y1="204" x2="-250" y2="204"/>
				</g>
			</g>
			<path pointer-events="none" class="st4" d="M-850,204"/>
		</g>
	</g>
	<g>
		<g transform="translate(0.5,300.5)" class="st2">
			<path pointer-events="none" class="st3" d="M-850,204L-850,204L-850,204L-850,204z"/>
			<g>
				<g pointer-events="none">
					<line class="st5" x1="-775" y1="204" x2="-775" y2="209"/>
					<line class="st5" x1="-625" y1="204" x2="-625" y2="209"/>
					<line class="st5" x1="-475" y1="204" x2="-475" y2="209"/>
					<line class="st5" x1="-325" y1="204" x2="-325" y2="209"/>
				</g>
				<g pointer-events="none">
					<text transform="matrix(0 -1 1 0 -772.5 233.2104)" style="font-family:'Helvetica'; font-size:10px;">2018</text>
					<text transform="matrix(0 -1 1 0 -622.5 233.2104)" style="font-family:'Helvetica'; font-size:10px;">2019</text>
					<text transform="matrix(0 -1 1 0 -472.5 233.2104)" style="font-family:'Helvetica'; font-size:10px;">2020</text>
					<text transform="matrix(0 -1 1 0 -322.5 233.2104)" style="font-family:'Helvetica'; font-size:10px;">2021</text>
				</g>
				<g pointer-events="none">
					<line class="st5" x1="-850" y1="204" x2="-250" y2="204"/>
				</g>
				<g pointer-events="none">
					<text transform="matrix(1 0 0 1 -563.75 246.2104)" style="font-family:'Helvetica-Bold'; font-size:11px;">ANIO</text>
				</g>
			</g>
			<path pointer-events="none" class="st0" d="M-850,204"/>
		</g>
	</g>
	<g>
		<g transform="translate(0.5,0.5)" class="st2">
			<path pointer-events="none" class="st3" d="M-850,204L-850,204L-850,204L-850,204z"/>
			<g>
				<g pointer-events="none">
					<line class="st5" x1="-850" y1="504" x2="-855" y2="504"/>
					<line class="st5" x1="-850" y1="467" x2="-855" y2="467"/>
					<line class="st5" x1="-850" y1="429" x2="-855" y2="429"/>
					<line class="st5" x1="-850" y1="392" x2="-855" y2="392"/>
					<line class="st5" x1="-850" y1="354" x2="-855" y2="354"/>
					<line class="st5" x1="-850" y1="317" x2="-855" y2="317"/>
					<line class="st5" x1="-850" y1="279" x2="-855" y2="279"/>
					<line class="st5" x1="-850" y1="242" x2="-855" y2="242"/>
					<line class="st5" x1="-850" y1="204" x2="-855" y2="204"/>
				</g>
				<g pointer-events="none">
					<text transform="matrix(1 0 0 1 -862.5615 506.9644)" style="font-family:'Helvetica'; font-size:10px;">0</text>
					<text transform="matrix(1 0 0 1 -862.5615 469.4644)" style="font-family:'Helvetica'; font-size:10px;">1</text>
					<text transform="matrix(1 0 0 1 -862.5615 431.9644)" style="font-family:'Helvetica'; font-size:10px;">2</text>
					<text transform="matrix(1 0 0 1 -862.5615 394.4644)" style="font-family:'Helvetica'; font-size:10px;">3</text>
					<text transform="matrix(1 0 0 1 -862.5615 356.9644)" style="font-family:'Helvetica'; font-size:10px;">4</text>
					<text transform="matrix(1 0 0 1 -862.5615 319.4644)" style="font-family:'Helvetica'; font-size:10px;">5</text>
					<text transform="matrix(1 0 0 1 -862.5615 281.9644)" style="font-family:'Helvetica'; font-size:10px;">6</text>
					<text transform="matrix(1 0 0 1 -862.5615 244.4643)" style="font-family:'Helvetica'; font-size:10px;">7</text>
					<text transform="matrix(1 0 0 1 -862.5615 206.9643)" style="font-family:'Helvetica'; font-size:10px;">8</text>
				</g>
				<g pointer-events="none">
					<line class="st5" x1="-850" y1="504" x2="-850" y2="204"/>
				</g>
				<g pointer-events="none">
					<text transform="matrix(0 -1 1 0 -868.5615 383.4009)" style="font-family:'Helvetica-Bold'; font-size:11px;">NUMFATAL</text>
				</g>
			</g>
			<path pointer-events="none" class="st0" d="M-850,204"/>
		</g>
	</g>
	<g>
		<path class="st6" d="M-842.5,242.5h135V505h-135V242.5z"/>
		<path class="st6" d="M-692.5,242.5h135V505h-135V242.5z"/>
		<path class="st6" d="M-542.5,280h135v225h-135V280z"/>
		<path class="st6" d="M-392.5,205h135v300h-135V205z"/>
	</g>
	<path class="st7" d="M-850,204"/>
	<g class="st2">
		<g transform="translate(39,10)">
			<g>
				<g transform="translate(0,0)">
					<path class="st1" d="M-888.4,196.4h600v300h-600V196.4z"/>
					<g>
						<g>
							<g transform="translate(0.5,0.5)">
								<path pointer-events="none" class="st3" d="M-888.9,195.9L-888.9,195.9L-888.9,195.9L-888.9,195.9z"/>
								<g>
									<g pointer-events="none">
										<line class="st1" x1="-888.9" y1="495.9" x2="-288.9" y2="495.9"/>
										<line class="st1" x1="-888.9" y1="465.9" x2="-288.9" y2="465.9"/>
										<line class="st1" x1="-888.9" y1="435.9" x2="-288.9" y2="435.9"/>
										<line class="st1" x1="-888.9" y1="405.9" x2="-288.9" y2="405.9"/>
										<line class="st1" x1="-888.9" y1="375.9" x2="-288.9" y2="375.9"/>
										<line class="st1" x1="-888.9" y1="345.9" x2="-288.9" y2="345.9"/>
										<line class="st1" x1="-888.9" y1="315.9" x2="-288.9" y2="315.9"/>
										<line class="st1" x1="-888.9" y1="285.9" x2="-288.9" y2="285.9"/>
										<line class="st1" x1="-888.9" y1="255.9" x2="-288.9" y2="255.9"/>
										<line class="st1" x1="-888.9" y1="225.9" x2="-288.9" y2="225.9"/>
										<line class="st1" x1="-888.9" y1="195.9" x2="-288.9" y2="195.9"/>
									</g>
								</g>
								<path pointer-events="none" class="st4" d="M-888.9,195.9"/>
							</g>
						</g>
						<g>
							<g transform="translate(0.5,300.5)">
								<path pointer-events="none" class="st3" d="M-888.9,195.9L-888.9,195.9L-888.9,195.9L-888.9,195.9z"/>
								<g>
									<g pointer-events="none">
										<line class="st5" x1="-813.9" y1="195.9" x2="-813.9" y2="200.9"/>
										<line class="st5" x1="-663.9" y1="195.9" x2="-663.9" y2="200.9"/>
										<line class="st5" x1="-513.9" y1="195.9" x2="-513.9" y2="200.9"/>
										<line class="st5" x1="-363.9" y1="195.9" x2="-363.9" y2="200.9"/>
									</g>
									<g pointer-events="none">
										<text transform="matrix(0 -1 1 0 -811.418 225.1753)" style="font-family:'Helvetica'; font-size:10px;">2018</text>
										<text transform="matrix(0 -1 1 0 -661.4181 225.1753)" style="font-family:'Helvetica'; font-size:10px;">2019</text>
										<text transform="matrix(0 -1 1 0 -511.418 225.1753)" style="font-family:'Helvetica'; font-size:10px;">2020</text>
										<text transform="matrix(0 -1 1 0 -361.418 225.1753)" style="font-family:'Helvetica'; font-size:10px;">2021</text>
									</g>
									<g pointer-events="none">
										<line class="st5" x1="-888.9" y1="195.9" x2="-288.9" y2="195.9"/>
									</g>
									<g pointer-events="none">
										<text transform="matrix(1 0 0 1 -602.668 238.1738)" style="font-family:'Helvetica-Bold'; font-size:11px;">ANIO</text>
									</g>
								</g>
								<path pointer-events="none" class="st0" d="M-888.9,195.9"/>
							</g>
						</g>
						<g>
							<g transform="translate(0.5,0.5)">
								<path pointer-events="none" class="st3" d="M-888.9,195.9L-888.9,195.9L-888.9,195.9L-888.9,195.9z"/>
								<g>
									<g pointer-events="none">
										<line class="st5" x1="-888.9" y1="495.9" x2="-893.9" y2="495.9"/>
										<line class="st5" x1="-888.9" y1="465.9" x2="-893.9" y2="465.9"/>
										<line class="st5" x1="-888.9" y1="435.9" x2="-893.9" y2="435.9"/>
										<line class="st5" x1="-888.9" y1="405.9" x2="-893.9" y2="405.9"/>
										<line class="st5" x1="-888.9" y1="375.9" x2="-893.9" y2="375.9"/>
										<line class="st5" x1="-888.9" y1="345.9" x2="-893.9" y2="345.9"/>
										<line class="st5" x1="-888.9" y1="315.9" x2="-893.9" y2="315.9"/>
										<line class="st5" x1="-888.9" y1="285.9" x2="-893.9" y2="285.9"/>
										<line class="st5" x1="-888.9" y1="255.9" x2="-893.9" y2="255.9"/>
										<line class="st5" x1="-888.9" y1="225.9" x2="-893.9" y2="225.9"/>
										<line class="st5" x1="-888.9" y1="195.9" x2="-893.9" y2="195.9"/>
									</g>
									<g pointer-events="none">
										<text transform="matrix(1 0 0 1 -901.4796 498.9277)" style="font-family:'Helvetica'; font-size:10px;">0</text>
										<text transform="matrix(1 0 0 1 -901.4796 468.9277)" style="font-family:'Helvetica'; font-size:10px;">5</text>
										<text transform="matrix(1 0 0 1 -907.0411 438.9277)" style="font-family:'Helvetica'; font-size:10px;">10</text>
										<text transform="matrix(1 0 0 1 -907.0411 408.9278)" style="font-family:'Helvetica'; font-size:10px;">15</text>
										<text transform="matrix(1 0 0 1 -907.0411 378.9278)" style="font-family:'Helvetica'; font-size:10px;">20</text>
										<text transform="matrix(1 0 0 1 -907.0411 348.9277)" style="font-family:'Helvetica'; font-size:10px;">25</text>
										<text transform="matrix(1 0 0 1 -907.0411 318.9277)" style="font-family:'Helvetica'; font-size:10px;">30</text>
										<text transform="matrix(1 0 0 1 -907.0411 288.9277)" style="font-family:'Helvetica'; font-size:10px;">35</text>
										<text transform="matrix(1 0 0 1 -907.0411 258.9277)" style="font-family:'Helvetica'; font-size:10px;">40</text>
										<text transform="matrix(1 0 0 1 -907.0411 228.9277)" style="font-family:'Helvetica'; font-size:10px;">45</text>
										<text transform="matrix(1 0 0 1 -907.0411 198.9277)" style="font-family:'Helvetica'; font-size:10px;">50</text>
									</g>
									<g pointer-events="none">
										<line class="st5" x1="-888.9" y1="495.9" x2="-888.9" y2="195.9"/>
									</g>
									<g pointer-events="none">
										<text transform="matrix(0 -1 1 0 -913.0411 392.0659)" style="font-family:'Helvetica-Bold'; font-size:11px;">Count of Records</text>
									</g>
								</g>
								<path pointer-events="none" class="st0" d="M-888.9,195.9"/>
							</g>
						</g>
						<g>
							<path class="st7" d="M-881.4,291.9h135v204h-135V291.9z"/>
							<path class="st7" d="M-731.4,321.9h135v174h-135V321.9z"/>
							<path class="st7" d="M-581.4,273.9h135v222h-135V273.9z"/>
							<path class="st7" d="M-431.4,213.9h135v282h-135V213.9z"/>
						</g>
					</g>
					<path class="st8" d="M-888.9,195.9"/>
				</g>
			</g>
		</g>
	</g>
</g>
<g id="bars" class="st0">
	<path class="st6" d="M551.2,463.8l-124.7,51.7l-83.3-201.2l124.7-51.7L551.2,463.8z"/>
	<path class="st6" d="M603.1,299.9l-51.7,124.7l-171.6-71.1l51.7-124.7L603.1,299.9z"/>
	<path class="st6" d="M601.5,136.7l51.7,124.7l-219,90.7l-51.7-124.7L601.5,136.7z"/>
	<path class="st6" d="M462.7-15.7L587.5,36L472.3,314.1l-124.7-51.7L462.7-15.7z"/>
	<path class="st7" d="M-849.9,205.9"/>
</g>
<g id="palette" class="st0">
	<rect x="864.1" y="16.6" class="st9" width="96.7" height="96.7"/>
	<rect x="864.1" y="117.5" class="st10" width="96.7" height="96.7"/>
	<rect x="864.1" y="218.3" class="st11" width="96.7" height="96.7"/>
	<rect x="864.1" y="319.2" class="st12" width="96.7" height="96.7"/>
	<rect x="864.1" y="420.1" class="st13" width="96.7" height="96.7"/>
	<rect x="864.1" y="-84.3" class="st14" width="96.7" height="96.7"/>
	<rect x="968.9" y="-84.7" class="st15" width="96.7" height="96.7"/>
	<rect x="864.1" y="521" class="st16" width="96.7" height="96.7"/>
	<rect x="864.1" y="-185.1" class="st17" width="96.7" height="96.7"/>
	<rect x="864.1" y="621.8" class="st18" width="96.7" height="96.7"/>
</g>
<g id="bg">
	<rect x="0" y="0" class="st19" width="820" height="530"/>
</g>
<g id="radios">
	<line class="st20" x1="409" y1="464.9" x2="409" y2="85.7"/>
	<line class="st20" x1="409" y1="464.8" x2="680.5" y2="196.7"/>
	<line class="st20" x1="30" y1="464.8" x2="793.3" y2="464.8"/>
	<line class="st20" x1="139.5" y1="198.5" x2="409" y2="464.8"/>
</g>
<g id="circles">
	<path class="st20" d="M488.2,467.4c0-42.9-34.8-77.6-77.6-77.6s-77.6,34.8-77.6,77.6"/>
	<path class="st20" d="M526.1,467.4c0-63.8-51.7-115.5-115.5-115.5s-115.5,51.7-115.5,115.5"/>
	<path class="st20" d="M564.1,467.3c0-84.7-68.7-153.4-153.4-153.4s-153.4,68.7-153.4,153.4"/>
	<path class="st20" d="M602,467.2C602,361.6,516.4,276,410.8,276s-191.3,85.6-191.3,191.3"/>
	<path class="st20" d="M640,467.1C640,340.6,537.4,238,410.9,238S181.7,340.6,181.7,467.1"/>
	<path class="st20" d="M677.9,467.1c0-147.5-119.5-267-267-267s-267,119.5-267,267"/>
	<path class="st20" d="M715.9,467c0-168.4-136.5-304.9-304.9-304.9S106.1,298.6,106.1,467"/>
	<path class="st20" d="M753.9,466.9c0-189.3-153.5-342.8-342.8-342.8S68.3,277.6,68.3,466.9"/>
	<path class="st20" d="M791.8,466.8c0-210.2-170.4-380.6-380.6-380.6S30.5,256.6,30.5,466.8"/>
</g>
<g id="area">
	<polygon class="st21" points="735.4,330.2 516.4,210.1 327.8,264.7 174.3,367.6 409,464.8 	"/>
</g>
<g id="dots">
	<g>
		<circle class="st22" cx="733.6" cy="330.4" r="5.9"/>
		<circle class="st22" cx="515.9" cy="210.5" r="5.9"/>
		<circle class="st22" cx="327.3" cy="264.7" r="5.9"/>
		<circle class="st22" cx="175.3" cy="367.1" r="5.9"/>
	</g>
</g>
<g id="text">
	<text transform="matrix(1 0 0 1 324.0381 478.1053)" class="st23 st24 st25">10</text>
	<text transform="matrix(1 0 0 1 286.2258 478.1049)" class="st23 st24 st25">15</text>
	<text transform="matrix(1 0 0 1 248.4144 478.1054)" class="st23 st24 st25">20</text>
	<text transform="matrix(1 0 0 1 210.6022 478.105)" class="st23 st24 st25">25</text>
	<text transform="matrix(1 0 0 1 172.7897 478.1046)" class="st23 st24 st25">30</text>
	<text transform="matrix(1 0 0 1 134.9785 478.105)" class="st23 st24 st25">35</text>
	<text transform="matrix(1 0 0 1 164.9072 357.9936)" class="st23 st24 st25">34</text>
	<text transform="matrix(1 0 0 1 317.2062 254.5709)" class="st23 st24 st25">29</text>
	<text transform="matrix(1 0 0 1 507.4244 201.0342)" class="st23 st24 st25">37</text>
	<text transform="matrix(1 0 0 1 724.9015 321.0839)" class="st23 st24 st25">47</text>
	<text transform="matrix(1 0 0 1 97.1662 478.1046)" class="st23 st24 st25">40</text>
	<text transform="matrix(1 0 0 1 59.3538 478.105)" class="st23 st24 st25">45</text>
	<text transform="matrix(1 0 0 1 21.5424 478.105)" class="st23 st24 st25">50</text>
	<text transform="matrix(1 0 0 1 480.0545 480.1054)" class="st23 st24 st25">10</text>
	<text transform="matrix(1 0 0 1 517.9074 480.105)" class="st23 st24 st25">15</text>
	<text transform="matrix(1 0 0 1 555.7612 480.1046)" class="st23 st24 st25">20</text>
	<text transform="matrix(1 0 0 1 593.6142 480.1052)" class="st23 st24 st25">25</text>
	<text transform="matrix(1 0 0 1 631.467 480.1047)" class="st23 st24 st25">30</text>
	<text transform="matrix(1 0 0 1 669.32 480.1052)" class="st23 st24 st25">35</text>
	<text transform="matrix(1 0 0 1 707.1737 480.1047)" class="st23 st24 st25">40</text>
	<text transform="matrix(1 0 0 1 745.0266 480.1052)" class="st23 st24 st25">45</text>
	<text transform="matrix(1 0 0 1 782.8795 480.105)" class="st23 st24 st25">50</text>
	<text transform="matrix(1 0 0 1 765.6602 322.0788)" class="st23 st24 st26">2021</text>
	<text transform="matrix(1 0 0 1 555.685 111.5328)" class="st23 st24 st26">2020</text>
	<text transform="matrix(1 0 0 1 217.4875 111.5327)" class="st23 st24 st26">2019</text>
	<text transform="matrix(1 0 0 1 7.3826 322.0787)" class="st23 st24 st26">2018</text>
</g>
<g id="titles">
	<text transform="matrix(1 0 0 1 564.814 70.4792)" class="st23 st27 st28">Pandemia COVID-19</text>
	<text transform="matrix(1 0 0 1 270.0956 -87.1666)" class="st0"><tspan x="0" y="0" class="st18 st27" style="font-size:24px;">Número de accidentes fatales en </tspan><tspan x="-9.5" y="26" class="st18 st27" style="font-size:24px;">motocicleta en CDMX de 2018 a 2021</tspan></text>
</g>
<g id="marker">
	<g>
		<path class="st29" d="M554.9,76l12.1,5L554.5,94L554.9,76 M554.9,73c-0.6,0-1.1,0.2-1.6,0.5c-0.8,0.5-1.3,1.5-1.4,2.5l-0.3,17.9
			c0,1.2,0.7,2.4,1.9,2.8c0.4,0.2,0.8,0.2,1.1,0.2c0.8,0,1.6-0.3,2.2-0.9l12.5-12.9c0.7-0.7,1-1.7,0.8-2.7s-0.9-1.8-1.8-2.2l-12.1-5
			C555.6,73.1,555.3,73,554.9,73L554.9,73z"/>
	</g>
</g>
<g id="guides" class="st0">
</g>
</svg>
