<?xml version="1.0" encoding="utf-8"?>
<!-- Generator: Adobe Illustrator 26.5.0, SVG Export Plug-In . SVG Version: 6.00 Build 0)  -->
<svg version="1.1" xmlns="http://www.w3.org/2000/svg" xmlns:xlink="http://www.w3.org/1999/xlink" x="0px" y="0px"
	 viewBox="0 0 900 900" style="enable-background:new 0 0 900 900;" xml:space="preserve">
<style type="text/css">
	.st0{display:none;}
	.st1{display:inline;}
	.st2{fill:none;}
	.st3{fill:none;stroke:#DDDDDD;stroke-miterlimit:10;}
	.st4{display:none;fill:none;stroke:#DDDDDD;stroke-miterlimit:10;}
	.st5{fill:none;stroke:#888888;stroke-miterlimit:10;}
	.st6{fill:#4C79A9;}
	.st7{fill:#4C79A9;stroke:#2B2B2B;stroke-miterlimit:10;}
	.st8{display:inline;fill:#491211;}
	.st9{display:inline;fill:#6C100F;}
	.st10{display:inline;fill:#8D1E1F;}
	.st11{display:inline;fill:#A83732;}
	.st12{display:inline;fill:#CB5453;}
	.st13{display:inline;fill:#222222;}
	.st14{display:inline;fill:#464647;}
	.st15{display:inline;fill:#30B566;}
	.st16{display:inline;fill:#091015;}
	.st17{display:inline;fill:#F0EFEF;}
	.st18{fill:#222222;}
	.st19{fill:none;stroke:#464647;stroke-miterlimit:10;}
	.st20{fill:none;stroke:#C62127;stroke-miterlimit:10;}
	.st21{opacity:0.4;}
	.st22{fill:#6E7375;}
	.st23{fill:#C62127;}
	.st24{fill:none;stroke:#8D1E1F;stroke-width:3;stroke-linecap:round;stroke-linejoin:round;stroke-miterlimit:10;}
	.st25{fill:#8D1E1F;}
	.st26{fill:#F0EFEF;}
	.st27{font-family:'BankGothicBT-Medium';}
	.st28{font-size:12px;}
	.st29{font-size:16px;}
	.st30{font-family:'BarlowCondensed-Medium';}
	.st31{font-size:24px;}
</style>
<g id="bkup" class="st0">
	<g class="st1">
		<g transform="translate(0.5,0.5)">
			<path pointer-events="none" class="st2" d="M-861-51L-861-51L-861-51L-861-51z"/>
			<g>
				<g pointer-events="none">
					<line class="st3" x1="-861" y1="249" x2="-361" y2="249"/>
					<line class="st3" x1="-861" y1="219" x2="-361" y2="219"/>
					<line class="st3" x1="-861" y1="189" x2="-361" y2="189"/>
					<line class="st3" x1="-861" y1="159" x2="-361" y2="159"/>
					<line class="st3" x1="-861" y1="129" x2="-361" y2="129"/>
					<line class="st3" x1="-861" y1="99" x2="-361" y2="99"/>
					<line class="st3" x1="-861" y1="69" x2="-361" y2="69"/>
					<line class="st3" x1="-861" y1="39" x2="-361" y2="39"/>
					<line class="st3" x1="-861" y1="9" x2="-361" y2="9"/>
					<line class="st3" x1="-861" y1="-21" x2="-361" y2="-21"/>
					<line class="st3" x1="-861" y1="-51" x2="-361" y2="-51"/>
				</g>
			</g>
			<path pointer-events="none" class="st4" d="M-861-51"/>
		</g>
	</g>
	<g class="st1">
		<g transform="translate(0.5,300.5)">
			<path pointer-events="none" class="st2" d="M-861-51L-861-51L-861-51L-861-51z"/>
			<g>
				<g pointer-events="none">
					<line class="st5" x1="-851" y1="-51" x2="-851" y2="-46"/>
					<line class="st5" x1="-831" y1="-51" x2="-831" y2="-46"/>
					<line class="st5" x1="-811" y1="-51" x2="-811" y2="-46"/>
					<line class="st5" x1="-791" y1="-51" x2="-791" y2="-46"/>
					<line class="st5" x1="-771" y1="-51" x2="-771" y2="-46"/>
					<line class="st5" x1="-751" y1="-51" x2="-751" y2="-46"/>
					<line class="st5" x1="-731" y1="-51" x2="-731" y2="-46"/>
					<line class="st5" x1="-711" y1="-51" x2="-711" y2="-46"/>
					<line class="st5" x1="-691" y1="-51" x2="-691" y2="-46"/>
					<line class="st5" x1="-671" y1="-51" x2="-671" y2="-46"/>
					<line class="st5" x1="-651" y1="-51" x2="-651" y2="-46"/>
					<line class="st5" x1="-631" y1="-51" x2="-631" y2="-46"/>
					<line class="st5" x1="-611" y1="-51" x2="-611" y2="-46"/>
					<line class="st5" x1="-591" y1="-51" x2="-591" y2="-46"/>
					<line class="st5" x1="-571" y1="-51" x2="-571" y2="-46"/>
					<line class="st5" x1="-551" y1="-51" x2="-551" y2="-46"/>
					<line class="st5" x1="-531" y1="-51" x2="-531" y2="-46"/>
					<line class="st5" x1="-511" y1="-51" x2="-511" y2="-46"/>
					<line class="st5" x1="-491" y1="-51" x2="-491" y2="-46"/>
					<line class="st5" x1="-471" y1="-51" x2="-471" y2="-46"/>
					<line class="st5" x1="-451" y1="-51" x2="-451" y2="-46"/>
					<line class="st5" x1="-431" y1="-51" x2="-431" y2="-46"/>
					<line class="st5" x1="-411" y1="-51" x2="-411" y2="-46"/>
					<line class="st5" x1="-391" y1="-51" x2="-391" y2="-46"/>
					<line class="st5" x1="-371" y1="-51" x2="-371" y2="-46"/>
				</g>
				<g pointer-events="none">
					<text transform="matrix(0 -1 1 0 -848.5 -21.7539)" style="font-family:'Helvetica'; font-size:10px;">1997</text>
					<text transform="matrix(0 -1 1 0 -828.5 -21.7539)" style="font-family:'Helvetica'; font-size:10px;">1998</text>
					<text transform="matrix(0 -1 1 0 -808.5 -21.7539)" style="font-family:'Helvetica'; font-size:10px;">1999</text>
					<text transform="matrix(0 -1 1 0 -788.5 -21.7539)" style="font-family:'Helvetica'; font-size:10px;">2000</text>
					<text transform="matrix(0 -1 1 0 -768.5 -21.7539)" style="font-family:'Helvetica'; font-size:10px;">2001</text>
					<text transform="matrix(0 -1 1 0 -748.5 -21.7539)" style="font-family:'Helvetica'; font-size:10px;">2002</text>
					<text transform="matrix(0 -1 1 0 -728.5 -21.7539)" style="font-family:'Helvetica'; font-size:10px;">2003</text>
					<text transform="matrix(0 -1 1 0 -708.5 -21.7539)" style="font-family:'Helvetica'; font-size:10px;">2004</text>
					<text transform="matrix(0 -1 1 0 -688.5 -21.7539)" style="font-family:'Helvetica'; font-size:10px;">2005</text>
					<text transform="matrix(0 -1 1 0 -668.5 -21.7539)" style="font-family:'Helvetica'; font-size:10px;">2006</text>
					<text transform="matrix(0 -1 1 0 -648.5 -21.7539)" style="font-family:'Helvetica'; font-size:10px;">2007</text>
					<text transform="matrix(0 -1 1 0 -628.5 -21.7539)" style="font-family:'Helvetica'; font-size:10px;">2008</text>
					<text transform="matrix(0 -1 1 0 -608.5 -21.7539)" style="font-family:'Helvetica'; font-size:10px;">2009</text>
					<text transform="matrix(0 -1 1 0 -588.5 -21.7539)" style="font-family:'Helvetica'; font-size:10px;">2010</text>
					<text transform="matrix(0 -1 1 0 -568.5 -22.4912)" style="font-family:'Helvetica'; font-size:10px;">2011</text>
					<text transform="matrix(0 -1 1 0 -548.5 -21.7539)" style="font-family:'Helvetica'; font-size:10px;">2012</text>
					<text transform="matrix(0 -1 1 0 -528.5 -21.7539)" style="font-family:'Helvetica'; font-size:10px;">2013</text>
					<text transform="matrix(0 -1 1 0 -508.5 -21.7539)" style="font-family:'Helvetica'; font-size:10px;">2014</text>
					<text transform="matrix(0 -1 1 0 -488.5 -21.7539)" style="font-family:'Helvetica'; font-size:10px;">2015</text>
					<text transform="matrix(0 -1 1 0 -468.5 -21.7539)" style="font-family:'Helvetica'; font-size:10px;">2016</text>
					<text transform="matrix(0 -1 1 0 -448.5 -21.7539)" style="font-family:'Helvetica'; font-size:10px;">2017</text>
					<text transform="matrix(0 -1 1 0 -428.5 -21.7539)" style="font-family:'Helvetica'; font-size:10px;">2018</text>
					<text transform="matrix(0 -1 1 0 -408.5 -21.7539)" style="font-family:'Helvetica'; font-size:10px;">2019</text>
					<text transform="matrix(0 -1 1 0 -388.5 -21.7539)" style="font-family:'Helvetica'; font-size:10px;">2020</text>
					<text transform="matrix(0 -1 1 0 -368.5 -21.7539)" style="font-family:'Helvetica'; font-size:10px;">2021</text>
				</g>
				<g pointer-events="none">
					<line class="st5" x1="-861" y1="-51" x2="-361" y2="-51"/>
				</g>
				<g pointer-events="none">
					<text transform="matrix(1 0 0 1 -624.75 -8.7539)" style="font-family:'Helvetica-Bold'; font-size:11px;">ANIO</text>
				</g>
			</g>
			<path pointer-events="none" class="st0" d="M-861-51"/>
		</g>
	</g>
	<g class="st1">
		<g transform="translate(0.5,0.5)">
			<path pointer-events="none" class="st2" d="M-861-51L-861-51L-861-51L-861-51z"/>
			<g>
				<g pointer-events="none">
					<line class="st5" x1="-861" y1="249" x2="-866" y2="249"/>
					<line class="st5" x1="-861" y1="219" x2="-866" y2="219"/>
					<line class="st5" x1="-861" y1="189" x2="-866" y2="189"/>
					<line class="st5" x1="-861" y1="159" x2="-866" y2="159"/>
					<line class="st5" x1="-861" y1="129" x2="-866" y2="129"/>
					<line class="st5" x1="-861" y1="99" x2="-866" y2="99"/>
					<line class="st5" x1="-861" y1="69" x2="-866" y2="69"/>
					<line class="st5" x1="-861" y1="39" x2="-866" y2="39"/>
					<line class="st5" x1="-861" y1="9" x2="-866" y2="9"/>
					<line class="st5" x1="-861" y1="-21" x2="-866" y2="-21"/>
					<line class="st5" x1="-861" y1="-51" x2="-866" y2="-51"/>
				</g>
				<g pointer-events="none">
					<text transform="matrix(1 0 0 1 -873.5615 252)" style="font-family:'Helvetica'; font-size:10px;">0</text>
					<text transform="matrix(1 0 0 1 -898.5859 222)" style="font-family:'Helvetica'; font-size:10px;">50,000</text>
					<text transform="matrix(1 0 0 1 -904.1475 192)" style="font-family:'Helvetica'; font-size:10px;">100,000</text>
					<text transform="matrix(1 0 0 1 -904.1475 162)" style="font-family:'Helvetica'; font-size:10px;">150,000</text>
					<text transform="matrix(1 0 0 1 -904.1475 132)" style="font-family:'Helvetica'; font-size:10px;">200,000</text>
					<text transform="matrix(1 0 0 1 -904.1475 102)" style="font-family:'Helvetica'; font-size:10px;">250,000</text>
					<text transform="matrix(1 0 0 1 -904.1475 72)" style="font-family:'Helvetica'; font-size:10px;">300,000</text>
					<text transform="matrix(1 0 0 1 -904.1475 42)" style="font-family:'Helvetica'; font-size:10px;">350,000</text>
					<text transform="matrix(1 0 0 1 -904.1475 12)" style="font-family:'Helvetica'; font-size:10px;">400,000</text>
					<text transform="matrix(1 0 0 1 -904.1475 -18)" style="font-family:'Helvetica'; font-size:10px;">450,000</text>
					<text transform="matrix(1 0 0 1 -904.1475 -48)" style="font-family:'Helvetica'; font-size:10px;">500,000</text>
				</g>
				<g pointer-events="none">
					<line class="st5" x1="-861" y1="249" x2="-861" y2="-51"/>
				</g>
				<g pointer-events="none">
					<text transform="matrix(0 -1 1 0 -910.1475 125.8877)" style="font-family:'Helvetica-Bold'; font-size:11px;">CLASACC</text>
				</g>
			</g>
			<path pointer-events="none" class="st0" d="M-861-51"/>
		</g>
	</g>
	<g class="st1">
		<path class="st6" d="M-860,100.1h18V249h-18V100.1z"/>
		<path class="st6" d="M-840,91.4h18V249h-18V91.4z"/>
		<path class="st6" d="M-820,77.7h18V249h-18V77.7z"/>
		<path class="st6" d="M-800,61.8h18V249h-18V61.8z"/>
		<path class="st6" d="M-780,30.1h18V249h-18V30.1z"/>
		<path class="st6" d="M-760,9.6h18V249h-18V9.6z"/>
		<path class="st6" d="M-740-5.7h18V249h-18V-5.7z"/>
		<path class="st6" d="M-720-17.2h18V249h-18V-17.2z"/>
		<path class="st6" d="M-700-22.3h18V249h-18V-22.3z"/>
		<path class="st6" d="M-680-33.8h18V249h-18V-33.8z"/>
		<path class="st6" d="M-660-36.8h18V249h-18V-36.8z"/>
		<path class="st6" d="M-640-30.9h18V249h-18V-30.9z"/>
		<path class="st6" d="M-620-8.1h18V249h-18V-8.1z"/>
		<path class="st6" d="M-600-7.4h18V249h-18V-7.4z"/>
		<path class="st6" d="M-580,16.7h18V249h-18V16.7z"/>
		<path class="st6" d="M-560,14.8h18V249h-18V14.8z"/>
		<path class="st6" d="M-540,17.5h18V249h-18V17.5z"/>
		<path class="st6" d="M-520,20.7h18V249h-18V20.7z"/>
		<path class="st6" d="M-500,19.8h18V249h-18V19.8z"/>
		<path class="st6" d="M-480,33h18v216h-18V33z"/>
		<path class="st6" d="M-460,28.3h18V249h-18V28.3z"/>
		<path class="st6" d="M-440,20h18v229h-18V20z"/>
		<path class="st6" d="M-420,21.7h18V249h-18V21.7z"/>
		<path class="st6" d="M-400,58.2h18V249h-18V58.2z"/>
		<path class="st6" d="M-380,35.2h18V249h-18V35.2z"/>
	</g>
</g>
<g id="bars" class="st0">
	<path class="st6" d="M342.9-911.6l17,6l-68.8,166.7L342.9-911.6z"/>
	<path class="st6" d="M389.4-902.4l15,10L291.2-739L389.4-902.4z"/>
	<path class="st6" d="M439.6-884.3l12.1,13.3l-160.6,132L439.6-884.3z"/>
	<path class="st6" d="M664.8-882.3h18v226h-18V-882.3z"/>
	<path class="st6" d="M684.8-920.7h18v264.4h-18V-920.7z"/>
	<path class="st6" d="M704.8-945.4h18v289.1h-18V-945.4z"/>
	<path class="st6" d="M724.8-963.9h18v307.6h-18V-963.9z"/>
	<path class="st6" d="M744.8-977.7h18v321.5h-18V-977.7z"/>
	<path class="st6" d="M764.8-984h18v327.7h-18V-984z"/>
	<path class="st6" d="M784.8-997.8h18v341.5h-18V-997.8z"/>
	<path class="st6" d="M804.8-1001.4h18v345.1h-18V-1001.4z"/>
	<path class="st6" d="M824.8-994.3h18v338h-18V-994.3z"/>
	<path class="st6" d="M844.8-966.8h18v310.5h-18V-966.8z"/>
	<path class="st6" d="M864.8-965.9h18v309.6h-18V-965.9z"/>
	<path class="st6" d="M884.8-936.8h18v280.6h-18V-936.8z"/>
	<path class="st6" d="M904.8-939.2h18v282.9h-18V-939.2z"/>
	<path class="st6" d="M924.8-935.8h18v279.5h-18V-935.8z"/>
	<path class="st6" d="M944.8-932h18v275.8h-18V-932z"/>
	<path class="st6" d="M964.8-933.1h18v276.9h-18V-933.1z"/>
	<path class="st6" d="M984.8-917.2h18v260.9h-18V-917.2z"/>
	<path class="st6" d="M1004.8-922.8h18v266.5h-18V-922.8z"/>
	<path class="st6" d="M1024.8-932.9h18v276.6h-18V-932.9z"/>
	<path class="st6" d="M1044.8-930.8h18v274.5h-18V-930.8z"/>
	<path class="st6" d="M1064.8-886.7h18v230.5h-18V-886.7z"/>
	<path class="st6" d="M1084.8-914.5h18v258.2h-18V-914.5z"/>
	<path class="st7" d="M1676.3,1181.8h44.5V1360h-44.5V1181.8z"/>
</g>
<g id="palette" class="st0">
	<rect x="947.7" y="192.7" class="st8" width="96.7" height="96.7"/>
	<rect x="947.7" y="293.5" class="st9" width="96.7" height="96.7"/>
	<rect x="947.7" y="394.4" class="st10" width="96.7" height="96.7"/>
	<rect x="947.7" y="495.3" class="st11" width="96.7" height="96.7"/>
	<rect x="947.7" y="596.1" class="st12" width="96.7" height="96.7"/>
	<rect x="947.7" y="91.8" class="st13" width="96.7" height="96.7"/>
	<rect x="1052.5" y="91.3" class="st14" width="96.7" height="96.7"/>
	<rect x="947.7" y="697" class="st15" width="96.7" height="96.7"/>
	<rect x="947.7" y="-9.1" class="st16" width="96.7" height="96.7"/>
	<rect x="947.7" y="797.9" class="st17" width="96.7" height="96.7"/>
</g>
<g id="bg">
	<rect class="st18" width="900" height="900"/>
</g>
<g id="radios">
	<line class="st19" x1="63.3" y1="461.1" x2="836.7" y2="461.1"/>
	<line class="st19" x1="76.4" y1="560.4" x2="823.4" y2="360.2"/>
	<line class="st19" x1="114.7" y1="652.9" x2="784.4" y2="266.2"/>
	<line class="st19" x1="175.7" y1="732.3" x2="722.5" y2="185.5"/>
	<line class="st19" x1="255.1" y1="793.3" x2="641.8" y2="123.6"/>
	<line class="st19" x1="347.6" y1="831.6" x2="547.8" y2="84.6"/>
	<line class="st19" x1="446.9" y1="844.7" x2="446.9" y2="71.3"/>
	<line class="st19" x1="546.1" y1="831.6" x2="346" y2="84.6"/>
	<line class="st19" x1="638.6" y1="793.3" x2="252" y2="123.6"/>
	<line class="st19" x1="718.1" y1="732.3" x2="171.3" y2="185.5"/>
	<line class="st19" x1="779" y1="652.9" x2="109.3" y2="266.2"/>
	<line class="st19" x1="817.3" y1="560.4" x2="70.4" y2="360.2"/>
	<line class="st20" x1="446.8" y1="491" x2="346" y2="114.6"/>
</g>
<g id="concentric">
	<g>
		<circle class="st19" cx="446.9" cy="460.3" r="19"/>
		<circle class="st19" cx="446.9" cy="460.3" r="59.1"/>
		<circle class="st19" cx="446.9" cy="460.3" r="99.2"/>
		<circle class="st19" cx="446.9" cy="460.3" r="139.3"/>
		<circle class="st19" cx="446.9" cy="460.3" r="179.4"/>
		<circle class="st19" cx="446.9" cy="460.3" r="219.5"/>
		<circle class="st19" cx="446.9" cy="460.3" r="259.6"/>
		<circle class="st19" cx="446.9" cy="460.3" r="299.7"/>
		<circle class="st19" cx="446.9" cy="460.3" r="339.8"/>
		<circle class="st19" cx="446.9" cy="460.3" r="379.9"/>
	</g>
</g>
<g id="sunburst" class="st21">
	<path class="st22" d="M474,273.7l43,11.5l-70.2,175.9L474,273.7z"/>
	<path class="st22" d="M529.7,272.7l38.6,22.3L446.9,461.1L529.7,272.7z"/>
	<path class="st22" d="M589,286.7l31.5,31.5L446.9,461.1L589,286.7z"/>
	<path class="st22" d="M662.8,310.8l22.3,38.6L447,461L662.8,310.8z"/>
	<path class="st22" d="M718,365.6l11.5,43l-282.6,52.5L718,365.6z"/>
	<path class="st22" d="M751.7,438.9v44.5l-304.9-22.3L751.7,438.9z"/>
	<path class="st22" d="M760.4,522.1l-11.5,43l-302-104L760.4,522.1z"/>
	<path class="st22" d="M739.3,604.3L717,642.9L446.9,461.2L739.3,604.3z"/>
	<path class="st22" d="M701.9,684.8l-31.5,31.5L446.8,461.2L701.9,684.8z"/>
	<path class="st22" d="M637.1,746.3l-38.6,22.3L446.8,461.2L637.1,746.3z"/>
	<path class="st22" d="M555.1,779l-43,11.5l-65.3-329.3L555.1,779z"/>
	<path class="st22" d="M469.1,768.9h-44.5l22.2-307.7L469.1,768.9z"/>
	<path class="st22" d="M389,763.3l-43-11.5l100.9-290.7L389,763.3z"/>
	<path class="st22" d="M327.1,713.1l-38.6-22.3l158.3-229.7L327.1,713.1z"/>
	<path class="st22" d="M264.3,675.1l-31.5-31.5l214-182.5L264.3,675.1z"/>
	<path class="st22" d="M218,618.9l-22.3-38.6l251.1-119.2L218,618.9z"/>
	<path class="st22" d="M188.7,553.4l-11.5-43l269.8-49.3L188.7,553.4z"/>
	<path class="st22" d="M172.5,483.4v-44.5l274.4,22.3L172.5,483.4z"/>
	<path class="st22" d="M191.4,415.7l11.5-43l244,88.5L191.4,415.7z"/>
	<path class="st22" d="M207,348.3l22.3-38.6l217.6,151.4L207,348.3z"/>
	<path class="st22" d="M237.2,283.1l31.5-31.5l178.2,209.5L237.2,283.1z"/>
	<path class="st22" d="M291.6,236.6l38.6-22.3l116.7,246.8L291.6,236.6z"/>
	<path class="st23" d="M366.3,246.3l43-11.5l37.5,226.4L366.3,246.3z"/>
	<path class="st22" d="M424.7,205.2h44.5l-22.4,255.9L424.7,205.2z"/>
</g>
<g id="line">
	<polyline class="st24" points="495.3,310.1 547.6,314.1 604.8,332.7 673.1,359.7 722.8,416.5 751.2,490.5 754.3,573.9 728.1,653.2 
		686.4,730 618.6,787.1 533.4,814.6 446.5,798.7 367.2,787.6 307.3,731.7 248.4,689.2 207.1,629.3 182.7,561.5 172.5,491 197.4,424 
		219.1,358.8 253.2,297.2 310.4,256 387.6,271 446.5,235.6 	"/>
	<circle class="st25" cx="446.9" cy="205.1" r="5"/>
	<circle class="st25" cx="387.5" cy="240.6" r="5"/>
	<circle class="st25" cx="310.8" cy="226.2" r="5"/>
	<circle class="st25" cx="253.1" cy="267.2" r="5"/>
	<circle class="st25" cx="218.6" cy="329.1" r="5"/>
	<circle class="st25" cx="197.3" cy="394" r="5"/>
	<circle class="st25" cx="172.2" cy="461.2" r="5"/>
	<circle class="st25" cx="182.4" cy="531.5" r="5"/>
	<circle class="st25" cx="207.2" cy="599.3" r="5"/>
	<circle class="st25" cx="248.3" cy="658.9" r="5"/>
	<circle class="st25" cx="307.5" cy="701.9" r="5"/>
	<circle class="st25" cx="367.1" cy="757.6" r="5"/>
	<circle class="st25" cx="447.1" cy="768.9" r="5"/>
	<circle class="st25" cx="533.6" cy="784.6" r="5"/>
	<circle class="st25" cx="617.6" cy="757.6" r="5"/>
	<circle class="st25" cx="685.9" cy="699.9" r="5"/>
	<circle class="st25" cx="727.8" cy="623.5" r="5"/>
	<circle class="st25" cx="753.9" cy="543.4" r="5"/>
	<circle class="st25" cx="751.3" cy="461.2" r="5"/>
	<circle class="st25" cx="722.7" cy="386.9" r="5"/>
	<circle class="st25" cx="673.3" cy="329.9" r="5"/>
	<circle class="st25" cx="604.7" cy="302.9" r="5"/>
	<circle class="st25" cx="548.7" cy="284.7" r="5"/>
	<circle class="st25" cx="494.6" cy="280.3" r="5"/>
</g>
<g id="text">
	<text transform="matrix(1 0 0 1 429.7698 331.0514)" class="st26 st27 st28">200K</text>
	<text transform="matrix(1 0 0 1 429.7694 291.1463)" class="st26 st27 st28">250K</text>
	<text transform="matrix(1 0 0 1 429.7698 250.9652)" class="st26 st27 st28">300K</text>
	<text transform="matrix(1 0 0 1 429.7693 211.3365)" class="st26 st27 st28">350K</text>
	<text transform="matrix(1 0 0 1 429.7699 170.5002)" class="st26 st27 st28">400K</text>
	<text transform="matrix(1 0 0 1 429.7693 130.1967)" class="st26 st27 st28">450K</text>
	<text transform="matrix(1 0 0 1 429.7701 90.9569)" class="st26 st27 st28">500K</text>
	<text transform="matrix(1 0 0 1 542.277 82.0879)" class="st26 st27 st29">1998</text>
	<text transform="matrix(1 0 0 1 637.5786 120.8172)" class="st26 st27 st29">1999</text>
	<text transform="matrix(1 0 0 1 722.2064 184.7277)" class="st26 st27 st29">2000</text>
	<text transform="matrix(1 0 0 1 784.8354 265.3942)" class="st26 st27 st29">2001</text>
	<text transform="matrix(1 0 0 1 824.4122 360.4436)" class="st26 st27 st29">2002</text>
	<text transform="matrix(1 0 0 1 837.9302 461.3628)" class="st26 st27 st29">2003</text>
	<text transform="matrix(1 0 0 1 819.5345 565.0901)" class="st26 st27 st29">2004</text>
	<text transform="matrix(1 0 0 1 781.3992 662.0402)" class="st26 st27 st29">2005</text>
	<text transform="matrix(1 0 0 1 718.4378 743.5191)" class="st26 st27 st29">2006</text>
	<text transform="matrix(1 0 0 1 638.6277 806.142)" class="st26 st27 st29">2007</text>
	<text transform="matrix(1 0 0 1 545.0729 844.6632)" class="st26 st27 st29">2008</text>
	<text transform="matrix(1 0 0 1 423.9159 859.127)" class="st26 st27 st29">2009</text>
	<text transform="matrix(1 0 0 1 301.4315 845.1062)" class="st26 st27 st29">2010</text>
	<text transform="matrix(1 0 0 1 208.985 807.4726)" class="st26 st27 st29">2011</text>
	<text transform="matrix(1 0 0 1 125.6277 745.2929)" class="st26 st27 st29">2012</text>
	<text transform="matrix(1 0 0 1 63.508 665.1437)" class="st26 st27 st29">2013</text>
	<text transform="matrix(1 0 0 1 24.6854 567.307)" class="st26 st27 st29">2014</text>
	<text transform="matrix(1 0 0 1 9.7289 465.1139)" class="st26 st27 st29">2015</text>
	<text transform="matrix(1 0 0 1 19.0581 361.1261)" class="st26 st27 st29">2016</text>
	<text transform="matrix(1 0 0 1 60.2283 265.3941)" class="st26 st27 st29">2017</text>
	<text transform="matrix(1 0 0 1 120.7505 183.2859)" class="st26 st27 st29">2018</text>
	<text transform="matrix(1 0 0 1 203.8863 119.487)" class="st26 st27 st29">2019</text>
	<g>
		<text transform="matrix(1 0 0 1 308.0822 80.4538)" class="st26 st27 st29">2020</text>
	</g>
	<text transform="matrix(1 0 0 1 423.7037 67.6789)" class="st26 st27 st29">2021</text>
</g>
<g id="marker">
	<g>
		<path class="st23" d="M341.8,50.1c0.4,0,0.7,0.3,0.6,0.7l-1.6,12.4c0,0.4-0.3,0.6-0.7,0.6c-0.2,0-0.4-0.1-0.5-0.3l-7.5-10
			c-0.3-0.4-0.1-0.9,0.4-1l9.1-2.4C341.6,50.1,341.7,50.1,341.8,50.1 M341.8,48.1c-0.2,0-0.5,0-0.7,0.1l-9.1,2.4
			c-0.9,0.2-1.5,0.9-1.8,1.7c-0.3,0.8-0.1,1.8,0.4,2.5l7.5,10c0.5,0.7,1.3,1.1,2.1,1.1c1.3,0,2.5-1,2.6-2.3l1.6-12.4
			c0.1-0.8-0.1-1.5-0.6-2.1C343.2,48.4,342.5,48.1,341.8,48.1L341.8,48.1z"/>
	</g>
</g>
<g id="titles">
	<g class="st0">
		<text transform="matrix(1 0 0 1 392.0724 35.736)" class="st17 st30 st31">Número de accidentes de tránsito en México de 1998 a 2021 </text>
	</g>
	<g>
		<text transform="matrix(1 0 0 1 224.9199 43.7075)" class="st26 st30 st29">Pandemia COVID-19</text>
	</g>
</g>
</svg>
