<?xml version="1.0" encoding="utf-8"?>
<!-- Generator: Adobe Illustrator 26.5.0, SVG Export Plug-In . SVG Version: 6.00 Build 0)  -->
<svg version="1.1" xmlns="http://www.w3.org/2000/svg" xmlns:xlink="http://www.w3.org/1999/xlink" x="0px" y="0px"
	 viewBox="0 0 1440 810" style="enable-background:new 0 0 1440 810;" xml:space="preserve">
<style type="text/css">
	.st0{display:none;}
	.st1{display:inline;}
	.st2{fill:none;stroke:#DDDDDD;stroke-miterlimit:10;}
	.st3{fill:none;}
	.st4{fill:none;stroke:#888888;stroke-miterlimit:10;}
	.st5{opacity:0.7;fill:#4C79A9;enable-background:new    ;}
	.st6{display:inline;fill:none;}
	.st7{display:inline;opacity:0.7;fill:#4C79A9;enable-background:new    ;}
	.st8{fill:#222222;}
	.st9{fill:#F0EFEF;}
	.st10{font-family:'BarlowCondensed-Medium';}
	.st11{font-size:22px;}
	.st12{display:inline;fill:#F0EFEF;}
	.st13{font-size:24px;}
	.st14{fill:none;stroke:#464647;stroke-miterlimit:10;}
	.st15{font-family:'BarlowCondensed-Regular';}
	.st16{font-size:18px;}
	.st17{font-family:'BankGothicBT-Medium';}
	.st18{fill:none;stroke:#A93832;stroke-width:3;stroke-linecap:round;stroke-linejoin:round;stroke-miterlimit:10;}
	.st19{opacity:0.7;fill:#464647;enable-background:new    ;}
	.st20{fill:#464647;}
	.st21{fill:#8D1E1F;}
	.st22{fill:#A93832;}
	.st23{font-size:18.8853px;}
	.st24{fill:none;stroke:#30B566;stroke-miterlimit:10;}
	.st25{display:inline;fill:#491211;}
	.st26{display:inline;fill:#6C100F;}
	.st27{display:inline;fill:#8D1E1F;}
	.st28{display:inline;fill:#A83732;}
	.st29{display:inline;fill:#CB5453;}
	.st30{display:inline;fill:#222222;}
	.st31{display:inline;fill:#464647;}
	.st32{display:inline;fill:#30B566;}
	.st33{display:inline;fill:#091015;}
</style>
<g id="bkup" class="st0">
	<g transform="translate(93,5)" class="st1">
		<g>
			<g transform="translate(0,0)">
				<path class="st2" d="M-865.5,653h500v180h-500V653z"/>
				<g>
					<g>
						<g transform="translate(0.5,180.5)">
							<path pointer-events="none" class="st3" d="M-866,652.5L-866,652.5L-866,652.5L-866,652.5z"/>
							<g>
								<g pointer-events="none">
									<line class="st4" x1="-856" y1="652.5" x2="-856" y2="657.5"/>
									<line class="st4" x1="-836" y1="652.5" x2="-836" y2="657.5"/>
									<line class="st4" x1="-816" y1="652.5" x2="-816" y2="657.5"/>
									<line class="st4" x1="-796" y1="652.5" x2="-796" y2="657.5"/>
									<line class="st4" x1="-776" y1="652.5" x2="-776" y2="657.5"/>
									<line class="st4" x1="-756" y1="652.5" x2="-756" y2="657.5"/>
									<line class="st4" x1="-736" y1="652.5" x2="-736" y2="657.5"/>
									<line class="st4" x1="-716" y1="652.5" x2="-716" y2="657.5"/>
									<line class="st4" x1="-696" y1="652.5" x2="-696" y2="657.5"/>
									<line class="st4" x1="-676" y1="652.5" x2="-676" y2="657.5"/>
									<line class="st4" x1="-656" y1="652.5" x2="-656" y2="657.5"/>
									<line class="st4" x1="-636" y1="652.5" x2="-636" y2="657.5"/>
									<line class="st4" x1="-616" y1="652.5" x2="-616" y2="657.5"/>
									<line class="st4" x1="-596" y1="652.5" x2="-596" y2="657.5"/>
									<line class="st4" x1="-576" y1="652.5" x2="-576" y2="657.5"/>
									<line class="st4" x1="-556" y1="652.5" x2="-556" y2="657.5"/>
									<line class="st4" x1="-536" y1="652.5" x2="-536" y2="657.5"/>
									<line class="st4" x1="-516" y1="652.5" x2="-516" y2="657.5"/>
									<line class="st4" x1="-496" y1="652.5" x2="-496" y2="657.5"/>
									<line class="st4" x1="-476" y1="652.5" x2="-476" y2="657.5"/>
									<line class="st4" x1="-456" y1="652.5" x2="-456" y2="657.5"/>
									<line class="st4" x1="-436" y1="652.5" x2="-436" y2="657.5"/>
									<line class="st4" x1="-416" y1="652.5" x2="-416" y2="657.5"/>
									<line class="st4" x1="-396" y1="652.5" x2="-396" y2="657.5"/>
									<line class="st4" x1="-376" y1="652.5" x2="-376" y2="657.5"/>
								</g>
								<g pointer-events="none">
									<text transform="matrix(0 -1 1 0 -853 681.7461)" style="font-family:'Helvetica'; font-size:10px;">1997</text>
									<text transform="matrix(0 -1 1 0 -833 681.7461)" style="font-family:'Helvetica'; font-size:10px;">1998</text>
									<text transform="matrix(0 -1 1 0 -813 681.7461)" style="font-family:'Helvetica'; font-size:10px;">1999</text>
									<text transform="matrix(0 -1 1 0 -793 681.7461)" style="font-family:'Helvetica'; font-size:10px;">2000</text>
									<text transform="matrix(0 -1 1 0 -773 681.7461)" style="font-family:'Helvetica'; font-size:10px;">2001</text>
									<text transform="matrix(0 -1 1 0 -753 681.7461)" style="font-family:'Helvetica'; font-size:10px;">2002</text>
									<text transform="matrix(0 -1 1 0 -733 681.7461)" style="font-family:'Helvetica'; font-size:10px;">2003</text>
									<text transform="matrix(0 -1 1 0 -713 681.7461)" style="font-family:'Helvetica'; font-size:10px;">2004</text>
									<text transform="matrix(0 -1 1 0 -693 681.7461)" style="font-family:'Helvetica'; font-size:10px;">2005</text>
									<text transform="matrix(0 -1 1 0 -673 681.7461)" style="font-family:'Helvetica'; font-size:10px;">2006</text>
									<text transform="matrix(0 -1 1 0 -653 681.7461)" style="font-family:'Helvetica'; font-size:10px;">2007</text>
									<text transform="matrix(0 -1 1 0 -633 681.7461)" style="font-family:'Helvetica'; font-size:10px;">2008</text>
									<text transform="matrix(0 -1 1 0 -613 681.7461)" style="font-family:'Helvetica'; font-size:10px;">2009</text>
									<text transform="matrix(0 -1 1 0 -593 681.7461)" style="font-family:'Helvetica'; font-size:10px;">2010</text>
									<text transform="matrix(0 -1 1 0 -573 681.0088)" style="font-family:'Helvetica'; font-size:10px;">2011</text>
									<text transform="matrix(0 -1 1 0 -553 681.7461)" style="font-family:'Helvetica'; font-size:10px;">2012</text>
									<text transform="matrix(0 -1 1 0 -533 681.7461)" style="font-family:'Helvetica'; font-size:10px;">2013</text>
									<text transform="matrix(0 -1 1 0 -513 681.7461)" style="font-family:'Helvetica'; font-size:10px;">2014</text>
									<text transform="matrix(0 -1 1 0 -493 681.7461)" style="font-family:'Helvetica'; font-size:10px;">2015</text>
									<text transform="matrix(0 -1 1 0 -473 681.7461)" style="font-family:'Helvetica'; font-size:10px;">2016</text>
									<text transform="matrix(0 -1 1 0 -453 681.7461)" style="font-family:'Helvetica'; font-size:10px;">2017</text>
									<text transform="matrix(0 -1 1 0 -433 681.7461)" style="font-family:'Helvetica'; font-size:10px;">2018</text>
									<text transform="matrix(0 -1 1 0 -413 681.7461)" style="font-family:'Helvetica'; font-size:10px;">2019</text>
									<text transform="matrix(0 -1 1 0 -393 681.7461)" style="font-family:'Helvetica'; font-size:10px;">2020</text>
									<text transform="matrix(0 -1 1 0 -373 681.7461)" style="font-family:'Helvetica'; font-size:10px;">2021</text>
								</g>
								<g pointer-events="none">
									<line class="st4" x1="-866" y1="652.5" x2="-366" y2="652.5"/>
								</g>
								<g pointer-events="none">
									<text transform="matrix(1 0 0 1 -629.75 694.7461)" style="font-family:'Helvetica-Bold'; font-size:11px;">ANIO</text>
								</g>
							</g>
							<path pointer-events="none" class="st0" d="M-866,652.5"/>
						</g>
					</g>
					<g>
						<g transform="translate(0.5,0.5)">
							<path pointer-events="none" class="st3" d="M-866,652.5L-866,652.5L-866,652.5L-866,652.5z"/>
							<g>
								<g pointer-events="none">
									<line class="st4" x1="-866" y1="662.5" x2="-871" y2="662.5"/>
									<line class="st4" x1="-866" y1="682.5" x2="-871" y2="682.5"/>
									<line class="st4" x1="-866" y1="702.5" x2="-871" y2="702.5"/>
									<line class="st4" x1="-866" y1="722.5" x2="-871" y2="722.5"/>
									<line class="st4" x1="-866" y1="742.5" x2="-871" y2="742.5"/>
									<line class="st4" x1="-866" y1="762.5" x2="-871" y2="762.5"/>
									<line class="st4" x1="-866" y1="782.5" x2="-871" y2="782.5"/>
									<line class="st4" x1="-866" y1="802.5" x2="-871" y2="802.5"/>
									<line class="st4" x1="-866" y1="822.5" x2="-871" y2="822.5"/>
								</g>
								<g pointer-events="none">
									<text transform="matrix(1 0 0 1 -923.9424 665.5)" style="font-family:'Helvetica'; font-size:10px;">BICICLETA</text>
									<text transform="matrix(1 0 0 1 -913 685.5)" style="font-family:'Helvetica'; font-size:10px;">CAMION</text>
									<text transform="matrix(1 0 0 1 -931.7109 705.5)" style="font-family:'Helvetica'; font-size:10px;">CAMIONETA</text>
									<text transform="matrix(1 0 0 1 -926.1641 725.5)" style="font-family:'Helvetica'; font-size:10px;">CAMPASAJ</text>
									<text transform="matrix(1 0 0 1 -926.8916 745.5)" style="font-family:'Helvetica'; font-size:10px;">MICROBUS</text>
									<text transform="matrix(1 0 0 1 -938.3809 765.5)" style="font-family:'Helvetica'; font-size:10px;">MOTOCICLET</text>
									<text transform="matrix(1 0 0 1 -919.6699 785.5)" style="font-family:'Helvetica'; font-size:10px;">OMNIBUS</text>
									<text transform="matrix(1 0 0 1 -932.4482 805.5)" style="font-family:'Helvetica'; font-size:10px;">OTROVEHIC</text>
									<text transform="matrix(1 0 0 1 -932.2725 825.5)" style="font-family:'Helvetica'; font-size:10px;">PASCAMION</text>
								</g>
								<g pointer-events="none">
									<line class="st4" x1="-866" y1="652.5" x2="-866" y2="832.5"/>
								</g>
								<g pointer-events="none">
									<text transform="matrix(0 -1 1 0 -944.3809 763.292)" style="font-family:'Helvetica-Bold'; font-size:11px;">variable</text>
								</g>
							</g>
							<path pointer-events="none" class="st0" d="M-866,652.5"/>
						</g>
					</g>
					<g>
						<path class="st5" d="M-853.6,662.5c0,1.3-1.1,2.4-2.4,2.4s-2.4-1.1-2.4-2.4s1.1-2.4,2.4-2.4S-853.6,661.2-853.6,662.5"/>
						<path class="st5" d="M-852.8,682.5c0,1.8-1.4,3.2-3.2,3.2c-1.8,0-3.2-1.4-3.2-3.2c0,0,0,0,0,0c0-1.8,1.4-3.2,3.2-3.2
							C-854.2,679.3-852.8,680.7-852.8,682.5C-852.8,682.5-852.8,682.5-852.8,682.5"/>
						<path class="st5" d="M-848.9,702.5c0,3.9-3.2,7.1-7.1,7.1s-7.1-3.2-7.1-7.1s3.2-7.1,7.1-7.1S-848.9,698.6-848.9,702.5"/>
						<path class="st5" d="M-851.4,722.5c0,2.6-2.1,4.6-4.6,4.6s-4.6-2.1-4.6-4.6s2.1-4.6,4.6-4.6S-851.4,719.9-851.4,722.5"/>
						<path class="st5" d="M-853.7,742.5c0,1.3-1.1,2.3-2.3,2.3c-1.3,0-2.3-1.1-2.3-2.3c0,0,0,0,0,0c0-1.3,1.1-2.3,2.3-2.3
							C-854.7,740.1-853.7,741.2-853.7,742.5C-853.7,742.5-853.7,742.5-853.7,742.5"/>
						<path class="st5" d="M-853.2,762.5c0,1.5-1.2,2.8-2.8,2.8s-2.8-1.2-2.8-2.8s1.2-2.8,2.8-2.8S-853.2,761-853.2,762.5"/>
						<path class="st5" d="M-854.4,782.5c0,0.9-0.7,1.6-1.6,1.6c-0.9,0-1.6-0.7-1.6-1.6c0,0,0,0,0,0c0-0.9,0.7-1.6,1.6-1.6
							C-855.1,780.9-854.4,781.6-854.4,782.5C-854.4,782.5-854.4,782.5-854.4,782.5"/>
						<path class="st5" d="M-853.1,802.5c0,1.6-1.3,2.9-2.9,2.9s-2.9-1.3-2.9-2.9s1.3-2.9,2.9-2.9S-853.1,800.9-853.1,802.5"/>
						<path class="st5" d="M-852.1,822.5c0,2.2-1.8,3.9-3.9,3.9c-2.2,0-3.9-1.8-3.9-3.9c0,0,0,0,0,0c0-2.2,1.8-3.9,3.9-3.9
							C-853.8,818.6-852.1,820.3-852.1,822.5C-852.1,822.5-852.1,822.5-852.1,822.5"/>
						<path class="st5" d="M-833.6,662.5c0,1.3-1.1,2.4-2.4,2.4s-2.4-1.1-2.4-2.4s1.1-2.4,2.4-2.4S-833.6,661.2-833.6,662.5"/>
						<path class="st5" d="M-832.7,682.5c0,1.8-1.5,3.3-3.3,3.3s-3.3-1.5-3.3-3.3s1.5-3.3,3.3-3.3S-832.7,680.7-832.7,682.5"/>
						<path class="st5" d="M-829.3,702.5c0,3.7-3,6.7-6.7,6.7c-3.7,0-6.7-3-6.7-6.7c0,0,0,0,0,0c0-3.7,3-6.7,6.7-6.7
							C-832.3,695.8-829.3,698.8-829.3,702.5C-829.3,702.5-829.3,702.5-829.3,702.5"/>
						<path class="st5" d="M-830.8,722.5c0,2.9-2.3,5.2-5.2,5.2s-5.2-2.3-5.2-5.2s2.3-5.2,5.2-5.2S-830.8,719.6-830.8,722.5"/>
						<path class="st5" d="M-833.7,742.5c0,1.3-1,2.3-2.3,2.3s-2.3-1-2.3-2.3s1-2.3,2.3-2.3S-833.7,741.2-833.7,742.5"/>
						<path class="st5" d="M-833,762.5c0,1.6-1.3,3-3,3c-1.6,0-3-1.3-3-3c0,0,0,0,0,0c0-1.6,1.3-3,3-3
							C-834.4,759.5-833,760.9-833,762.5C-833,762.5-833,762.5-833,762.5"/>
						<path class="st5" d="M-834.7,782.5c0,0.7-0.6,1.3-1.3,1.3s-1.3-0.6-1.3-1.3s0.6-1.3,1.3-1.3S-834.7,781.8-834.7,782.5"/>
						<path class="st5" d="M-833.7,802.5c0,1.3-1,2.3-2.3,2.3s-2.3-1-2.3-2.3s1-2.3,2.3-2.3S-833.7,801.2-833.7,802.5"/>
						<path class="st5" d="M-831.9,822.5c0,2.3-1.8,4.1-4.1,4.1s-4.1-1.8-4.1-4.1s1.8-4.1,4.1-4.1S-831.9,820.2-831.9,822.5"/>
						<path class="st5" d="M-813.3,662.5c0,1.5-1.2,2.7-2.7,2.7s-2.7-1.2-2.7-2.7s1.2-2.7,2.7-2.7S-813.3,661-813.3,662.5"/>
						<path class="st5" d="M-812,682.5c0,2.2-1.8,4-4,4c-2.2,0-4-1.8-4-4c0,0,0,0,0,0c0-2.2,1.8-4,4-4
							C-813.8,678.5-812,680.3-812,682.5C-812,682.5-812,682.5-812,682.5"/>
						<path class="st5" d="M-809.2,702.5c0,3.7-3,6.8-6.8,6.8s-6.8-3-6.8-6.8s3-6.8,6.8-6.8S-809.2,698.8-809.2,702.5"/>
						<path class="st5" d="M-809.6,722.5c0,3.5-2.8,6.4-6.4,6.4s-6.4-2.8-6.4-6.4s2.8-6.4,6.4-6.4S-809.6,719-809.6,722.5"/>
						<path class="st5" d="M-813.2,742.5c0,1.5-1.3,2.8-2.8,2.8c-1.5,0-2.8-1.3-2.8-2.8c0,0,0,0,0,0c0-1.5,1.3-2.8,2.8-2.8
							C-814.5,739.7-813.2,741-813.2,742.5C-813.2,742.5-813.2,742.5-813.2,742.5"/>
						<path class="st5" d="M-812.6,762.5c0,1.9-1.5,3.4-3.4,3.4s-3.4-1.5-3.4-3.4s1.5-3.4,3.4-3.4S-812.6,760.6-812.6,762.5"/>
						<path class="st5" d="M-814.4,782.5c0,0.9-0.7,1.6-1.6,1.6s-1.6-0.7-1.6-1.6s0.7-1.6,1.6-1.6S-814.4,781.6-814.4,782.5"/>
						<path class="st5" d="M-813.7,802.5c0,1.3-1,2.3-2.3,2.3c-1.3,0-2.3-1-2.3-2.3c0,0,0,0,0,0c0-1.3,1-2.3,2.3-2.3
							C-814.7,800.2-813.7,801.2-813.7,802.5C-813.7,802.5-813.7,802.5-813.7,802.5"/>
						<path class="st5" d="M-811.9,822.5c0,2.3-1.8,4.1-4.1,4.1c-2.3,0-4.1-1.8-4.1-4.1c0,0,0,0,0,0c0-2.3,1.8-4.1,4.1-4.1
							C-813.7,818.4-811.9,820.2-811.9,822.5C-811.9,822.5-811.9,822.5-811.9,822.5"/>
						<path class="st5" d="M-793.5,662.5c0,1.4-1.1,2.5-2.5,2.5c-1.4,0-2.5-1.1-2.5-2.5c0,0,0,0,0,0c0-1.4,1.1-2.5,2.5-2.5
							C-794.6,660-793.5,661.1-793.5,662.5C-793.5,662.5-793.5,662.5-793.5,662.5"/>
						<path class="st5" d="M-791.8,682.5c0,2.3-1.9,4.2-4.2,4.2s-4.2-1.9-4.2-4.2s1.9-4.2,4.2-4.2S-791.8,680.2-791.8,682.5"/>
						<path class="st5" d="M-788.4,702.5c0,4.2-3.4,7.6-7.6,7.6s-7.6-3.4-7.6-7.6s3.4-7.6,7.6-7.6S-788.4,698.3-788.4,702.5"/>
						<path class="st5" d="M-789.2,722.5c0,3.8-3.1,6.8-6.8,6.8c-3.8,0-6.8-3.1-6.8-6.8c0,0,0,0,0,0c0-3.8,3.1-6.8,6.8-6.8
							C-792.2,715.7-789.2,718.7-789.2,722.5C-789.2,722.5-789.2,722.5-789.2,722.5"/>
						<path class="st5" d="M-793.3,742.5c0,1.5-1.2,2.7-2.7,2.7c-1.5,0-2.7-1.2-2.7-2.7c0,0,0,0,0,0c0-1.5,1.2-2.7,2.7-2.7
							C-794.5,739.8-793.3,741-793.3,742.5C-793.3,742.5-793.3,742.5-793.3,742.5"/>
						<path class="st5" d="M-792.8,762.5c0,1.8-1.4,3.2-3.2,3.2s-3.2-1.4-3.2-3.2s1.4-3.2,3.2-3.2S-792.8,760.7-792.8,762.5"/>
						<path class="st5" d="M-794.4,782.5c0,0.9-0.7,1.6-1.6,1.6s-1.6-0.7-1.6-1.6c0,0,0,0,0,0c0-0.9,0.7-1.6,1.6-1.6
							S-794.4,781.6-794.4,782.5C-794.4,782.5-794.4,782.5-794.4,782.5"/>
						<path class="st5" d="M-793.1,802.5c0,1.6-1.3,2.9-2.9,2.9c-1.6,0-2.9-1.3-2.9-2.9c0,0,0,0,0,0c0-1.6,1.3-2.9,2.9-2.9
							C-794.4,799.6-793.1,800.9-793.1,802.5C-793.1,802.5-793.1,802.5-793.1,802.5"/>
						<path class="st5" d="M-791.7,822.5c0,2.4-1.9,4.3-4.3,4.3c-2.4,0-4.3-1.9-4.3-4.3c0,0,0,0,0,0c0-2.4,1.9-4.3,4.3-4.3
							C-793.6,818.2-791.7,820.1-791.7,822.5C-791.7,822.5-791.7,822.5-791.7,822.5"/>
						<path class="st5" d="M-773.4,662.5c0,1.5-1.2,2.6-2.6,2.6s-2.6-1.2-2.6-2.6s1.2-2.6,2.6-2.6S-773.4,661-773.4,662.5"/>
						<path class="st5" d="M-772,682.5c0,2.2-1.8,4-4,4c-2.2,0-4-1.8-4-4c0,0,0,0,0,0c0-2.2,1.8-4,4-4
							C-773.8,678.5-772,680.3-772,682.5C-772,682.5-772,682.5-772,682.5"/>
						<path class="st5" d="M-768,702.5c0,4.4-3.6,8-8,8s-8-3.6-8-8s3.6-8,8-8S-768,698.1-768,702.5"/>
						<path class="st5" d="M-768.9,722.5c0,3.9-3.2,7.1-7.1,7.1s-7.1-3.2-7.1-7.1s3.2-7.1,7.1-7.1S-768.9,718.6-768.9,722.5"/>
						<path class="st5" d="M-773.2,742.5c0,1.6-1.3,2.8-2.8,2.8s-2.8-1.3-2.8-2.8s1.3-2.8,2.8-2.8S-773.2,740.9-773.2,742.5"/>
						<path class="st5" d="M-772.7,762.5c0,1.8-1.5,3.3-3.3,3.3s-3.3-1.5-3.3-3.3c0,0,0,0,0,0c0-1.8,1.5-3.3,3.3-3.3
							S-772.7,760.7-772.7,762.5C-772.7,762.5-772.7,762.5-772.7,762.5"/>
						<path class="st5" d="M-774.2,782.5c0,1-0.8,1.8-1.8,1.8c-1,0-1.8-0.8-1.8-1.8c0,0,0,0,0,0c0-1,0.8-1.8,1.8-1.8
							C-775,780.7-774.2,781.5-774.2,782.5C-774.2,782.5-774.2,782.5-774.2,782.5"/>
						<path class="st5" d="M-771,802.5c0,2.8-2.2,5-5,5c-2.8,0-5-2.2-5-5c0,0,0,0,0,0c0-2.8,2.2-5,5-5
							C-773.2,797.5-771,799.7-771,802.5C-771,802.5-771,802.5-771,802.5"/>
						<path class="st5" d="M-771.6,822.5c0,2.5-2,4.4-4.4,4.4c-2.5,0-4.4-2-4.4-4.4c0,0,0,0,0,0c0-2.5,2-4.4,4.4-4.4
							C-773.5,818.1-771.6,820-771.6,822.5C-771.6,822.5-771.6,822.5-771.6,822.5"/>
						<path class="st5" d="M-753.2,662.5c0,1.6-1.3,2.8-2.8,2.8s-2.8-1.3-2.8-2.8s1.3-2.8,2.8-2.8S-753.2,660.9-753.2,662.5"/>
						<path class="st5" d="M-751.9,682.5c0,2.3-1.9,4.1-4.1,4.1s-4.1-1.9-4.1-4.1c0,0,0,0,0,0c0-2.3,1.9-4.1,4.1-4.1
							S-751.9,680.2-751.9,682.5C-751.9,682.5-751.9,682.5-751.9,682.5"/>
						<path class="st5" d="M-747.1,702.5c0,4.9-4,8.9-8.9,8.9s-8.9-4-8.9-8.9s4-8.9,8.9-8.9S-747.1,697.6-747.1,702.5"/>
						<path class="st5" d="M-748.5,722.5c0,4.1-3.4,7.5-7.5,7.5c-4.1,0-7.5-3.4-7.5-7.5c0,0,0,0,0,0c0-4.1,3.4-7.5,7.5-7.5
							C-751.9,715-748.5,718.4-748.5,722.5C-748.5,722.5-748.5,722.5-748.5,722.5"/>
						<path class="st5" d="M-753,742.5c0,1.7-1.4,3-3,3s-3-1.4-3-3s1.4-3,3-3S-753,740.8-753,742.5"/>
						<path class="st5" d="M-752.4,762.5c0,2-1.6,3.6-3.6,3.6s-3.6-1.6-3.6-3.6s1.6-3.6,3.6-3.6S-752.4,760.5-752.4,762.5"/>
						<path class="st5" d="M-754.2,782.5c0,1-0.8,1.8-1.8,1.8s-1.8-0.8-1.8-1.8s0.8-1.8,1.8-1.8S-754.2,781.5-754.2,782.5"/>
						<path class="st5" d="M-750.5,802.5c0,3.1-2.5,5.5-5.5,5.5c-3.1,0-5.5-2.5-5.5-5.5c0,0,0,0,0,0c0-3.1,2.5-5.5,5.5-5.5
							C-752.9,797-750.5,799.4-750.5,802.5C-750.5,802.5-750.5,802.5-750.5,802.5"/>
						<path class="st5" d="M-751.5,822.5c0,2.5-2,4.5-4.5,4.5s-4.5-2-4.5-4.5s2-4.5,4.5-4.5S-751.5,820-751.5,822.5"/>
						<path class="st5" d="M-733.1,662.5c0,1.6-1.3,2.9-2.9,2.9c-1.6,0-2.9-1.3-2.9-2.9c0,0,0,0,0,0c0-1.6,1.3-2.9,2.9-2.9
							C-734.4,659.6-733.1,660.9-733.1,662.5C-733.1,662.5-733.1,662.5-733.1,662.5"/>
						<path class="st5" d="M-732.1,682.5c0,2.2-1.8,3.9-3.9,3.9s-3.9-1.8-3.9-3.9s1.8-3.9,3.9-3.9S-732.1,680.3-732.1,682.5"/>
						<path class="st5" d="M-726.5,702.5c0,5.2-4.3,9.5-9.5,9.5s-9.5-4.3-9.5-9.5s4.3-9.5,9.5-9.5S-726.5,697.3-726.5,702.5"/>
						<path class="st5" d="M-728.5,722.5c0,4.1-3.3,7.5-7.5,7.5c-4.1,0-7.5-3.3-7.5-7.5c0,0,0,0,0,0c0-4.1,3.3-7.5,7.5-7.5
							C-731.9,715-728.5,718.4-728.5,722.5C-728.5,722.5-728.5,722.5-728.5,722.5"/>
						<path class="st5" d="M-733,742.5c0,1.7-1.4,3-3,3s-3-1.4-3-3s1.4-3,3-3S-733,740.8-733,742.5"/>
						<path class="st5" d="M-732.1,762.5c0,2.1-1.7,3.9-3.9,3.9c-2.1,0-3.9-1.7-3.9-3.9c0,0,0,0,0,0c0-2.1,1.7-3.9,3.9-3.9
							C-733.9,758.6-732.1,760.4-732.1,762.5C-732.1,762.5-732.1,762.5-732.1,762.5"/>
						<path class="st5" d="M-734,782.5c0,1.1-0.9,2-2,2c-1.1,0-2-0.9-2-2c0,0,0,0,0,0c0-1.1,0.9-2,2-2
							C-734.9,780.5-734,781.4-734,782.5C-734,782.5-734,782.5-734,782.5"/>
						<path class="st5" d="M-731.3,802.5c0,2.6-2.1,4.7-4.7,4.7c-2.6,0-4.7-2.1-4.7-4.7c0,0,0,0,0,0c0-2.6,2.1-4.7,4.7-4.7
							C-733.4,797.8-731.3,799.9-731.3,802.5C-731.3,802.5-731.3,802.5-731.3,802.5"/>
						<path class="st5" d="M-731.4,822.5c0,2.5-2,4.6-4.6,4.6s-4.6-2-4.6-4.6s2-4.6,4.6-4.6S-731.4,820-731.4,822.5"/>
						<path class="st5" d="M-713.5,662.5c0,1.4-1.1,2.5-2.5,2.5s-2.5-1.1-2.5-2.5s1.1-2.5,2.5-2.5S-713.5,661.1-713.5,662.5"/>
						<path class="st5" d="M-712.1,682.5c0,2.2-1.8,3.9-3.9,3.9c-2.2,0-3.9-1.8-3.9-3.9c0,0,0,0,0,0c0-2.2,1.8-3.9,3.9-3.9
							C-713.8,678.6-712.1,680.3-712.1,682.5C-712.1,682.5-712.1,682.5-712.1,682.5"/>
						<path class="st5" d="M-706.6,702.5c0,5.2-4.2,9.4-9.4,9.4s-9.4-4.2-9.4-9.4s4.2-9.4,9.4-9.4S-706.6,697.3-706.6,702.5"/>
						<path class="st5" d="M-708.2,722.5c0,4.3-3.5,7.8-7.8,7.8c-4.3,0-7.8-3.5-7.8-7.8c0,0,0,0,0,0c0-4.3,3.5-7.8,7.8-7.8
							C-711.7,714.7-708.2,718.2-708.2,722.5C-708.2,722.5-708.2,722.5-708.2,722.5"/>
						<path class="st5" d="M-712.9,742.5c0,1.7-1.4,3.1-3.1,3.1s-3.1-1.4-3.1-3.1s1.4-3.1,3.1-3.1S-712.9,740.8-712.9,742.5"/>
						<path class="st5" d="M-711.9,762.5c0,2.3-1.8,4.1-4.1,4.1s-4.1-1.8-4.1-4.1s1.8-4.1,4.1-4.1S-711.9,760.2-711.9,762.5"/>
						<path class="st5" d="M-714.2,782.5c0,1-0.8,1.8-1.8,1.8s-1.8-0.8-1.8-1.8s0.8-1.8,1.8-1.8S-714.2,781.5-714.2,782.5"/>
						<path class="st5" d="M-711.3,802.5c0,2.6-2.1,4.7-4.7,4.7c-2.6,0-4.7-2.1-4.7-4.7c0,0,0,0,0,0c0-2.6,2.1-4.7,4.7-4.7
							C-713.4,797.8-711.3,799.9-711.3,802.5C-711.3,802.5-711.3,802.5-711.3,802.5"/>
						<path class="st5" d="M-711.3,822.5c0,2.6-2.1,4.7-4.7,4.7s-4.7-2.1-4.7-4.7s2.1-4.7,4.7-4.7S-711.3,819.9-711.3,822.5"/>
						<path class="st5" d="M-693.5,662.5c0,1.4-1.1,2.5-2.5,2.5c-1.4,0-2.5-1.1-2.5-2.5c0,0,0,0,0,0c0-1.4,1.1-2.5,2.5-2.5
							C-694.6,660-693.5,661.1-693.5,662.5C-693.5,662.5-693.5,662.5-693.5,662.5"/>
						<path class="st5" d="M-691.9,682.5c0,2.3-1.9,4.1-4.1,4.1c-2.3,0-4.1-1.9-4.1-4.1c0,0,0,0,0,0c0-2.3,1.9-4.1,4.1-4.1
							C-693.7,678.4-691.9,680.2-691.9,682.5C-691.9,682.5-691.9,682.5-691.9,682.5"/>
						<path class="st5" d="M-686.7,702.5c0,5.1-4.2,9.3-9.3,9.3s-9.3-4.2-9.3-9.3s4.2-9.3,9.3-9.3S-686.7,697.4-686.7,702.5"/>
						<path class="st5" d="M-688.1,722.5c0,4.4-3.6,7.9-7.9,8c-4.4,0-8-3.6-8-7.9c0,0,0,0,0,0c0-4.4,3.6-7.9,7.9-8
							C-691.6,714.5-688.1,718.1-688.1,722.5C-688.1,722.5-688.1,722.5-688.1,722.5"/>
						<path class="st5" d="M-693.2,742.5c0,1.5-1.2,2.8-2.8,2.8s-2.8-1.2-2.8-2.8s1.2-2.8,2.8-2.8S-693.2,741-693.2,742.5"/>
						<path class="st5" d="M-691.6,762.5c0,2.4-2,4.4-4.4,4.4c-2.4,0-4.4-2-4.4-4.4c0,0,0,0,0,0c0-2.4,2-4.4,4.4-4.4
							C-693.6,758.1-691.6,760.1-691.6,762.5C-691.6,762.5-691.6,762.5-691.6,762.5"/>
						<path class="st5" d="M-693.9,782.5c0,1.2-0.9,2.1-2.1,2.1s-2.1-0.9-2.1-2.1c0,0,0,0,0,0c0-1.2,0.9-2.1,2.1-2.1
							S-693.9,781.3-693.9,782.5C-693.9,782.5-693.9,782.5-693.9,782.5"/>
						<path class="st5" d="M-691.5,802.5c0,2.5-2,4.5-4.5,4.5s-4.5-2-4.5-4.5s2-4.5,4.5-4.5S-691.5,800-691.5,802.5"/>
						<path class="st5" d="M-691.8,822.5c0,2.3-1.9,4.2-4.2,4.2s-4.2-1.9-4.2-4.2s1.9-4.2,4.2-4.2S-691.8,820.2-691.8,822.5"/>
						<path class="st5" d="M-673.5,662.5c0,1.4-1.1,2.5-2.5,2.5c-1.4,0-2.5-1.1-2.5-2.5c0,0,0,0,0,0c0-1.4,1.1-2.5,2.5-2.5
							C-674.6,660-673.5,661.1-673.5,662.5C-673.5,662.5-673.5,662.5-673.5,662.5"/>
						<path class="st5" d="M-671.8,682.5c0,2.3-1.9,4.2-4.2,4.2s-4.2-1.9-4.2-4.2s1.9-4.2,4.2-4.2S-671.8,680.2-671.8,682.5"/>
						<path class="st5" d="M-666.7,702.5c0,5.2-4.2,9.3-9.3,9.3c-5.2,0-9.3-4.2-9.3-9.3c0,0,0,0,0,0c0-5.2,4.2-9.3,9.3-9.3
							C-670.8,693.2-666.7,697.3-666.7,702.5C-666.7,702.5-666.7,702.5-666.7,702.5"/>
						<path class="st5" d="M-667.5,722.5c0,4.7-3.8,8.5-8.5,8.5s-8.5-3.8-8.5-8.5s3.8-8.5,8.5-8.5S-667.5,717.8-667.5,722.5"/>
						<path class="st5" d="M-673.1,742.5c0,1.6-1.3,2.9-2.9,2.9c-1.6,0-2.9-1.3-2.9-2.9c0,0,0,0,0,0c0-1.6,1.3-2.9,2.9-2.9
							C-674.4,739.6-673.1,740.9-673.1,742.5C-673.1,742.5-673.1,742.5-673.1,742.5"/>
						<path class="st5" d="M-671.2,762.5c0,2.6-2.1,4.8-4.8,4.8c-2.6,0-4.8-2.1-4.8-4.8c0,0,0,0,0,0c0-2.6,2.1-4.8,4.8-4.8
							C-673.4,757.7-671.2,759.9-671.2,762.5C-671.2,762.5-671.2,762.5-671.2,762.5"/>
						<path class="st5" d="M-673.7,782.5c0,1.3-1,2.3-2.3,2.3s-2.3-1-2.3-2.3c0,0,0,0,0,0c0-1.3,1-2.3,2.3-2.3
							S-673.7,781.2-673.7,782.5C-673.7,782.5-673.7,782.5-673.7,782.5"/>
						<path class="st5" d="M-671.8,802.5c0,2.3-1.9,4.2-4.2,4.2s-4.2-1.9-4.2-4.2s1.9-4.2,4.2-4.2S-671.8,800.2-671.8,802.5"/>
						<path class="st5" d="M-671.8,822.5c0,2.3-1.9,4.2-4.2,4.2c-2.3,0-4.2-1.9-4.2-4.2c0,0,0,0,0,0c0-2.3,1.9-4.2,4.2-4.2
							C-673.7,818.3-671.8,820.2-671.8,822.5C-671.8,822.5-671.8,822.5-671.8,822.5"/>
						<path class="st5" d="M-653.6,662.5c0,1.3-1.1,2.4-2.4,2.4s-2.4-1.1-2.4-2.4s1.1-2.4,2.4-2.4S-653.6,661.2-653.6,662.5"/>
						<path class="st5" d="M-651.9,682.5c0,2.3-1.8,4.1-4.1,4.1s-4.1-1.8-4.1-4.1s1.8-4.1,4.1-4.1S-651.9,680.2-651.9,682.5"/>
						<path class="st5" d="M-646.6,702.5c0,5.2-4.2,9.4-9.4,9.4s-9.4-4.2-9.4-9.4s4.2-9.4,9.4-9.4S-646.6,697.3-646.6,702.5"/>
						<path class="st5" d="M-647.2,722.5c0,4.8-3.9,8.8-8.8,8.8s-8.8-3.9-8.8-8.8s3.9-8.8,8.8-8.8S-647.2,717.7-647.2,722.5"/>
						<path class="st5" d="M-652.6,742.5c0,1.9-1.5,3.4-3.4,3.4c-1.9,0-3.4-1.5-3.4-3.4c0,0,0,0,0,0c0-1.9,1.5-3.4,3.4-3.4
							C-654.1,739.1-652.6,740.6-652.6,742.5C-652.6,742.5-652.6,742.5-652.6,742.5"/>
						<path class="st5" d="M-650.9,762.5c0,2.8-2.3,5.1-5.1,5.1c-2.8,0-5.1-2.3-5.1-5.1c0,0,0,0,0,0c0-2.8,2.3-5.1,5.1-5.1
							C-653.2,757.4-650.9,759.7-650.9,762.5C-650.9,762.5-650.9,762.5-650.9,762.5"/>
						<path class="st5" d="M-653.7,782.5c0,1.3-1,2.3-2.3,2.3s-2.3-1-2.3-2.3s1-2.3,2.3-2.3S-653.7,781.2-653.7,782.5"/>
						<path class="st5" d="M-652.1,802.5c0,2.2-1.8,3.9-3.9,3.9c-2.2,0-3.9-1.8-3.9-3.9c0,0,0,0,0,0c0-2.2,1.8-3.9,3.9-3.9
							C-653.8,798.6-652.1,800.3-652.1,802.5C-652.1,802.5-652.1,802.5-652.1,802.5"/>
						<path class="st5" d="M-652.2,822.5c0,2.1-1.7,3.8-3.8,3.8c-2.1,0-3.8-1.7-3.8-3.8c0,0,0,0,0,0c0-2.1,1.7-3.8,3.8-3.8
							C-653.9,818.7-652.2,820.4-652.2,822.5C-652.2,822.5-652.2,822.5-652.2,822.5"/>
						<path class="st5" d="M-633.7,662.5c0,1.3-1,2.3-2.3,2.3c-1.3,0-2.3-1-2.3-2.3c0,0,0,0,0,0c0-1.3,1-2.3,2.3-2.3
							C-634.7,660.2-633.7,661.2-633.7,662.5C-633.7,662.5-633.7,662.5-633.7,662.5"/>
						<path class="st5" d="M-631.9,682.5c0,2.2-1.8,4.1-4.1,4.1c-2.2,0-4.1-1.8-4.1-4.1c0,0,0,0,0,0c0-2.2,1.8-4.1,4.1-4.1
							C-633.8,678.4-631.9,680.3-631.9,682.5C-631.9,682.5-631.9,682.5-631.9,682.5"/>
						<path class="st5" d="M-627.2,702.5c0,4.9-3.9,8.8-8.8,8.8c-4.9,0-8.8-3.9-8.8-8.8c0,0,0,0,0,0c0-4.9,3.9-8.8,8.8-8.8
							C-631.1,693.7-627.2,697.6-627.2,702.5C-627.2,702.5-627.2,702.5-627.2,702.5"/>
						<path class="st5" d="M-627.6,722.5c0,4.6-3.8,8.4-8.4,8.4s-8.4-3.8-8.4-8.4s3.8-8.4,8.4-8.4S-627.6,717.9-627.6,722.5"/>
						<path class="st5" d="M-632.9,742.5c0,1.7-1.4,3.1-3.1,3.1s-3.1-1.4-3.1-3.1s1.4-3.1,3.1-3.1S-632.9,740.8-632.9,742.5"/>
						<path class="st5" d="M-630.8,762.5c0,2.9-2.3,5.2-5.2,5.2s-5.2-2.3-5.2-5.2s2.3-5.2,5.2-5.2S-630.8,759.6-630.8,762.5"/>
						<path class="st5" d="M-633.8,782.5c0,1.2-1,2.2-2.2,2.2c-1.2,0-2.2-1-2.2-2.2c0,0,0,0,0,0c0-1.2,1-2.2,2.2-2.2
							C-634.8,780.3-633.8,781.3-633.8,782.5C-633.8,782.5-633.8,782.5-633.8,782.5"/>
						<path class="st5" d="M-632.1,802.5c0,2.1-1.7,3.9-3.9,3.9s-3.9-1.7-3.9-3.9c0,0,0,0,0,0c0-2.1,1.7-3.9,3.9-3.9
							S-632.1,800.4-632.1,802.5C-632.1,802.5-632.1,802.5-632.1,802.5"/>
						<path class="st5" d="M-632,822.5c0,2.2-1.8,4-4,4s-4-1.8-4-4s1.8-4,4-4S-632,820.3-632,822.5"/>
						<path class="st5" d="M-613.4,662.5c0,1.4-1.1,2.6-2.6,2.6c-1.4,0-2.6-1.1-2.6-2.6c0,0,0,0,0,0c0-1.4,1.1-2.6,2.6-2.6
							C-614.6,659.9-613.4,661.1-613.4,662.5C-613.4,662.5-613.4,662.5-613.4,662.5"/>
						<path class="st5" d="M-612.1,682.5c0,2.1-1.7,3.9-3.9,3.9c-2.1,0-3.9-1.7-3.9-3.9c0,0,0,0,0,0c0-2.1,1.7-3.9,3.9-3.9
							C-613.9,678.6-612.1,680.4-612.1,682.5C-612.1,682.5-612.1,682.5-612.1,682.5"/>
						<path class="st5" d="M-607.2,702.5c0,4.9-3.9,8.8-8.8,8.8c-4.9,0-8.8-3.9-8.8-8.8c0,0,0,0,0,0c0-4.9,3.9-8.8,8.8-8.8
							C-611.1,693.7-607.2,697.6-607.2,702.5C-607.2,702.5-607.2,702.5-607.2,702.5"/>
						<path class="st5" d="M-607.8,722.5c0,4.6-3.7,8.2-8.2,8.2c-4.6,0-8.2-3.7-8.2-8.2c0,0,0,0,0,0c0-4.6,3.7-8.2,8.2-8.2
							C-611.5,714.3-607.8,717.9-607.8,722.5C-607.8,722.5-607.8,722.5-607.8,722.5"/>
						<path class="st5" d="M-612.6,742.5c0,1.9-1.5,3.4-3.4,3.4s-3.4-1.5-3.4-3.4s1.5-3.4,3.4-3.4S-612.6,740.6-612.6,742.5"/>
						<path class="st5" d="M-610.7,762.5c0,2.9-2.4,5.3-5.3,5.3c-2.9,0-5.3-2.4-5.3-5.3c0,0,0,0,0,0c0-2.9,2.4-5.3,5.3-5.3
							C-613.1,757.2-610.7,759.6-610.7,762.5C-610.7,762.5-610.7,762.5-610.7,762.5"/>
						<path class="st5" d="M-613.9,782.5c0,1.1-0.9,2.1-2.1,2.1s-2.1-0.9-2.1-2.1s0.9-2.1,2.1-2.1S-613.9,781.4-613.9,782.5"/>
						<path class="st5" d="M-612.6,802.5c0,1.9-1.5,3.4-3.4,3.4s-3.4-1.5-3.4-3.4c0,0,0,0,0,0c0-1.9,1.5-3.4,3.4-3.4
							S-612.6,800.6-612.6,802.5C-612.6,802.5-612.6,802.5-612.6,802.5"/>
						<path class="st5" d="M-612,822.5c0,2.2-1.8,4-4,4c-2.2,0-4-1.8-4-4c0,0,0,0,0,0c0-2.2,1.8-4,4-4
							C-613.8,818.5-612,820.3-612,822.5C-612,822.5-612,822.5-612,822.5"/>
						<path class="st5" d="M-593.6,662.5c0,1.3-1.1,2.4-2.4,2.4s-2.4-1.1-2.4-2.4s1.1-2.4,2.4-2.4S-593.6,661.2-593.6,662.5"/>
						<path class="st5" d="M-592.3,682.5c0,2-1.6,3.7-3.7,3.7c-2,0-3.7-1.6-3.7-3.7c0,0,0,0,0,0c0-2,1.6-3.7,3.7-3.7
							C-594,678.8-592.3,680.5-592.3,682.5C-592.3,682.5-592.3,682.5-592.3,682.5"/>
						<path class="st5" d="M-587.3,702.5c0,4.8-3.9,8.7-8.7,8.7c-4.8,0-8.7-3.9-8.7-8.7c0,0,0,0,0,0c0-4.8,3.9-8.7,8.7-8.7
							C-591.2,693.8-587.3,697.7-587.3,702.5C-587.3,702.5-587.3,702.5-587.3,702.5"/>
						<path class="st5" d="M-588.2,722.5c0,4.3-3.5,7.8-7.8,7.8s-7.8-3.5-7.8-7.8s3.5-7.8,7.8-7.8S-588.2,718.2-588.2,722.5"/>
						<path class="st5" d="M-592.7,742.5c0,1.8-1.5,3.3-3.3,3.3s-3.3-1.5-3.3-3.3s1.5-3.3,3.3-3.3S-592.7,740.7-592.7,742.5"/>
						<path class="st5" d="M-590.7,762.5c0,2.9-2.4,5.3-5.3,5.3s-5.3-2.4-5.3-5.3s2.4-5.3,5.3-5.3S-590.7,759.6-590.7,762.5"/>
						<path class="st5" d="M-593.9,782.5c0,1.2-1,2.1-2.1,2.1s-2.1-1-2.1-2.1s1-2.1,2.1-2.1S-593.9,781.3-593.9,782.5"/>
						<path class="st5" d="M-592.6,802.5c0,1.9-1.5,3.4-3.4,3.4s-3.4-1.5-3.4-3.4s1.5-3.4,3.4-3.4S-592.6,800.6-592.6,802.5"/>
						<path class="st5" d="M-591.8,822.5c0,2.3-1.9,4.2-4.2,4.2s-4.2-1.9-4.2-4.2s1.9-4.2,4.2-4.2S-591.8,820.2-591.8,822.5"/>
						<path class="st5" d="M-573.6,662.5c0,1.3-1.1,2.4-2.4,2.4s-2.4-1.1-2.4-2.4s1.1-2.4,2.4-2.4S-573.6,661.2-573.6,662.5"/>
						<path class="st5" d="M-572.4,682.5c0,2-1.6,3.6-3.6,3.6s-3.6-1.6-3.6-3.6s1.6-3.6,3.6-3.6S-572.4,680.5-572.4,682.5"/>
						<path class="st5" d="M-568,702.5c0,4.4-3.6,8-8,8s-8-3.6-8-8c0,0,0,0,0,0c0-4.4,3.6-8,8-8S-568,698.1-568,702.5
							C-568,702.5-568,702.5-568,702.5"/>
						<path class="st5" d="M-568.8,722.5c0,4-3.2,7.2-7.2,7.2s-7.2-3.2-7.2-7.2s3.2-7.2,7.2-7.2S-568.8,718.5-568.8,722.5"/>
						<path class="st5" d="M-573.2,742.5c0,1.5-1.2,2.8-2.8,2.8s-2.8-1.2-2.8-2.8s1.2-2.8,2.8-2.8S-573.2,741-573.2,742.5"/>
						<path class="st5" d="M-570.7,762.5c0,2.9-2.4,5.3-5.3,5.3s-5.3-2.4-5.3-5.3s2.4-5.3,5.3-5.3S-570.7,759.6-570.7,762.5"/>
						<path class="st5" d="M-573.8,782.5c0,1.2-1,2.2-2.2,2.2c-1.2,0-2.2-1-2.2-2.2c0,0,0,0,0,0c0-1.2,1-2.2,2.2-2.2
							C-574.8,780.3-573.8,781.3-573.8,782.5C-573.8,782.5-573.8,782.5-573.8,782.5"/>
						<path class="st5" d="M-572.8,802.5c0,1.7-1.4,3.2-3.2,3.2c-1.7,0-3.2-1.4-3.2-3.2c0,0,0,0,0,0c0-1.7,1.4-3.2,3.2-3.2
							C-574.3,799.3-572.8,800.8-572.8,802.5C-572.8,802.5-572.8,802.5-572.8,802.5"/>
						<path class="st5" d="M-572,822.5c0,2.2-1.8,4-4,4c-2.2,0-4-1.8-4-4c0,0,0,0,0,0c0-2.2,1.8-4,4-4
							C-573.8,818.5-572,820.3-572,822.5C-572,822.5-572,822.5-572,822.5"/>
						<path class="st5" d="M-553.6,662.5c0,1.3-1.1,2.4-2.4,2.4s-2.4-1.1-2.4-2.4c0,0,0,0,0,0c0-1.3,1.1-2.4,2.4-2.4
							S-553.6,661.2-553.6,662.5C-553.6,662.5-553.6,662.5-553.6,662.5"/>
						<path class="st5" d="M-552.2,682.5c0,2.1-1.7,3.8-3.8,3.8s-3.8-1.7-3.8-3.8s1.7-3.8,3.8-3.8S-552.2,680.4-552.2,682.5"/>
						<path class="st5" d="M-547.7,702.5c0,4.6-3.7,8.3-8.3,8.3c-4.6,0-8.3-3.7-8.3-8.3c0,0,0,0,0,0c0-4.6,3.7-8.3,8.3-8.3
							C-551.4,694.2-547.7,697.9-547.7,702.5C-547.7,702.5-547.7,702.5-547.7,702.5"/>
						<path class="st5" d="M-548.3,722.5c0,4.2-3.4,7.7-7.7,7.7s-7.7-3.4-7.7-7.7s3.4-7.7,7.7-7.7S-548.3,718.3-548.3,722.5"/>
						<path class="st5" d="M-552.6,742.5c0,1.9-1.5,3.4-3.4,3.4s-3.4-1.5-3.4-3.4s1.5-3.4,3.4-3.4S-552.6,740.6-552.6,742.5"/>
						<path class="st5" d="M-550.3,762.5c0,3.1-2.5,5.7-5.7,5.7s-5.7-2.5-5.7-5.7s2.5-5.7,5.7-5.7S-550.3,759.4-550.3,762.5"/>
						<path class="st5" d="M-553.7,782.5c0,1.3-1,2.3-2.3,2.3s-2.3-1-2.3-2.3s1-2.3,2.3-2.3S-553.7,781.2-553.7,782.5"/>
						<path class="st5" d="M-553,802.5c0,1.7-1.4,3-3,3s-3-1.4-3-3s1.4-3,3-3S-553,800.8-553,802.5"/>
						<path class="st5" d="M-552,822.5c0,2.2-1.8,4-4,4s-4-1.8-4-4s1.8-4,4-4S-552,820.3-552,822.5"/>
						<path class="st5" d="M-533.6,662.5c0,1.3-1.1,2.4-2.4,2.4s-2.4-1.1-2.4-2.4s1.1-2.4,2.4-2.4S-533.6,661.2-533.6,662.5"/>
						<path class="st5" d="M-532.4,682.5c0,2-1.6,3.6-3.6,3.6s-3.6-1.6-3.6-3.6s1.6-3.6,3.6-3.6S-532.4,680.5-532.4,682.5"/>
						<path class="st5" d="M-528.3,702.5c0,4.3-3.5,7.7-7.7,7.7c-4.3,0-7.7-3.5-7.7-7.7c0,0,0,0,0,0c0-4.3,3.5-7.7,7.7-7.7
							C-531.7,694.8-528.3,698.2-528.3,702.5C-528.3,702.5-528.3,702.5-528.3,702.5"/>
						<path class="st5" d="M-528.6,722.5c0,4.1-3.3,7.4-7.4,7.4c-4.1,0-7.4-3.3-7.4-7.4c0,0,0,0,0,0c0-4.1,3.3-7.4,7.4-7.4
							C-531.9,715.1-528.6,718.4-528.6,722.5C-528.6,722.5-528.6,722.5-528.6,722.5"/>
						<path class="st5" d="M-533,742.5c0,1.6-1.3,3-3,3s-3-1.3-3-3s1.3-3,3-3S-533,740.9-533,742.5"/>
						<path class="st5" d="M-530.3,762.5c0,3.2-2.6,5.7-5.7,5.7s-5.7-2.6-5.7-5.7s2.6-5.7,5.7-5.7S-530.3,759.3-530.3,762.5"/>
						<path class="st5" d="M-533.8,782.5c0,1.2-1,2.2-2.2,2.2c-1.2,0-2.2-1-2.2-2.2c0,0,0,0,0,0c0-1.2,1-2.2,2.2-2.2
							C-534.8,780.3-533.8,781.3-533.8,782.5C-533.8,782.5-533.8,782.5-533.8,782.5"/>
						<path class="st5" d="M-533.1,802.5c0,1.6-1.3,2.9-2.9,2.9s-2.9-1.3-2.9-2.9s1.3-2.9,2.9-2.9S-533.1,800.9-533.1,802.5"/>
						<path class="st5" d="M-532,822.5c0,2.2-1.8,4-4,4s-4-1.8-4-4s1.8-4,4-4S-532,820.3-532,822.5"/>
						<path class="st5" d="M-513.6,662.5c0,1.3-1.1,2.4-2.4,2.4s-2.4-1.1-2.4-2.4c0,0,0,0,0,0c0-1.3,1.1-2.4,2.4-2.4
							S-513.6,661.2-513.6,662.5C-513.6,662.5-513.6,662.5-513.6,662.5"/>
						<path class="st5" d="M-512.3,682.5c0,2.1-1.7,3.7-3.7,3.7s-3.7-1.7-3.7-3.7c0,0,0,0,0,0c0-2.1,1.7-3.7,3.7-3.7
							S-512.3,680.4-512.3,682.5C-512.3,682.5-512.3,682.5-512.3,682.5"/>
						<path class="st5" d="M-508.3,702.5c0,4.3-3.5,7.7-7.7,7.7c-4.3,0-7.7-3.5-7.7-7.7s3.5-7.7,7.7-7.7
							C-511.7,694.8-508.3,698.2-508.3,702.5"/>
						<path class="st5" d="M-508.8,722.5c0,4-3.2,7.2-7.2,7.2s-7.2-3.2-7.2-7.2s3.2-7.2,7.2-7.2S-508.8,718.5-508.8,722.5"/>
						<path class="st5" d="M-513.2,742.5c0,1.6-1.3,2.8-2.8,2.8s-2.8-1.3-2.8-2.8s1.3-2.8,2.8-2.8S-513.2,740.9-513.2,742.5"/>
						<path class="st5" d="M-510.2,762.5c0,3.2-2.6,5.8-5.8,5.8c-3.2,0-5.8-2.6-5.8-5.8c0,0,0,0,0,0c0-3.2,2.6-5.8,5.8-5.8
							C-512.8,756.7-510.2,759.3-510.2,762.5C-510.2,762.5-510.2,762.5-510.2,762.5"/>
						<path class="st5" d="M-513.8,782.5c0,1.2-1,2.2-2.2,2.2s-2.2-1-2.2-2.2s1-2.2,2.2-2.2S-513.8,781.3-513.8,782.5"/>
						<path class="st5" d="M-513,802.5c0,1.7-1.3,3-3,3s-3-1.3-3-3s1.3-3,3-3S-513,800.8-513,802.5"/>
						<path class="st5" d="M-512,822.5c0,2.2-1.8,4-4,4s-4-1.8-4-4s1.8-4,4-4S-512,820.3-512,822.5"/>
						<path class="st5" d="M-493.7,662.5c0,1.3-1,2.3-2.3,2.3c-1.3,0-2.3-1-2.3-2.3c0,0,0,0,0,0c0-1.3,1-2.3,2.3-2.3
							C-494.7,660.2-493.7,661.2-493.7,662.5C-493.7,662.5-493.7,662.5-493.7,662.5"/>
						<path class="st5" d="M-492.4,682.5c0,2-1.6,3.6-3.6,3.6s-3.6-1.6-3.6-3.6s1.6-3.6,3.6-3.6S-492.4,680.5-492.4,682.5"/>
						<path class="st5" d="M-488.7,702.5c0,4-3.3,7.3-7.3,7.3c-4,0-7.3-3.3-7.3-7.3c0,0,0,0,0,0c0-4,3.3-7.3,7.3-7.3
							C-492,695.2-488.7,698.5-488.7,702.5C-488.7,702.5-488.7,702.5-488.7,702.5"/>
						<path class="st5" d="M-488.6,722.5c0,4.1-3.3,7.4-7.4,7.4s-7.4-3.3-7.4-7.4s3.3-7.4,7.4-7.4S-488.6,718.4-488.6,722.5"/>
						<path class="st5" d="M-493.7,742.5c0,1.3-1,2.3-2.3,2.3c-1.3,0-2.3-1-2.3-2.3c0,0,0,0,0,0c0-1.3,1-2.3,2.3-2.3
							C-494.7,740.2-493.7,741.2-493.7,742.5C-493.7,742.5-493.7,742.5-493.7,742.5"/>
						<path class="st5" d="M-490.2,762.5c0,3.2-2.6,5.8-5.8,5.8s-5.8-2.6-5.8-5.8s2.6-5.8,5.8-5.8S-490.2,759.3-490.2,762.5"/>
						<path class="st5" d="M-494,782.5c0,1.1-0.9,2-2,2s-2-0.9-2-2c0,0,0,0,0,0c0-1.1,0.9-2,2-2S-494,781.4-494,782.5
							C-494,782.5-494,782.5-494,782.5"/>
						<path class="st5" d="M-492.9,802.5c0,1.7-1.4,3.1-3.1,3.1s-3.1-1.4-3.1-3.1s1.4-3.1,3.1-3.1S-492.9,800.8-492.9,802.5"/>
						<path class="st5" d="M-492,822.5c0,2.2-1.8,4-4,4s-4-1.8-4-4s1.8-4,4-4S-492,820.3-492,822.5"/>
						<path class="st5" d="M-473.8,662.5c0,1.2-1,2.2-2.2,2.2c-1.2,0-2.2-1-2.2-2.2c0,0,0,0,0,0c0-1.2,1-2.2,2.2-2.2
							C-474.8,660.3-473.8,661.3-473.8,662.5C-473.8,662.5-473.8,662.5-473.8,662.5"/>
						<path class="st5" d="M-472.5,682.5c0,1.9-1.6,3.5-3.5,3.5s-3.5-1.6-3.5-3.5s1.6-3.5,3.5-3.5S-472.5,680.6-472.5,682.5"/>
						<path class="st5" d="M-469.6,702.5c0,3.5-2.8,6.4-6.4,6.4s-6.4-2.8-6.4-6.4s2.8-6.4,6.4-6.4S-469.6,699-469.6,702.5"/>
						<path class="st5" d="M-468.3,722.5c0,4.2-3.4,7.7-7.7,7.7s-7.7-3.4-7.7-7.7s3.4-7.7,7.7-7.7S-468.3,718.3-468.3,722.5"/>
						<path class="st5" d="M-473.8,742.5c0,1.2-1,2.2-2.2,2.2c-1.2,0-2.2-1-2.2-2.2c0,0,0,0,0,0c0-1.2,1-2.2,2.2-2.2
							C-474.8,740.3-473.8,741.3-473.8,742.5C-473.8,742.5-473.8,742.5-473.8,742.5"/>
						<path class="st5" d="M-470.1,762.5c0,3.3-2.6,5.9-5.9,5.9s-5.9-2.6-5.9-5.9s2.6-5.9,5.9-5.9S-470.1,759.2-470.1,762.5"/>
						<path class="st5" d="M-474.6,782.5c0,0.8-0.6,1.4-1.4,1.4c-0.8,0-1.4-0.6-1.4-1.4c0,0,0,0,0,0c0-0.8,0.6-1.4,1.4-1.4
							C-475.2,781.1-474.6,781.7-474.6,782.5C-474.6,782.5-474.6,782.5-474.6,782.5"/>
						<path class="st5" d="M-473.3,802.5c0,1.5-1.2,2.7-2.7,2.7s-2.7-1.2-2.7-2.7s1.2-2.7,2.7-2.7S-473.3,801-473.3,802.5"/>
						<path class="st5" d="M-472,822.5c0,2.2-1.8,4-4,4c-2.2,0-4-1.8-4-4c0,0,0,0,0,0c0-2.2,1.8-4,4-4
							C-473.8,818.5-472,820.3-472,822.5C-472,822.5-472,822.5-472,822.5"/>
						<path class="st5" d="M-453.9,662.5c0,1.2-0.9,2.1-2.1,2.1s-2.1-0.9-2.1-2.1s0.9-2.1,2.1-2.1S-453.9,661.3-453.9,662.5"/>
						<path class="st5" d="M-452.4,682.5c0,2-1.6,3.6-3.6,3.6s-3.6-1.6-3.6-3.6s1.6-3.6,3.6-3.6S-452.4,680.5-452.4,682.5"/>
						<path class="st5" d="M-449.7,702.5c0,3.5-2.8,6.3-6.3,6.3s-6.3-2.8-6.3-6.3c0,0,0,0,0,0c0-3.5,2.8-6.3,6.3-6.3
							S-449.7,699-449.7,702.5C-449.7,702.5-449.7,702.5-449.7,702.5"/>
						<path class="st5" d="M-447.7,722.5c0,4.6-3.7,8.3-8.3,8.3s-8.3-3.7-8.3-8.3c0,0,0,0,0,0c0-4.6,3.7-8.3,8.3-8.3
							S-447.7,717.9-447.7,722.5C-447.7,722.5-447.7,722.5-447.7,722.5"/>
						<path class="st5" d="M-454,742.5c0,1.1-0.9,2-2,2c-1.1,0-2-0.9-2-2c0,0,0,0,0,0c0-1.1,0.9-2,2-2
							C-454.9,740.5-454,741.4-454,742.5C-454,742.5-454,742.5-454,742.5"/>
						<path class="st5" d="M-449.9,762.5c0,3.4-2.7,6.1-6.1,6.1s-6.1-2.7-6.1-6.1c0,0,0,0,0,0c0-3.4,2.7-6.1,6.1-6.1
							S-449.9,759.1-449.9,762.5C-449.9,762.5-449.9,762.5-449.9,762.5"/>
						<path class="st5" d="M-454.5,782.5c0,0.8-0.7,1.5-1.5,1.5s-1.5-0.7-1.5-1.5c0,0,0,0,0,0c0-0.8,0.7-1.5,1.5-1.5
							S-454.5,781.7-454.5,782.5C-454.5,782.5-454.5,782.5-454.5,782.5"/>
						<path class="st5" d="M-451.9,802.5c0,2.2-1.8,4.1-4.1,4.1s-4.1-1.8-4.1-4.1c0,0,0,0,0,0c0-2.2,1.8-4.1,4.1-4.1
							S-451.9,800.3-451.9,802.5C-451.9,802.5-451.9,802.5-451.9,802.5"/>
						<path class="st5" d="M-451.9,822.5c0,2.3-1.8,4.1-4.1,4.1s-4.1-1.8-4.1-4.1s1.8-4.1,4.1-4.1S-451.9,820.2-451.9,822.5"/>
						<path class="st5" d="M-434,662.5c0,1.1-0.9,2-2,2s-2-0.9-2-2s0.9-2,2-2S-434,661.4-434,662.5"/>
						<path class="st5" d="M-432.3,682.5c0,2-1.6,3.7-3.7,3.7c-2,0-3.7-1.6-3.7-3.7c0,0,0,0,0,0c0-2,1.6-3.7,3.7-3.7
							C-434,678.8-432.3,680.5-432.3,682.5C-432.3,682.5-432.3,682.5-432.3,682.5"/>
						<path class="st5" d="M-429.8,702.5c0,3.4-2.8,6.2-6.2,6.2s-6.2-2.8-6.2-6.2s2.8-6.2,6.2-6.2S-429.8,699.1-429.8,702.5"/>
						<path class="st5" d="M-427.4,722.5c0,4.7-3.8,8.6-8.6,8.6s-8.6-3.8-8.6-8.6s3.8-8.6,8.6-8.6S-427.4,717.8-427.4,722.5"/>
						<path class="st5" d="M-434.4,742.5c0,0.9-0.7,1.6-1.6,1.6s-1.6-0.7-1.6-1.6s0.7-1.6,1.6-1.6S-434.4,741.6-434.4,742.5"/>
						<path class="st5" d="M-429.7,762.5c0,3.5-2.8,6.3-6.3,6.3s-6.3-2.8-6.3-6.3c0,0,0,0,0,0c0-3.5,2.8-6.3,6.3-6.3
							S-429.7,759-429.7,762.5C-429.7,762.5-429.7,762.5-429.7,762.5"/>
						<path class="st5" d="M-434.4,782.5c0,0.9-0.7,1.6-1.6,1.6c-0.9,0-1.6-0.7-1.6-1.6c0,0,0,0,0,0c0-0.9,0.7-1.6,1.6-1.6
							C-435.1,780.9-434.4,781.6-434.4,782.5C-434.4,782.5-434.4,782.5-434.4,782.5"/>
						<path class="st5" d="M-433,802.5c0,1.7-1.4,3-3,3s-3-1.4-3-3c0,0,0,0,0,0c0-1.7,1.4-3,3-3S-433,800.8-433,802.5
							C-433,802.5-433,802.5-433,802.5"/>
						<path class="st5" d="M-431.6,822.5c0,2.4-2,4.4-4.4,4.4c-2.4,0-4.4-2-4.4-4.4c0,0,0,0,0,0c0-2.4,2-4.4,4.4-4.4
							C-433.6,818.1-431.6,820.1-431.6,822.5C-431.6,822.5-431.6,822.5-431.6,822.5"/>
						<path class="st5" d="M-414,662.5c0,1.1-0.9,2-2,2s-2-0.9-2-2s0.9-2,2-2S-414,661.4-414,662.5"/>
						<path class="st5" d="M-412.6,682.5c0,1.9-1.5,3.4-3.4,3.4c-1.9,0-3.4-1.5-3.4-3.4c0,0,0,0,0,0c0-1.9,1.5-3.4,3.4-3.4
							C-414.1,679.1-412.6,680.6-412.6,682.5C-412.6,682.5-412.6,682.5-412.6,682.5"/>
						<path class="st5" d="M-409.9,702.5c0,3.4-2.7,6.1-6.1,6.1s-6.1-2.7-6.1-6.1s2.7-6.1,6.1-6.1S-409.9,699.1-409.9,702.5"/>
						<path class="st5" d="M-407.8,722.5c0,4.6-3.7,8.2-8.2,8.2s-8.2-3.7-8.2-8.2s3.7-8.2,8.2-8.2S-407.8,717.9-407.8,722.5"/>
						<path class="st5" d="M-414.5,742.5c0,0.8-0.7,1.5-1.5,1.5s-1.5-0.7-1.5-1.5s0.7-1.5,1.5-1.5S-414.5,741.7-414.5,742.5"/>
						<path class="st5" d="M-409.3,762.5c0,3.7-3,6.7-6.7,6.7s-6.7-3-6.7-6.7c0,0,0,0,0,0c0-3.7,3-6.7,6.7-6.7
							S-409.3,758.8-409.3,762.5C-409.3,762.5-409.3,762.5-409.3,762.5"/>
						<path class="st5" d="M-414.5,782.5c0,0.8-0.7,1.5-1.5,1.5s-1.5-0.7-1.5-1.5s0.7-1.5,1.5-1.5S-414.5,781.7-414.5,782.5"/>
						<path class="st5" d="M-413.6,802.5c0,1.3-1.1,2.4-2.4,2.4s-2.4-1.1-2.4-2.4s1.1-2.4,2.4-2.4S-413.6,801.2-413.6,802.5"/>
						<path class="st5" d="M-411.7,822.5c0,2.4-1.9,4.3-4.3,4.3s-4.3-1.9-4.3-4.3s1.9-4.3,4.3-4.3S-411.7,820.1-411.7,822.5"/>
						<path class="st5" d="M-394.2,662.5c0,1-0.8,1.9-1.8,1.9c-1,0-1.9-0.8-1.9-1.8c0,0,0,0,0,0c0-1,0.8-1.9,1.8-1.9
							C-395,660.6-394.2,661.5-394.2,662.5C-394.2,662.5-394.2,662.5-394.2,662.5"/>
						<path class="st5" d="M-392.8,682.5c0,1.8-1.4,3.2-3.2,3.2s-3.2-1.4-3.2-3.2s1.4-3.2,3.2-3.2S-392.8,680.7-392.8,682.5"/>
						<path class="st5" d="M-390.2,702.5c0,3.2-2.6,5.8-5.8,5.8s-5.8-2.6-5.8-5.8s2.6-5.8,5.8-5.8S-390.2,699.3-390.2,702.5"/>
						<path class="st5" d="M-388.5,722.5c0,4.1-3.4,7.5-7.5,7.5s-7.5-3.4-7.5-7.5s3.4-7.5,7.5-7.5S-388.5,718.4-388.5,722.5"/>
						<path class="st5" d="M-394.9,742.5c0,0.6-0.5,1.1-1.1,1.1c-0.6,0-1.1-0.5-1.1-1.1c0,0,0,0,0,0c0-0.6,0.5-1.1,1.1-1.1
							C-395.4,741.4-394.9,741.9-394.9,742.5C-394.9,742.5-394.9,742.5-394.9,742.5"/>
						<path class="st5" d="M-389.4,762.5c0,3.7-3,6.6-6.6,6.6c-3.7,0-6.6-3-6.6-6.6c0,0,0,0,0,0c0-3.7,3-6.6,6.6-6.6
							C-392.3,755.9-389.4,758.8-389.4,762.5C-389.4,762.5-389.4,762.5-389.4,762.5"/>
						<path class="st5" d="M-394.9,782.5c0,0.6-0.5,1.1-1.1,1.1s-1.1-0.5-1.1-1.1s0.5-1.1,1.1-1.1S-394.9,781.9-394.9,782.5"/>
						<path class="st5" d="M-393.8,802.5c0,1.2-1,2.2-2.2,2.2c-1.2,0-2.2-1-2.2-2.2c0,0,0,0,0,0c0-1.2,1-2.2,2.2-2.2
							C-394.8,800.3-393.8,801.3-393.8,802.5C-393.8,802.5-393.8,802.5-393.8,802.5"/>
						<path class="st5" d="M-392.7,822.5c0,1.8-1.5,3.3-3.3,3.3s-3.3-1.5-3.3-3.3s1.5-3.3,3.3-3.3S-392.7,820.7-392.7,822.5"/>
						<path class="st5" d="M-374.1,662.5c0,1-0.8,1.9-1.9,1.9c-1,0-1.9-0.8-1.9-1.9c0,0,0,0,0,0c0-1,0.8-1.9,1.9-1.9
							C-375,660.6-374.1,661.5-374.1,662.5C-374.1,662.5-374.1,662.5-374.1,662.5"/>
						<path class="st5" d="M-372.7,682.5c0,1.8-1.5,3.3-3.3,3.3s-3.3-1.5-3.3-3.3s1.5-3.3,3.3-3.3S-372.7,680.7-372.7,682.5"/>
						<path class="st5" d="M-369.8,702.5c0,3.4-2.8,6.2-6.2,6.2s-6.2-2.8-6.2-6.2s2.8-6.2,6.2-6.2S-369.8,699.1-369.8,702.5"/>
						<path class="st5" d="M-368.4,722.5c0,4.2-3.4,7.6-7.6,7.6s-7.6-3.4-7.6-7.6s3.4-7.6,7.6-7.6S-368.4,718.3-368.4,722.5"/>
						<path class="st5" d="M-374.9,742.5c0,0.6-0.5,1.1-1.1,1.1c-0.6,0-1.1-0.5-1.1-1.1c0,0,0,0,0,0c0-0.6,0.5-1.1,1.1-1.1
							C-375.4,741.4-374.9,741.9-374.9,742.5C-374.9,742.5-374.9,742.5-374.9,742.5"/>
						<path class="st5" d="M-368.9,762.5c0,3.9-3.2,7.1-7.1,7.1s-7.1-3.2-7.1-7.1s3.2-7.1,7.1-7.1S-368.9,758.6-368.9,762.5"/>
						<path class="st5" d="M-375,782.5c0,0.6-0.5,1-1,1s-1-0.5-1-1s0.5-1,1-1S-375,781.9-375,782.5"/>
						<path class="st5" d="M-373.7,802.5c0,1.3-1,2.3-2.3,2.3s-2.3-1-2.3-2.3s1-2.3,2.3-2.3S-373.7,801.2-373.7,802.5"/>
						<path class="st5" d="M-372.8,822.5c0,1.8-1.4,3.2-3.2,3.2c-1.8,0-3.2-1.4-3.2-3.2c0,0,0,0,0,0c0-1.8,1.4-3.2,3.2-3.2
							C-374.2,819.3-372.8,820.7-372.8,822.5C-372.8,822.5-372.8,822.5-372.8,822.5"/>
					</g>
					<g>
						<g transform="translate(518,0)">
							<path pointer-events="none" class="st3" d="M-866,652.5h61v110h-61V652.5z"/>
							<g>
								<g>
									<g transform="translate(0,16)">
										<path pointer-events="none" class="st3" d="M-866,652.5L-866,652.5L-866,652.5L-866,652.5z"/>
										<g>
											<g>
												<g transform="translate(0,0)">
													<path pointer-events="none" class="st3" d="M-866,652.5h60.1V663H-866V652.5z"/>
													<g>
														<g pointer-events="none">
															<path class="st5" d="M-852,657.5c0,2.2-1.8,4-4,4c-2.2,0-4-1.8-4-4c0,0,0,0,0,0c0-2.2,1.8-4,4-4
																C-853.8,653.5-852,655.3-852,657.5C-852,657.5-852,657.5-852,657.5"/>
														</g>
														<g pointer-events="none">
															<text transform="matrix(1 0 0 1 -842 660.5)" style="font-family:'Helvetica'; font-size:10px;">20,000</text>
														</g>
													</g>
													<path pointer-events="none" class="st0" d="M-866,652.5"/>
												</g>
												<g transform="translate(0,14)">
													<path pointer-events="none" class="st3" d="M-866,652.5h60.1v13.6H-866V652.5z"/>
													<g>
														<g pointer-events="none">
															<path class="st5" d="M-850.4,659c0,3.1-2.5,5.6-5.6,5.6s-5.6-2.5-5.6-5.6s2.5-5.6,5.6-5.6S-850.4,655.9-850.4,659"/>
														</g>
														<g pointer-events="none">
															<text transform="matrix(1 0 0 1 -842 662)" style="font-family:'Helvetica'; font-size:10px;">40,000</text>
														</g>
													</g>
													<path pointer-events="none" class="st0" d="M-866,652.5"/>
												</g>
												<g transform="translate(0,31)">
													<path pointer-events="none" class="st3" d="M-866,652.5h60.1v16.4H-866V652.5z"/>
													<g>
														<g pointer-events="none">
															<path class="st5" d="M-849.1,660.5c0,3.8-3.1,6.9-6.9,6.9c-3.8,0-6.9-3.1-6.9-6.9c0,0,0,0,0,0c0-3.8,3.1-6.9,6.9-6.9
																C-852.2,653.6-849.1,656.7-849.1,660.5C-849.1,660.5-849.1,660.5-849.1,660.5"/>
														</g>
														<g pointer-events="none">
															<text transform="matrix(1 0 0 1 -842 663.5)" style="font-family:'Helvetica'; font-size:10px;">60,000</text>
														</g>
													</g>
													<path pointer-events="none" class="st0" d="M-866,652.5"/>
												</g>
												<g transform="translate(0,51)">
													<path pointer-events="none" class="st3" d="M-866,652.5h60.1v18.4H-866V652.5z"/>
													<g>
														<g pointer-events="none">
															<path class="st5" d="M-848.1,661.5c0,4.4-3.6,7.9-7.9,7.9c-4.4,0-7.9-3.6-7.9-7.9c0,0,0,0,0,0c0-4.4,3.6-7.9,7.9-7.9
																C-851.6,653.6-848.1,657.1-848.1,661.5C-848.1,661.5-848.1,661.5-848.1,661.5"/>
														</g>
														<g pointer-events="none">
															<text transform="matrix(1 0 0 1 -842 664.5)" style="font-family:'Helvetica'; font-size:10px;">80,000</text>
														</g>
													</g>
													<path pointer-events="none" class="st0" d="M-866,652.5"/>
												</g>
												<g transform="translate(0,73)">
													<path pointer-events="none" class="st3" d="M-866,652.5h60.1v20.4H-866V652.5z"/>
													<g>
														<g pointer-events="none">
															<path class="st5" d="M-847.1,662.5c0,4.9-4,8.9-8.9,8.9c-4.9,0-8.9-4-8.9-8.9c0,0,0,0,0,0c0-4.9,4-8.9,8.9-8.9
																C-851.1,653.6-847.1,657.6-847.1,662.5C-847.1,662.5-847.1,662.5-847.1,662.5"/>
														</g>
														<g pointer-events="none">
															<text transform="matrix(1 0 0 1 -842 665.5)" style="font-family:'Helvetica'; font-size:10px;">100,000</text>
														</g>
													</g>
													<path pointer-events="none" class="st0" d="M-866,652.5"/>
												</g>
											</g>
										</g>
										<path pointer-events="none" class="st0" d="M-866,652.5"/>
									</g>
								</g>
								<g pointer-events="none">
									<text transform="matrix(1 0 0 1 -866 661.5)" style="font-family:'Helvetica-Bold'; font-size:11px;">value</text>
								</g>
							</g>
							<path pointer-events="none" class="st0" d="M-866,652.5"/>
						</g>
					</g>
				</g>
				<path class="st0" d="M-866,652.5"/>
			</g>
		</g>
	</g>
	<path pointer-events="none" class="st6" d="M1139.4-399.2h115.2v207.7h-115.2V-399.2z"/>
	<path pointer-events="none" class="st6" d="M1139.4-368.9L1139.4-368.9L1139.4-368.9L1139.4-368.9z"/>
	<path pointer-events="none" class="st6" d="M1139.4-368.9H1253v19.8h-113.6V-368.9z"/>
	<path class="st7" d="M1165.7-359.5c0,4.1-3.4,7.5-7.5,7.5c-4.1,0-7.5-3.4-7.5-7.5c0,0,0,0,0,0c0-4.1,3.4-7.5,7.5-7.5
		C1162.4-367,1165.7-363.6,1165.7-359.5C1165.7-359.5,1165.7-359.5,1165.7-359.5"/>
	<text transform="matrix(1 0 0 1 1184.6943 -353.833)" class="st1 st23" style="font-family:'Helvetica';">20,000</text>
	<path pointer-events="none" class="st6" d="M1139.4-342.5H1253v25.7h-113.6V-342.5z"/>
	<path class="st7" d="M1168.8-330.2c0,5.8-4.7,10.6-10.6,10.6c-5.8,0-10.6-4.7-10.6-10.6s4.7-10.6,10.6-10.6
		C1164.1-340.8,1168.8-336.1,1168.8-330.2"/>
	<text transform="matrix(1 0 0 1 1184.6943 -324.5605)" class="st1 st23" style="font-family:'Helvetica';">40,000</text>
	<path pointer-events="none" class="st6" d="M1139.4-310.4H1253v30.9h-113.6V-310.4z"/>
	<path class="st7" d="M1171.2-295.3c0,7.2-5.8,13-13,13c-7.2,0-13-5.8-13-13c0,0,0,0,0,0c0-7.2,5.8-13,13-13
		C1165.4-308.3,1171.2-302.5,1171.2-295.3C1171.2-295.3,1171.2-295.3,1171.2-295.3"/>
	<text transform="matrix(1 0 0 1 1184.6943 -289.623)" class="st1 st23" style="font-family:'Helvetica';">60,000</text>
	<path pointer-events="none" class="st6" d="M1139.4-272.6H1253v34.8h-113.6V-272.6z"/>
	<path class="st7" d="M1173.2-255.6c0,8.3-6.7,15-15,15c-8.3,0-15-6.7-15-15c0,0,0,0,0,0c0-8.3,6.7-15,15-15
		C1166.5-270.6,1173.2-263.9,1173.2-255.6C1173.2-255.6,1173.2-255.6,1173.2-255.6"/>
	<text transform="matrix(1 0 0 1 1184.6943 -249.9639)" class="st1 st23" style="font-family:'Helvetica';">80,000</text>
	<path pointer-events="none" class="st6" d="M1139.4-231.1H1253v38.5h-113.6V-231.1z"/>
	<path class="st7" d="M1175-212.2c0,9.2-7.5,16.7-16.7,16.8c-9.2,0-16.7-7.5-16.8-16.7c0,0,0,0,0,0c0-9.2,7.5-16.7,16.7-16.8
		C1167.5-228.9,1175-221.4,1175-212.2C1175-212.2,1175-212.2,1175-212.2"/>
	<text transform="matrix(1 0 0 1 1184.6943 -206.5273)" class="st1 st23" style="font-family:'Helvetica';">100,000</text>
	<text transform="matrix(1 0 0 1 1139.3701 -382.1611)" class="st1" style="font-family:'Helvetica-Bold'; font-size:20.7739px;">value</text>
</g>
<g id="bg">
	<rect x="-1.8" y="-1" class="st8" width="1443.5" height="812"/>
</g>
<g id="text" class="st0">
	<text transform="matrix(0 -1 1 0 31.9618 458.4984)" class="st9 st10 st11">VEHCULO</text>
	<text transform="matrix(1 0 0 1 1287.0861 303.6746)"><tspan x="0" y="0" class="st12 st10 st11">Nmero de </tspan><tspan x="0" y="24" class="st12 st10 st11">accidentes</tspan></text>
</g>
<g id="title" class="st0">
	<text transform="matrix(1 0 0 1 410.2227 39.5184)" class="st12 st10 st13">Aumento en el nmero de accidentes en motocicleta en Mxico de 1997 a 2021</text>
</g>
<g id="axis">
	<g id="y-axis_00000052068349947228230530000011107002840353893795_">
		<line class="st14" x1="124.3" y1="81.7" x2="106.3" y2="81.7"/>
		<line class="st14" x1="124.3" y1="153.8" x2="106.3" y2="153.8"/>
		<line class="st14" x1="124.3" y1="225.8" x2="106.3" y2="225.8"/>
		<line class="st14" x1="124.3" y1="297.9" x2="106.3" y2="297.9"/>
		<line class="st14" x1="124.3" y1="370" x2="106.3" y2="370"/>
		<line class="st14" x1="124.3" y1="442.1" x2="106.3" y2="442.1"/>
		<line class="st14" x1="124.3" y1="514.2" x2="106.3" y2="514.2"/>
		<line class="st14" x1="124.3" y1="586.2" x2="106.3" y2="586.2"/>
		<line class="st14" x1="124.3" y1="658.3" x2="106.3" y2="658.3"/>
		<line id="scale_00000163061631663940375460000014140005444835199410_" class="st14" x1="124.3" y1="45.6" x2="124.3" y2="694.4"/>
	</g>
	<g id="x-axis_00000176747653896848709470000014484542764822949767_">
		<path pointer-events="none" class="st14" d="M124,694.9L124,694.9L124,694.9L124,694.9z"/>
		<line class="st14" x1="145.4" y1="694.9" x2="145.4" y2="704.4"/>
		<line class="st14" x1="188.2" y1="694.9" x2="188.2" y2="704.4"/>
		<line class="st14" x1="231.1" y1="694.9" x2="231.1" y2="704.4"/>
		<line class="st14" x1="273.9" y1="694.9" x2="273.9" y2="704.4"/>
		<line class="st14" x1="316.7" y1="694.9" x2="316.7" y2="704.4"/>
		<line class="st14" x1="359.6" y1="694.9" x2="359.6" y2="704.4"/>
		<line class="st14" x1="402.4" y1="694.9" x2="402.4" y2="704.4"/>
		<line class="st14" x1="445.2" y1="694.9" x2="445.2" y2="704.4"/>
		<line class="st14" x1="488" y1="694.9" x2="488" y2="704.4"/>
		<line class="st14" x1="530.9" y1="694.9" x2="530.9" y2="704.4"/>
		<line class="st14" x1="573.7" y1="694.9" x2="573.7" y2="704.4"/>
		<line class="st14" x1="616.5" y1="694.9" x2="616.5" y2="704.4"/>
		<line class="st14" x1="659.4" y1="694.9" x2="659.4" y2="704.4"/>
		<line class="st14" x1="702.2" y1="694.9" x2="702.2" y2="704.4"/>
		<line class="st14" x1="745" y1="694.9" x2="745" y2="704.4"/>
		<line class="st14" x1="787.9" y1="694.9" x2="787.9" y2="704.4"/>
		<line class="st14" x1="830.7" y1="694.9" x2="830.7" y2="704.4"/>
		<line class="st14" x1="873.5" y1="694.9" x2="873.5" y2="704.4"/>
		<line class="st14" x1="916.4" y1="694.9" x2="916.4" y2="704.4"/>
		<line class="st14" x1="959.2" y1="694.9" x2="959.2" y2="704.4"/>
		<line class="st14" x1="1002" y1="694.9" x2="1002" y2="704.4"/>
		<line class="st14" x1="1044.9" y1="694.9" x2="1044.9" y2="704.4"/>
		<line class="st14" x1="1087.7" y1="694.9" x2="1087.7" y2="704.4"/>
		<line class="st14" x1="1130.5" y1="694.9" x2="1130.5" y2="704.4"/>
		<line class="st14" x1="1173.4" y1="694.9" x2="1173.4" y2="704.4"/>
		<line class="st14" x1="124" y1="694.9" x2="1194.8" y2="694.9"/>
	</g>
	<g>
		<text transform="matrix(1 0 0 1 36.8339 85.9488)" class="st9 st15 st16">BICICLETA</text>
		<text transform="matrix(1 0 0 1 52.2782 157.9695)" class="st9 st15 st16">CAMION</text>
		<text transform="matrix(1 0 0 1 30.1747 229.9903)" class="st9 st15 st16">CAMIONETA</text>
		<text transform="matrix(1 0 0 1 36.078 302.0111)" class="st9 st15 st16">CAMPASAJ</text>
		<text transform="matrix(1 0 0 1 36.3485 374.0318)" class="st9 st15 st16">MICROBUS</text>
		<text transform="matrix(1 0 0 1 15.9364 446.0526)" class="st9 st15 st16">MOTOCICLETA</text>
		<text transform="matrix(1 0 0 1 43.4764 518.0733)" class="st9 st15 st16">OMNIBUS</text>
		<text transform="matrix(1 0 0 1 29.9765 590.0941)" class="st9 st15 st16">OTROVEHIC</text>
		<text transform="matrix(1 0 0 1 30.2821 662.1148)" class="st9 st15 st16">PASCAMION</text>
	</g>
	<g>
		<text transform="matrix(0 -1 1 0 148.5285 766.1481)" class="st9 st17 st16">1997</text>
		<text transform="matrix(0 -1 1 0 191.3825 766.1481)" class="st9 st17 st16">1998</text>
		<text transform="matrix(0 -1 1 0 234.2365 766.1481)" class="st9 st17 st16">1999</text>
		<text transform="matrix(0 -1 1 0 277.0905 766.1481)" class="st9 st17 st16">2000</text>
		<text transform="matrix(0 -1 1 0 319.9445 766.1481)" class="st9 st17 st16">2001</text>
		<text transform="matrix(0 -1 1 0 362.7985 766.1481)" class="st9 st17 st16">2002</text>
		<text transform="matrix(0 -1 1 0 405.6525 766.1481)" class="st9 st17 st16">2003</text>
		<text transform="matrix(0 -1 1 0 448.5065 766.1481)" class="st9 st17 st16">2004</text>
		<text transform="matrix(0 -1 1 0 491.3605 766.1481)" class="st9 st17 st16">2005</text>
		<text transform="matrix(0 -1 1 0 534.2145 766.1481)" class="st9 st17 st16">2006</text>
		<text transform="matrix(0 -1 1 0 577.0685 766.1481)" class="st9 st17 st16">2007</text>
		<text transform="matrix(0 -1 1 0 619.9225 766.1481)" class="st9 st17 st16">2008</text>
		<text transform="matrix(0 -1 1 0 662.7765 766.1481)" class="st9 st17 st16">2009</text>
		<text transform="matrix(0 -1 1 0 705.6305 766.1481)" class="st9 st17 st16">2010</text>
		<text transform="matrix(0 -1 1 0 748.4845 766.1481)" class="st9 st17 st16">2011</text>
		<text transform="matrix(0 -1 1 0 791.3385 766.1481)" class="st9 st17 st16">2012</text>
		<text transform="matrix(0 -1 1 0 834.1925 766.1481)" class="st9 st17 st16">2013</text>
		<text transform="matrix(0 -1 1 0 877.0465 766.1481)" class="st9 st17 st16">2014</text>
		<text transform="matrix(0 -1 1 0 919.9005 766.1481)" class="st9 st17 st16">2015</text>
		<text transform="matrix(0 -1 1 0 962.7545 766.1481)" class="st9 st17 st16">2016</text>
		<text transform="matrix(0 -1 1 0 1005.6085 766.1481)" class="st9 st17 st16">2017</text>
		<text transform="matrix(0 -1 1 0 1048.4625 766.1481)" class="st9 st17 st16">2018</text>
		<text transform="matrix(0 -1 1 0 1091.3165 766.1481)" class="st9 st17 st16">2019</text>
		<text transform="matrix(0 -1 1 0 1134.1705 766.1481)" class="st9 st17 st16">2020</text>
		<text transform="matrix(0 -1 1 0 1177.0245 766.1481)" class="st9 st17 st16">2021</text>
	</g>
</g>
<g id="dots_x5F_v2">
	<line class="st18" x1="1130.6" y1="44.6" x2="1130.6" y2="694.9"/>
	<g>
		<path class="st19" d="M149.6,82.2c0,2.5-2,4.5-4.5,4.5s-4.5-2-4.5-4.5s2-4.5,4.5-4.5S149.6,79.7,149.6,82.2"/>
		<path class="st19" d="M192.4,82.2c0,2.5-2,4.5-4.5,4.5c-2.5,0-4.5-2-4.5-4.5s2-4.5,4.5-4.5C190.4,77.7,192.4,79.7,192.4,82.2"/>
		<path class="st19" d="M235.8,82.2c0,2.8-2.3,5.1-5.1,5.1s-5.1-2.3-5.1-5.1s2.3-5.1,5.1-5.1S235.8,79.4,235.8,82.2"/>
		<path class="st19" d="M278.3,82.2c0,2.6-2.1,4.8-4.8,4.8c-2.6,0-4.8-2.1-4.8-4.8c0,0,0,0,0,0c0-2.6,2.1-4.8,4.8-4.8
			C276.2,77.4,278.3,79.6,278.3,82.2C278.3,82.2,278.3,82.2,278.3,82.2"/>
		<path class="st19" d="M321.3,82.2c0,2.7-2.2,5-5,5s-5-2.2-5-5c0-2.7,2.2-5,5-5S321.3,79.5,321.3,82.2"/>
		<path class="st19" d="M364.5,82.2c0,2.9-2.4,5.3-5.3,5.3s-5.3-2.4-5.3-5.3c0-2.9,2.4-5.3,5.3-5.3S364.5,79.3,364.5,82.2"/>
		<path class="st19" d="M407.4,82.2c0,3-2.4,5.4-5.4,5.4c-3,0-5.4-2.4-5.4-5.4c0,0,0,0,0,0c0-3,2.4-5.4,5.4-5.4
			S407.4,79.2,407.4,82.2C407.4,82.2,407.4,82.2,407.4,82.2"/>
		<path class="st19" d="M449.6,82.2c0,2.6-2.1,4.8-4.8,4.8c-2.6,0-4.8-2.1-4.8-4.8c0-2.6,2.1-4.8,4.8-4.8
			C447.4,77.4,449.6,79.6,449.6,82.2"/>
		<path class="st19" d="M492.4,82.2c0,2.7-2.2,4.8-4.8,4.8s-4.8-2.2-4.8-4.8c0,0,0,0,0,0c0-2.7,2.2-4.8,4.8-4.8
			C490.2,77.4,492.4,79.5,492.4,82.2C492.4,82.2,492.4,82.2,492.4,82.2"/>
		<path class="st19" d="M535.1,82.2c0,2.6-2.1,4.7-4.7,4.7c-2.6,0-4.7-2.1-4.7-4.7c0,0,0,0,0,0c0-2.6,2.1-4.7,4.7-4.7
			S535.1,79.6,535.1,82.2C535.1,82.2,535.1,82.2,535.1,82.2"/>
		<path class="st19" d="M577.7,82.2c0,2.5-2,4.5-4.5,4.5s-4.5-2-4.5-4.5c0-2.5,2-4.5,4.5-4.5S577.7,79.7,577.7,82.2"/>
		<path class="st19" d="M620.4,82.2c0,2.4-2,4.4-4.4,4.4c-2.4,0-4.4-2-4.4-4.4c0,0,0,0,0,0c0-2.4,2-4.4,4.4-4.4
			C618.5,77.8,620.4,79.8,620.4,82.2C620.4,82.2,620.4,82.2,620.4,82.2"/>
		<path class="st19" d="M663.7,82.2c0,2.7-2.2,4.8-4.8,4.8s-4.8-2.2-4.8-4.8c0,0,0,0,0,0c0-2.7,2.2-4.8,4.8-4.8
			S663.7,79.5,663.7,82.2C663.7,82.2,663.7,82.2,663.7,82.2"/>
		<path class="st19" d="M706.3,82.2c0,2.5-2.1,4.6-4.6,4.6c-2.5,0-4.6-2.1-4.6-4.6c0-2.5,2.1-4.6,4.6-4.6
			C704.2,77.6,706.3,79.7,706.3,82.2"/>
		<path class="st19" d="M749,82.2c0,2.5-2,4.6-4.6,4.6s-4.6-2-4.6-4.6c0-2.5,2-4.6,4.6-4.6S749,79.7,749,82.2"/>
		<path class="st19" d="M791.9,82.2c0,2.5-2.1,4.6-4.6,4.6s-4.6-2.1-4.6-4.6c0,0,0,0,0,0c0-2.5,2.1-4.6,4.6-4.6
			C789.8,77.6,791.9,79.7,791.9,82.2C791.9,82.2,791.9,82.2,791.9,82.2"/>
		<path class="st19" d="M834.7,82.2c0,2.5-2,4.6-4.6,4.6c-2.5,0-4.6-2-4.6-4.6c0-2.5,2-4.6,4.6-4.6
			C832.6,77.6,834.7,79.7,834.7,82.2"/>
		<path class="st19" d="M877.4,82.2c0,2.5-2,4.5-4.5,4.5c-2.5,0-4.5-2-4.5-4.5c0,0,0,0,0,0c0-2.5,2-4.5,4.5-4.5
			C875.4,77.7,877.4,79.7,877.4,82.2C877.4,82.2,877.4,82.2,877.4,82.2"/>
		<path class="st19" d="M920.1,82.2c0,2.4-1.9,4.3-4.3,4.3c-2.4,0-4.3-1.9-4.3-4.3c0,0,0,0,0,0c0-2.4,1.9-4.3,4.3-4.3
			C918.1,77.9,920.1,79.8,920.1,82.2C920.1,82.2,920.1,82.2,920.1,82.2"/>
		<path class="st19" d="M962.6,82.2c0,2.2-1.8,4.1-4.1,4.1c-2.2,0-4.1-1.8-4.1-4.1c0,0,0,0,0,0c0-2.2,1.8-4.1,4.1-4.1
			C960.8,78.1,962.6,80,962.6,82.2C962.6,82.2,962.6,82.2,962.6,82.2"/>
		<path class="st19" d="M1005.3,82.2c0,2.2-1.8,4-4,4c-2.2,0-4-1.8-4-4c0-2.2,1.8-4,4-4C1003.5,78.2,1005.3,80,1005.3,82.2"/>
		<path class="st19" d="M1048,82.2c0,2.1-1.7,3.8-3.8,3.8s-3.8-1.7-3.8-3.8c0-2.1,1.7-3.8,3.8-3.8S1048,80.1,1048,82.2"/>
		<path class="st19" d="M1090.8,82.2c0,2.1-1.7,3.8-3.8,3.8c-2.1,0-3.8-1.7-3.8-3.8c0-2.1,1.7-3.8,3.8-3.8
			C1089.1,78.4,1090.8,80.1,1090.8,82.2"/>
		<path class="st19" d="M1133.3,82.2c0,1.9-1.6,3.5-3.5,3.5c-1.9,0-3.5-1.6-3.5-3.5c0,0,0,0,0,0c0-1.9,1.6-3.5,3.5-3.5
			C1131.7,78.7,1133.3,80.3,1133.3,82.2C1133.3,82.2,1133.3,82.2,1133.3,82.2"/>
		<path class="st19" d="M1176.2,82.2c0,2-1.6,3.6-3.6,3.6s-3.6-1.6-3.6-3.6c0,0,0,0,0,0c0-2,1.6-3.6,3.6-3.6
			S1176.2,80.2,1176.2,82.2C1176.2,82.2,1176.2,82.2,1176.2,82.2"/>
	</g>
	<g>
		<path class="st20" d="M151.3,154c0,3.4-2.7,6.1-6.1,6.1c-3.4,0-6.1-2.7-6.1-6.1c0,0,0,0,0,0c0-3.4,2.7-6.1,6.1-6.1
			C148.6,147.9,151.3,150.6,151.3,154C151.3,154,151.3,154,151.3,154"/>
		<path class="st20" d="M194.3,154c0,3.4-2.8,6.2-6.2,6.2c-3.4,0-6.2-2.8-6.2-6.2c0-3.4,2.8-6.2,6.2-6.2
			C191.5,147.7,194.3,150.5,194.3,154"/>
		<path class="st20" d="M238.4,154c0,4.2-3.4,7.6-7.6,7.6s-7.6-3.4-7.6-7.6c0,0,0,0,0,0c0-4.2,3.4-7.6,7.6-7.6
			C235.1,146.4,238.4,149.8,238.4,154C238.4,154,238.4,154,238.4,154"/>
		<path class="st20" d="M281.6,154c0,4.4-3.5,7.9-7.9,7.9s-7.9-3.5-7.9-7.9s3.5-7.9,7.9-7.9S281.6,149.6,281.6,154"/>
		<path class="st20" d="M324.1,154c0,4.2-3.4,7.6-7.6,7.6c-4.2,0-7.6-3.4-7.6-7.6c0,0,0,0,0,0c0-4.2,3.4-7.6,7.6-7.6
			S324.1,149.8,324.1,154C324.1,154,324.1,154,324.1,154"/>
		<path class="st20" d="M367.1,154c0,4.3-3.5,7.8-7.8,7.8c-4.3,0-7.8-3.5-7.8-7.8c0,0,0,0,0,0c0-4.3,3.5-7.8,7.8-7.8
			C363.6,146.2,367.1,149.7,367.1,154C367.1,154,367.1,154,367.1,154"/>
		<path class="st20" d="M409.5,154c0,4.1-3.3,7.4-7.4,7.4c-4.1,0-7.4-3.3-7.4-7.4s3.3-7.4,7.4-7.4
			C406.2,146.6,409.5,149.9,409.5,154"/>
		<path class="st20" d="M452.4,154c0,4.1-3.3,7.5-7.5,7.5c-4.1,0-7.5-3.3-7.5-7.5c0,0,0,0,0,0c0-4.1,3.3-7.5,7.5-7.5
			C449,146.5,452.4,149.9,452.4,154C452.4,154,452.4,154,452.4,154"/>
		<path class="st20" d="M495.6,154c0,4.3-3.5,7.8-7.8,7.8c-4.3,0-7.8-3.5-7.8-7.8c0,0,0,0,0,0c0-4.3,3.5-7.8,7.8-7.8
			C492.1,146.2,495.6,149.7,495.6,154C495.6,154,495.6,154,495.6,154"/>
		<path class="st20" d="M538.5,154c0,4.4-3.6,7.9-7.9,7.9c-4.4,0-7.9-3.6-7.9-7.9s3.6-7.9,7.9-7.9C534.9,146,538.5,149.6,538.5,154"
			/>
		<path class="st20" d="M581.1,154c0,4.3-3.5,7.8-7.8,7.8s-7.8-3.5-7.8-7.8s3.5-7.8,7.8-7.8S581.1,149.7,581.1,154"/>
		<path class="st20" d="M623.8,154c0,4.2-3.4,7.7-7.7,7.7s-7.7-3.4-7.7-7.7c0,0,0,0,0,0c0-4.2,3.4-7.7,7.7-7.7
			S623.8,149.7,623.8,154C623.8,154,623.8,154,623.8,154"/>
		<path class="st20" d="M666.3,154c0,4-3.3,7.3-7.3,7.3s-7.3-3.3-7.3-7.3c0,0,0,0,0,0c0-4,3.3-7.3,7.3-7.3S666.3,149.9,666.3,154
			C666.3,154,666.3,154,666.3,154"/>
		<path class="st20" d="M708.7,154c0,3.8-3.1,6.9-6.9,6.9c-3.8,0-6.9-3.1-6.9-6.9c0,0,0,0,0,0c0-3.8,3.1-6.9,6.9-6.9
			C705.6,147,708.7,150.1,708.7,154C708.7,154,708.7,154,708.7,154"/>
		<path class="st20" d="M751.4,154c0,3.8-3.1,6.8-6.8,6.8s-6.8-3.1-6.8-6.8s3.1-6.8,6.8-6.8S751.4,150.2,751.4,154"/>
		<path class="st20" d="M794.5,154c0,3.9-3.2,7.1-7.1,7.1s-7.1-3.2-7.1-7.1s3.2-7.1,7.1-7.1S794.5,150,794.5,154"/>
		<path class="st20" d="M837.1,154c0,3.8-3.1,6.9-6.9,6.9c-3.8,0-6.9-3.1-6.9-6.9s3.1-6.9,6.9-6.9C834,147.1,837.1,150.2,837.1,154"
			/>
		<path class="st20" d="M880.1,154c0,3.9-3.2,7.1-7.1,7.1c-3.9,0-7.1-3.2-7.1-7.1c0,0,0,0,0,0c0-3.9,3.2-7.1,7.1-7.1
			C877,146.9,880.1,150.1,880.1,154C880.1,154,880.1,154,880.1,154"/>
		<path class="st20" d="M922.7,154c0,3.8-3,6.8-6.8,6.8s-6.8-3-6.8-6.8s3-6.8,6.8-6.8S922.7,150.2,922.7,154"/>
		<path class="st20" d="M965.3,154c0,3.6-2.9,6.6-6.6,6.6c-3.6,0-6.6-2.9-6.6-6.6s2.9-6.6,6.6-6.6
			C962.3,147.4,965.3,150.3,965.3,154"/>
		<path class="st20" d="M1008.4,154c0,3.8-3.1,6.9-6.9,6.9s-6.9-3.1-6.9-6.9s3.1-6.9,6.9-6.9S1008.4,150.2,1008.4,154"/>
		<path class="st20" d="M1051.2,154c0,3.8-3.1,6.9-6.9,6.9c-3.8,0-6.9-3.1-6.9-6.9c0,0,0,0,0,0c0-3.8,3.1-6.9,6.9-6.9
			S1051.2,150.2,1051.2,154C1051.2,154,1051.2,154,1051.2,154"/>
		<path class="st20" d="M1093.6,154c0,3.6-2.9,6.5-6.5,6.5c-3.6,0-6.5-2.9-6.5-6.5c0,0,0,0,0,0c0-3.6,2.9-6.5,6.5-6.5
			C1090.7,147.5,1093.6,150.4,1093.6,154C1093.6,154,1093.6,154,1093.6,154"/>
		<path class="st20" d="M1135.9,154c0,3.3-2.7,6-6,6c-3.3,0-6-2.7-6-6c0-3.3,2.7-6,6-6C1133.2,148,1135.9,150.7,1135.9,154"/>
		<path class="st20" d="M1179,154c0,3.4-2.8,6.2-6.2,6.2s-6.2-2.8-6.2-6.2s2.8-6.2,6.2-6.2S1179,150.5,1179,154"/>
	</g>
	<g>
		<path class="st20" d="M159.5,226.7c0,7.4-6,13.4-13.4,13.4c-7.4,0-13.4-6-13.4-13.4s6-13.4,13.4-13.4
			C153.5,213.3,159.5,219.3,159.5,226.7"/>
		<path class="st20" d="M201.5,226.7c0,7-5.7,12.6-12.6,12.6c-7,0-12.6-5.7-12.6-12.6c0,0,0,0,0,0c0-7,5.7-12.6,12.6-12.6
			C195.8,214.1,201.5,219.8,201.5,226.7C201.5,226.7,201.5,226.7,201.5,226.7"/>
		<path class="st20" d="M244.4,226.7c0,7.1-5.7,12.8-12.8,12.8s-12.8-5.7-12.8-12.8s5.7-12.8,12.8-12.8S244.4,219.7,244.4,226.7"/>
		<path class="st20" d="M288.8,226.7c0,8-6.5,14.4-14.4,14.4c-8,0-14.4-6.5-14.4-14.4c0-8,6.5-14.4,14.4-14.4
			C282.4,212.3,288.8,218.8,288.8,226.7"/>
		<path class="st20" d="M332.3,226.7c0,8.4-6.8,15.2-15.2,15.2c-8.4,0-15.2-6.8-15.2-15.2s6.8-15.2,15.2-15.2
			C325.5,211.6,332.3,218.4,332.3,226.7"/>
		<path class="st20" d="M376.7,226.7c0,9.3-7.5,16.8-16.8,16.8c-9.3,0-16.8-7.5-16.8-16.8c0-9.3,7.5-16.8,16.8-16.8
			C369.2,209.9,376.7,217.5,376.7,226.7"/>
		<path class="st20" d="M420.7,226.7c0,9.9-8,17.9-17.9,17.9s-17.9-8-17.9-17.9c0-9.9,8-17.9,17.9-17.9S420.7,216.8,420.7,226.7"/>
		<path class="st20" d="M463.3,226.7c0,9.8-8,17.8-17.8,17.8s-17.8-8-17.8-17.8c0-9.8,8-17.8,17.8-17.8S463.3,216.9,463.3,226.7"/>
		<path class="st20" d="M505.8,226.7c0,9.7-7.9,17.6-17.6,17.6s-17.6-7.9-17.6-17.6c0-9.7,7.9-17.6,17.6-17.6S505.8,217,505.8,226.7
			"/>
		<path class="st20" d="M548.6,226.7c0,9.7-7.9,17.6-17.6,17.6c-9.7,0-17.6-7.9-17.6-17.6c0,0,0,0,0,0c0-9.7,7.9-17.6,17.6-17.6
			C540.8,209.1,548.6,217,548.6,226.7C548.6,226.7,548.6,226.7,548.6,226.7"/>
		<path class="st20" d="M591.5,226.7c0,9.8-7.9,17.7-17.7,17.7c-9.8,0-17.7-7.9-17.7-17.7c0-9.8,7.9-17.7,17.7-17.7
			C583.6,209,591.5,217,591.5,226.7"/>
		<path class="st20" d="M633.2,226.7c0,9.2-7.4,16.6-16.6,16.6c-9.2,0-16.6-7.4-16.6-16.6c0,0,0,0,0,0c0-9.2,7.4-16.6,16.6-16.6
			C625.7,210.2,633.2,217.6,633.2,226.7C633.2,226.7,633.2,226.7,633.2,226.7"/>
		<path class="st20" d="M675.9,226.7c0,9.2-7.4,16.6-16.6,16.6c-9.2,0-16.6-7.4-16.6-16.6c0,0,0,0,0,0c0-9.2,7.4-16.6,16.6-16.6
			C668.5,210.2,675.9,217.6,675.9,226.7C675.9,226.7,675.9,226.7,675.9,226.7"/>
		<path class="st20" d="M718.6,226.7c0,9.1-7.4,16.5-16.5,16.5s-16.5-7.4-16.5-16.5c0,0,0,0,0,0c0-9.1,7.4-16.5,16.5-16.5
			S718.6,217.6,718.6,226.7C718.6,226.7,718.6,226.7,718.6,226.7"/>
		<path class="st20" d="M760,226.7c0,8.3-6.8,15.1-15.1,15.1c-8.3,0-15.1-6.8-15.1-15.1c0,0,0,0,0,0c0-8.3,6.8-15.1,15.1-15.1
			C753.2,211.6,760,218.4,760,226.7C760,226.7,760,226.7,760,226.7"/>
		<path class="st20" d="M803.4,226.7c0,8.7-7.1,15.8-15.8,15.8c-8.7,0-15.8-7.1-15.8-15.8c0,0,0,0,0,0c0-8.7,7.1-15.8,15.8-15.8
			C796.4,211,803.4,218,803.4,226.7C803.4,226.7,803.4,226.7,803.4,226.7"/>
		<path class="st20" d="M845,226.7c0,8-6.5,14.6-14.6,14.6c-8,0-14.6-6.5-14.6-14.6c0,0,0,0,0,0c0-8,6.5-14.6,14.6-14.6
			S845,218.7,845,226.7C845,226.7,845,226.7,845,226.7"/>
		<path class="st20" d="M887.7,226.7c0,8-6.5,14.6-14.6,14.6c-8,0-14.6-6.5-14.6-14.6c0-8,6.5-14.6,14.6-14.6
			C881.2,212.2,887.7,218.7,887.7,226.7"/>
		<path class="st20" d="M929.7,226.7c0,7.6-6.2,13.8-13.8,13.8c-7.6,0-13.8-6.2-13.8-13.8c0,0,0,0,0,0c0-7.6,6.2-13.8,13.8-13.8
			S929.7,219.1,929.7,226.7C929.7,226.7,929.7,226.7,929.7,226.7"/>
		<path class="st20" d="M970.7,226.7c0,6.6-5.4,12-12,12c-6.6,0-12-5.4-12-12s5.4-12,12-12C965.4,214.7,970.7,220.1,970.7,226.7"/>
		<path class="st20" d="M1013.4,226.7c0,6.6-5.3,11.9-11.9,11.9c-6.6,0-11.9-5.3-11.9-11.9c0,0,0,0,0,0c0-6.6,5.3-11.9,11.9-11.9
			S1013.4,220.2,1013.4,226.7C1013.4,226.7,1013.4,226.7,1013.4,226.7"/>
		<path class="st20" d="M1056,226.7c0,6.5-5.3,11.7-11.7,11.7c-6.5,0-11.7-5.3-11.7-11.7s5.3-11.7,11.7-11.7
			C1050.8,215,1056,220.3,1056,226.7"/>
		<path class="st20" d="M1098.6,226.7c0,6.4-5.2,11.5-11.5,11.5c-6.4,0-11.5-5.2-11.5-11.5s5.2-11.5,11.5-11.5
			C1093.4,215.2,1098.6,220.4,1098.6,226.7"/>
		<path class="st20" d="M1140.8,226.7c0,6.1-4.9,11-11,11s-11-4.9-11-11s4.9-11,11-11S1140.8,220.7,1140.8,226.7"/>
		<path class="st20" d="M1184.3,226.7c0,6.5-5.2,11.7-11.7,11.7s-11.7-5.2-11.7-11.7s5.2-11.7,11.7-11.7S1184.3,220.3,1184.3,226.7"
			/>
	</g>
	<g>
		<path class="st20" d="M153.9,297.5c0,4.8-3.9,8.8-8.8,8.8s-8.8-3.9-8.8-8.8c0-4.8,3.9-8.8,8.8-8.8S153.9,292.7,153.9,297.5"/>
		<path class="st20" d="M197.7,297.5c0,5.4-4.4,9.8-9.8,9.8s-9.8-4.4-9.8-9.8s4.4-9.8,9.8-9.8S197.7,292.1,197.7,297.5"/>
		<path class="st20" d="M242.7,297.5c0,6.6-5.4,12-12,12c-6.6,0-12-5.4-12-12c0-6.6,5.4-12,12-12
			C237.3,285.5,242.7,290.9,242.7,297.5"/>
		<path class="st20" d="M286.4,297.5c0,7.1-5.8,12.9-12.9,12.9s-12.9-5.8-12.9-12.9c0,0,0,0,0,0c0-7.1,5.8-12.9,12.9-12.9
			S286.4,290.4,286.4,297.5C286.4,297.5,286.4,297.5,286.4,297.5"/>
		<path class="st20" d="M329.7,297.5c0,7.4-6,13.4-13.4,13.4c-7.4,0-13.4-6-13.4-13.4c0-7.4,6-13.4,13.4-13.4
			C323.7,284.1,329.7,290.1,329.7,297.5"/>
		<path class="st20" d="M373.3,297.5c0,7.8-6.3,14.2-14.2,14.2c-7.8,0-14.2-6.3-14.2-14.2c0,0,0,0,0,0c0-7.8,6.3-14.2,14.2-14.2
			C367,283.3,373.3,289.7,373.3,297.5C373.3,297.5,373.3,297.5,373.3,297.5"/>
		<path class="st20" d="M416.1,297.5c0,7.8-6.3,14.1-14.1,14.1c-7.8,0-14.1-6.3-14.1-14.1c0,0,0,0,0,0c0-7.8,6.3-14.1,14.1-14.1
			S416.1,289.7,416.1,297.5C416.1,297.5,416.1,297.5,416.1,297.5"/>
		<path class="st20" d="M459.5,297.5c0,8.1-6.6,14.7-14.7,14.7c-8.1,0-14.7-6.6-14.7-14.7c0,0,0,0,0,0c0-8.1,6.6-14.7,14.7-14.7
			C452.9,282.8,459.5,289.4,459.5,297.5C459.5,297.5,459.5,297.5,459.5,297.5"/>
		<path class="st20" d="M502.6,297.5c0,8.3-6.7,15-15,15c-8.3,0-15-6.7-15-15c0,0,0,0,0,0c0-8.3,6.7-15,15-15
			S502.6,289.2,502.6,297.5C502.6,297.5,502.6,297.5,502.6,297.5"/>
		<path class="st20" d="M546.4,297.5c0,8.9-7.2,16-16,16c-8.9,0-16-7.2-16-16c0-8.9,7.2-16,16-16
			C539.3,281.5,546.4,288.7,546.4,297.5"/>
		<path class="st20" d="M589.8,297.5c0,9.2-7.4,16.6-16.6,16.6s-16.6-7.4-16.6-16.6s7.4-16.6,16.6-16.6S589.8,288.4,589.8,297.5"/>
		<path class="st20" d="M631.9,297.5c0,8.8-7.1,15.9-15.9,15.9c-8.8,0-15.9-7.1-15.9-15.9c0-8.8,7.1-15.9,15.9-15.9
			C624.8,281.6,631.9,288.7,631.9,297.5"/>
		<path class="st20" d="M674.4,297.5c0,8.6-7,15.6-15.6,15.6c-8.6,0-15.6-7-15.6-15.6c0,0,0,0,0,0c0-8.6,7-15.6,15.6-15.6
			C667.4,282,674.4,288.9,674.4,297.5C674.4,297.5,674.4,297.5,674.4,297.5"/>
		<path class="st20" d="M716.4,297.5c0,8.1-6.6,14.7-14.7,14.7s-14.7-6.6-14.7-14.7s6.6-14.7,14.7-14.7S716.4,289.4,716.4,297.5"/>
		<path class="st20" d="M758.1,297.5c0,7.5-6.1,13.6-13.6,13.6s-13.6-6.1-13.6-13.6c0-7.5,6.1-13.6,13.6-13.6S758.1,290,758.1,297.5
			"/>
		<path class="st20" d="M801.7,297.5c0,8-6.5,14.5-14.5,14.5s-14.5-6.5-14.5-14.5c0-8,6.5-14.5,14.5-14.5S801.7,289.5,801.7,297.5"
			/>
		<path class="st20" d="M844.1,297.5c0,7.7-6.3,14-14,14c-7.7,0-14-6.3-14-14c0,0,0,0,0,0c0-7.7,6.3-14,14-14
			C837.8,283.5,844.1,289.8,844.1,297.5C844.1,297.5,844.1,297.5,844.1,297.5"/>
		<path class="st20" d="M886.5,297.5c0,7.5-6.1,13.6-13.6,13.6c-7.5,0-13.6-6.1-13.6-13.6c0-7.5,6.1-13.6,13.6-13.6
			C880.4,283.9,886.5,290,886.5,297.5"/>
		<path class="st20" d="M929.6,297.5c0,7.7-6.2,13.9-13.9,13.9s-13.9-6.2-13.9-13.9s6.2-13.9,13.9-13.9S929.6,289.9,929.6,297.5"/>
		<path class="st20" d="M973,297.5c0,8-6.5,14.5-14.5,14.5s-14.5-6.5-14.5-14.5c0-8,6.5-14.5,14.5-14.5S973,289.5,973,297.5"/>
		<path class="st20" d="M1017,297.5c0,8.6-7,15.6-15.6,15.6s-15.6-7-15.6-15.6c0,0,0,0,0,0c0-8.6,7-15.6,15.6-15.6
			C1010,281.9,1017,288.9,1017,297.5C1017,297.5,1017,297.5,1017,297.5"/>
		<path class="st20" d="M1060.4,297.5c0,9-7.3,16.2-16.2,16.2c-9,0-16.2-7.3-16.2-16.2c0-9,7.3-16.2,16.2-16.2
			C1053.1,281.3,1060.4,288.6,1060.4,297.5"/>
		<path class="st20" d="M1102.5,297.5c0,8.6-7,15.6-15.6,15.6s-15.6-7-15.6-15.6c0-8.6,7-15.6,15.6-15.6S1102.5,288.9,1102.5,297.5"
			/>
		<path class="st20" d="M1144,297.5c0,7.8-6.4,14.2-14.2,14.2c-7.8,0-14.2-6.4-14.2-14.2c0-7.8,6.4-14.2,14.2-14.2
			C1137.6,283.3,1144,289.7,1144,297.5"/>
		<path class="st20" d="M1187,297.5c0,8-6.5,14.4-14.4,14.4s-14.4-6.5-14.4-14.4c0-8,6.5-14.4,14.4-14.4S1187,289.5,1187,297.5"/>
	</g>
	<g>
		<path class="st20" d="M149.5,371.3c0,2.5-2,4.4-4.4,4.4s-4.4-2-4.4-4.4c0,0,0,0,0,0c0-2.5,2-4.4,4.4-4.4
			C147.5,366.9,149.5,368.8,149.5,371.3C149.5,371.3,149.5,371.3,149.5,371.3"/>
		<path class="st20" d="M192.2,371.3c0,2.4-1.9,4.3-4.3,4.3s-4.3-1.9-4.3-4.3s1.9-4.3,4.3-4.3S192.2,368.9,192.2,371.3"/>
		<path class="st20" d="M236,371.3c0,2.9-2.4,5.3-5.3,5.3c-2.9,0-5.3-2.4-5.3-5.3c0,0,0,0,0,0c0-2.9,2.4-5.3,5.3-5.3
			C233.6,366,236,368.4,236,371.3C236,371.3,236,371.3,236,371.3"/>
		<path class="st20" d="M278.7,371.3c0,2.8-2.3,5.1-5.1,5.1c-2.8,0-5.1-2.3-5.1-5.1c0,0,0,0,0,0c0-2.8,2.3-5.1,5.1-5.1
			C276.4,366.1,278.7,368.4,278.7,371.3C278.7,371.3,278.7,371.3,278.7,371.3"/>
		<path class="st20" d="M321.7,371.3c0,3-2.4,5.4-5.4,5.4s-5.4-2.4-5.4-5.4c0-3,2.4-5.4,5.4-5.4S321.7,368.3,321.7,371.3"/>
		<path class="st20" d="M364.9,371.3c0,3.2-2.6,5.7-5.7,5.7c-3.2,0-5.7-2.6-5.7-5.7c0-3.2,2.6-5.7,5.7-5.7
			C362.3,365.6,364.9,368.1,364.9,371.3"/>
		<path class="st20" d="M407.7,371.3c0,3.2-2.6,5.7-5.7,5.7s-5.7-2.6-5.7-5.7s2.6-5.7,5.7-5.7S407.7,368.1,407.7,371.3"/>
		<path class="st20" d="M450.6,371.3c0,3.2-2.6,5.8-5.8,5.8c-3.2,0-5.8-2.6-5.8-5.8c0-3.2,2.6-5.8,5.8-5.8
			C448,365.5,450.6,368.1,450.6,371.3"/>
		<path class="st20" d="M492.8,371.3c0,2.9-2.3,5.2-5.2,5.2s-5.2-2.3-5.2-5.2s2.3-5.2,5.2-5.2S492.8,368.4,492.8,371.3"/>
		<path class="st20" d="M535.8,371.3c0,3-2.4,5.4-5.4,5.4c-3,0-5.4-2.4-5.4-5.4c0,0,0,0,0,0c0-3,2.4-5.4,5.4-5.4
			C533.4,365.9,535.8,368.3,535.8,371.3C535.8,371.3,535.8,371.3,535.8,371.3"/>
		<path class="st20" d="M579.6,371.3c0,3.5-2.8,6.4-6.4,6.4c-3.5,0-6.4-2.8-6.4-6.4c0,0,0,0,0,0c0-3.5,2.8-6.4,6.4-6.4
			C576.7,364.9,579.6,367.8,579.6,371.3C579.6,371.3,579.6,371.3,579.6,371.3"/>
		<path class="st20" d="M621.9,371.3c0,3.3-2.7,5.9-5.9,5.9s-5.9-2.7-5.9-5.9c0-3.3,2.7-5.9,5.9-5.9S621.9,368,621.9,371.3"/>
		<path class="st20" d="M665.3,371.3c0,3.6-2.9,6.4-6.4,6.4c-3.6,0-6.4-2.9-6.4-6.4c0-3.6,2.9-6.4,6.4-6.4
			C662.4,364.9,665.3,367.7,665.3,371.3"/>
		<path class="st20" d="M707.9,371.3c0,3.5-2.8,6.3-6.3,6.3c-3.5,0-6.3-2.8-6.3-6.3c0-3.5,2.8-6.3,6.3-6.3
			C705.1,365,707.9,367.8,707.9,371.3"/>
		<path class="st20" d="M749.7,371.3c0,2.9-2.4,5.3-5.3,5.3s-5.3-2.4-5.3-5.3c0-2.9,2.4-5.3,5.3-5.3S749.7,368.4,749.7,371.3"/>
		<path class="st20" d="M793.6,371.3c0,3.5-2.8,6.3-6.3,6.3s-6.3-2.8-6.3-6.3c0-3.5,2.8-6.3,6.3-6.3S793.6,367.8,793.6,371.3"/>
		<path class="st20" d="M835.7,371.3c0,3.1-2.5,5.6-5.6,5.6c-3.1,0-5.6-2.5-5.6-5.6s2.5-5.6,5.6-5.6
			C833.2,365.7,835.7,368.2,835.7,371.3"/>
		<path class="st20" d="M878.3,371.3c0,3-2.4,5.4-5.4,5.4c-3,0-5.4-2.4-5.4-5.4s2.4-5.4,5.4-5.4
			C875.9,365.9,878.3,368.3,878.3,371.3"/>
		<path class="st20" d="M920.1,371.3c0,2.4-2,4.4-4.4,4.4c-2.4,0-4.4-2-4.4-4.4c0,0,0,0,0,0c0-2.4,2-4.4,4.4-4.4
			S920.1,368.8,920.1,371.3C920.1,371.3,920.1,371.3,920.1,371.3"/>
		<path class="st20" d="M962.7,371.3c0,2.3-1.8,4.1-4.1,4.1c-2.3,0-4.1-1.8-4.1-4.1c0,0,0,0,0,0c0-2.3,1.8-4.1,4.1-4.1
			C960.8,367.2,962.7,369,962.7,371.3C962.7,371.3,962.7,371.3,962.7,371.3"/>
		<path class="st20" d="M1005.2,371.3c0,2.1-1.7,3.9-3.9,3.9c-2.1,0-3.9-1.7-3.9-3.9c0,0,0,0,0,0c0-2.1,1.7-3.9,3.9-3.9
			C1003.5,367.4,1005.2,369.2,1005.2,371.3C1005.2,371.3,1005.2,371.3,1005.2,371.3"/>
		<path class="st20" d="M1047.1,371.3c0,1.6-1.3,2.9-2.9,2.9c-1.6,0-2.9-1.3-2.9-2.9c0-1.6,1.3-2.9,2.9-2.9
			C1045.8,368.3,1047.1,369.7,1047.1,371.3"/>
		<path class="st20" d="M1089.8,371.3c0,1.6-1.3,2.8-2.8,2.8s-2.8-1.3-2.8-2.8s1.3-2.8,2.8-2.8S1089.8,369.7,1089.8,371.3"/>
		<path class="st20" d="M1131.9,371.3c0,1.2-1,2.1-2.1,2.1c-1.2,0-2.1-1-2.1-2.1c0,0,0,0,0,0c0-1.2,1-2.1,2.1-2.1
			S1131.9,370.1,1131.9,371.3C1131.9,371.3,1131.9,371.3,1131.9,371.3"/>
		<path class="st20" d="M1174.6,371.3c0,1.1-0.9,2-2,2c-1.1,0-2-0.9-2-2c0,0,0,0,0,0c0-1.1,0.9-2,2-2S1174.6,370.2,1174.6,371.3
			C1174.6,371.3,1174.6,371.3,1174.6,371.3"/>
	</g>
	<g>
		<path class="st21" d="M150.3,442.1c0,2.9-2.3,5.2-5.2,5.2c-2.9,0-5.2-2.3-5.2-5.2s2.3-5.2,5.2-5.2
			C148,436.8,150.3,439.2,150.3,442.1"/>
		<path class="st21" d="M193.5,442.1c0,3.1-2.5,5.6-5.6,5.6c-3.1,0-5.6-2.5-5.6-5.6c0,0,0,0,0,0c0-3.1,2.5-5.6,5.6-5.6
			C191,436.5,193.5,439,193.5,442.1C193.5,442.1,193.5,442.1,193.5,442.1"/>
		<path class="st21" d="M237.2,442.1c0,3.6-2.9,6.5-6.5,6.5s-6.5-2.9-6.5-6.5s2.9-6.5,6.5-6.5S237.2,438.5,237.2,442.1"/>
		<path class="st21" d="M279.5,442.1c0,3.3-2.7,6-6,6s-6-2.7-6-6s2.7-6,6-6S279.5,438.7,279.5,442.1"/>
		<path class="st21" d="M322.6,442.1c0,3.5-2.8,6.3-6.3,6.3c-3.5,0-6.3-2.8-6.3-6.3c0,0,0,0,0,0c0-3.5,2.8-6.3,6.3-6.3
			C319.8,435.8,322.6,438.6,322.6,442.1C322.6,442.1,322.6,442.1,322.6,442.1"/>
		<path class="st21" d="M365.9,442.1c0,3.7-3,6.8-6.8,6.8c-3.7,0-6.8-3-6.8-6.8s3-6.8,6.8-6.8C362.9,435.3,365.9,438.3,365.9,442.1"
			/>
		<path class="st21" d="M409.2,442.1c0,4-3.3,7.3-7.3,7.3c-4,0-7.3-3.3-7.3-7.3c0,0,0,0,0,0c0-4,3.3-7.3,7.3-7.3
			C406,434.8,409.2,438,409.2,442.1C409.2,442.1,409.2,442.1,409.2,442.1"/>
		<path class="st21" d="M452.5,442.1c0,4.3-3.5,7.7-7.7,7.7c-4.3,0-7.7-3.5-7.7-7.7s3.5-7.7,7.7-7.7
			C449.1,434.3,452.5,437.8,452.5,442.1"/>
		<path class="st21" d="M495.9,442.1c0,4.6-3.7,8.3-8.3,8.3s-8.3-3.7-8.3-8.3c0,0,0,0,0,0c0-4.6,3.7-8.3,8.3-8.3
			C492.2,433.7,495.9,437.5,495.9,442.1C495.9,442.1,495.9,442.1,495.9,442.1"/>
		<path class="st21" d="M539.4,442.1c0,5-4,9-9,9c-5,0-9-4-9-9c0,0,0,0,0,0c0-5,4-9,9-9C535.4,433.1,539.4,437.1,539.4,442.1
			C539.4,442.1,539.4,442.1,539.4,442.1"/>
		<path class="st21" d="M582.9,442.1c0,5.3-4.3,9.7-9.7,9.7s-9.7-4.3-9.7-9.7c0,0,0,0,0,0c0-5.3,4.3-9.7,9.7-9.7
			C578.6,432.4,582.9,436.7,582.9,442.1C582.9,442.1,582.9,442.1,582.9,442.1"/>
		<path class="st21" d="M625.9,442.1c0,5.5-4.4,9.9-9.9,9.9s-9.9-4.4-9.9-9.9c0-5.5,4.4-9.9,9.9-9.9S625.9,436.6,625.9,442.1"/>
		<path class="st21" d="M668.9,442.1c0,5.6-4.5,10.1-10.1,10.1c-5.6,0-10.1-4.5-10.1-10.1c0,0,0,0,0,0c0-5.6,4.5-10.1,10.1-10.1
			C664.4,432,668.9,436.5,668.9,442.1C668.9,442.1,668.9,442.1,668.9,442.1"/>
		<path class="st21" d="M711.6,442.1c0,5.5-4.4,9.9-9.9,9.9c-5.5,0-9.9-4.4-9.9-9.9s4.4-9.9,9.9-9.9
			C707.1,432.1,711.6,436.6,711.6,442.1"/>
		<path class="st21" d="M754.4,442.1c0,5.5-4.5,10-10,10s-10-4.5-10-10s4.5-10,10-10S754.4,436.5,754.4,442.1"/>
		<path class="st21" d="M798,442.1c0,5.9-4.8,10.7-10.7,10.7s-10.7-4.8-10.7-10.7s4.8-10.7,10.7-10.7S798,436.2,798,442.1"/>
		<path class="st21" d="M840.9,442.1c0,6-4.8,10.8-10.8,10.8c-6,0-10.8-4.8-10.8-10.8s4.8-10.8,10.8-10.8
			C836.1,431.2,840.9,436.1,840.9,442.1"/>
		<path class="st21" d="M883.8,442.1c0,6-4.9,10.9-10.9,10.9c-6,0-10.9-4.9-10.9-10.9c0,0,0,0,0,0c0-6,4.9-10.9,10.9-10.9
			S883.8,436,883.8,442.1C883.8,442.1,883.8,442.1,883.8,442.1"/>
		<path class="st21" d="M926.7,442.1c0,6.1-4.9,11-11,11c-6.1,0-11-4.9-11-11s4.9-11,11-11C921.8,431.1,926.7,436,926.7,442.1"/>
		<path class="st21" d="M969.6,442.1c0,6.1-5,11.1-11.1,11.1s-11.1-5-11.1-11.1s5-11.1,11.1-11.1S969.6,435.9,969.6,442.1"/>
		<path class="st21" d="M1012.8,442.1c0,6.4-5.1,11.5-11.5,11.5c-6.4,0-11.5-5.1-11.5-11.5c0,0,0,0,0,0c0-6.4,5.1-11.5,11.5-11.5
			C1007.7,430.6,1012.8,435.7,1012.8,442.1C1012.8,442.1,1012.8,442.1,1012.8,442.1"/>
		<path class="st21" d="M1056.1,442.1c0,6.6-5.3,11.9-11.9,11.9c-6.6,0-11.9-5.3-11.9-11.9c0,0,0,0,0,0c0-6.6,5.3-11.9,11.9-11.9
			C1050.7,430.1,1056.1,435.5,1056.1,442.1C1056.1,442.1,1056.1,442.1,1056.1,442.1"/>
		<path class="st21" d="M1099.7,442.1c0,7-5.7,12.7-12.7,12.7c-7,0-12.7-5.7-12.7-12.7c0,0,0,0,0,0c0-7,5.7-12.7,12.7-12.7
			C1094,429.3,1099.7,435,1099.7,442.1C1099.7,442.1,1099.7,442.1,1099.7,442.1"/>
		<path class="st21" d="M1142.3,442.1c0,6.9-5.6,12.5-12.5,12.5c-6.9,0-12.5-5.6-12.5-12.5c0,0,0,0,0,0c0-6.9,5.6-12.5,12.5-12.5
			C1136.7,429.6,1142.3,435.1,1142.3,442.1C1142.3,442.1,1142.3,442.1,1142.3,442.1"/>
		<path class="st21" d="M1186,442.1c0,7.4-6,13.4-13.4,13.4c-7.4,0-13.4-6-13.4-13.4s6-13.4,13.4-13.4
			C1180,428.7,1186,434.7,1186,442.1"/>
	</g>
	<g>
		<path class="st20" d="M148.2,513.8c0,1.7-1.4,3.1-3.1,3.1c-1.7,0-3.1-1.4-3.1-3.1c0,0,0,0,0,0c0-1.7,1.4-3.1,3.1-3.1
			S148.2,512.1,148.2,513.8C148.2,513.8,148.2,513.8,148.2,513.8"/>
		<path class="st20" d="M190.3,513.8c0,1.3-1.1,2.4-2.4,2.4s-2.4-1.1-2.4-2.4c0-1.3,1.1-2.4,2.4-2.4S190.3,512.5,190.3,513.8"/>
		<path class="st20" d="M233.8,513.8c0,1.7-1.4,3-3,3c-1.7,0-3-1.4-3-3s1.4-3,3-3C232.4,510.8,233.8,512.2,233.8,513.8"/>
		<path class="st20" d="M276.6,513.8c0,1.7-1.4,3-3,3c-1.7,0-3-1.4-3-3c0,0,0,0,0,0c0-1.7,1.4-3,3-3S276.6,512.1,276.6,513.8
			C276.6,513.8,276.6,513.8,276.6,513.8"/>
		<path class="st20" d="M319.7,513.8c0,1.8-1.5,3.3-3.3,3.3s-3.3-1.5-3.3-3.3c0,0,0,0,0,0c0-1.8,1.5-3.3,3.3-3.3
			C318.2,510.5,319.7,512,319.7,513.8C319.7,513.8,319.7,513.8,319.7,513.8"/>
		<path class="st20" d="M362.6,513.8c0,1.9-1.5,3.4-3.4,3.4s-3.4-1.5-3.4-3.4c0-1.9,1.5-3.4,3.4-3.4S362.6,511.9,362.6,513.8"/>
		<path class="st20" d="M405.8,513.8c0,2.1-1.7,3.8-3.8,3.8s-3.8-1.7-3.8-3.8c0,0,0,0,0,0c0-2.1,1.7-3.8,3.8-3.8
			C404.1,510,405.8,511.7,405.8,513.8C405.8,513.8,405.8,513.8,405.8,513.8"/>
		<path class="st20" d="M448.1,513.8c0,1.8-1.5,3.3-3.3,3.3s-3.3-1.5-3.3-3.3s1.5-3.3,3.3-3.3S448.1,512,448.1,513.8"/>
		<path class="st20" d="M491.6,513.8c0,2.2-1.8,4-4,4s-4-1.8-4-4c0,0,0,0,0,0c0-2.2,1.8-4,4-4S491.6,511.6,491.6,513.8
			C491.6,513.8,491.6,513.8,491.6,513.8"/>
		<path class="st20" d="M534.7,513.8c0,2.4-1.9,4.3-4.3,4.3c-2.4,0-4.3-1.9-4.3-4.3c0,0,0,0,0,0c0-2.4,1.9-4.3,4.3-4.3
			C532.8,509.5,534.7,511.4,534.7,513.8C534.7,513.8,534.7,513.8,534.7,513.8"/>
		<path class="st20" d="M577.6,513.8c0,2.4-2,4.4-4.4,4.4s-4.4-2-4.4-4.4s2-4.4,4.4-4.4S577.6,511.4,577.6,513.8"/>
		<path class="st20" d="M620.1,513.8c0,2.3-1.8,4.1-4.1,4.1c-2.3,0-4.1-1.8-4.1-4.1c0,0,0,0,0,0c0-2.3,1.8-4.1,4.1-4.1
			C618.3,509.7,620.1,511.6,620.1,513.8C620.1,513.8,620.1,513.8,620.1,513.8"/>
		<path class="st20" d="M662.7,513.8c0,2.1-1.7,3.9-3.9,3.9c-2.1,0-3.9-1.7-3.9-3.9c0-2.1,1.7-3.9,3.9-3.9
			C661,509.9,662.7,511.7,662.7,513.8"/>
		<path class="st20" d="M705.7,513.8c0,2.2-1.8,4-4,4s-4-1.8-4-4s1.8-4,4-4S705.7,511.6,705.7,513.8"/>
		<path class="st20" d="M748.6,513.8c0,2.3-1.8,4.1-4.1,4.1c-2.3,0-4.1-1.8-4.1-4.1c0,0,0,0,0,0c0-2.3,1.8-4.1,4.1-4.1
			C746.7,509.7,748.6,511.5,748.6,513.8C748.6,513.8,748.6,513.8,748.6,513.8"/>
		<path class="st20" d="M791.7,513.8c0,2.4-2,4.4-4.4,4.4s-4.4-2-4.4-4.4s2-4.4,4.4-4.4S791.7,511.4,791.7,513.8"/>
		<path class="st20" d="M834.2,513.8c0,2.3-1.8,4.1-4.1,4.1c-2.3,0-4.1-1.8-4.1-4.1c0,0,0,0,0,0c0-2.3,1.8-4.1,4.1-4.1
			S834.2,511.6,834.2,513.8C834.2,513.8,834.2,513.8,834.2,513.8"/>
		<path class="st20" d="M877,513.8c0,2.3-1.8,4.1-4.1,4.1c-2.3,0-4.1-1.8-4.1-4.1c0-2.3,1.8-4.1,4.1-4.1
			C875.2,509.7,877,511.6,877,513.8"/>
		<path class="st20" d="M919.4,513.8c0,2.1-1.7,3.7-3.7,3.7c-2.1,0-3.7-1.7-3.7-3.7c0,0,0,0,0,0c0-2.1,1.7-3.7,3.7-3.7
			C917.8,510.1,919.4,511.8,919.4,513.8C919.4,513.8,919.4,513.8,919.4,513.8"/>
		<path class="st20" d="M961.2,513.8c0,1.5-1.2,2.6-2.6,2.6c-1.5,0-2.6-1.2-2.6-2.6c0,0,0,0,0,0c0-1.5,1.2-2.6,2.6-2.6
			S961.2,512.4,961.2,513.8C961.2,513.8,961.2,513.8,961.2,513.8"/>
		<path class="st20" d="M1004.2,513.8c0,1.6-1.3,2.8-2.8,2.8s-2.8-1.3-2.8-2.8c0,0,0,0,0,0c0-1.6,1.3-2.8,2.8-2.8
			S1004.2,512.3,1004.2,513.8C1004.2,513.8,1004.2,513.8,1004.2,513.8"/>
		<path class="st20" d="M1047.1,513.8c0,1.6-1.3,2.9-2.9,2.9s-2.9-1.3-2.9-2.9c0,0,0,0,0,0c0-1.6,1.3-2.9,2.9-2.9
			S1047.1,512.2,1047.1,513.8C1047.1,513.8,1047.1,513.8,1047.1,513.8"/>
		<path class="st20" d="M1089.8,513.8c0,1.6-1.3,2.9-2.9,2.9c-1.6,0-2.9-1.3-2.9-2.9s1.3-2.9,2.9-2.9
			C1088.5,511,1089.8,512.2,1089.8,513.8"/>
		<path class="st20" d="M1131.9,513.8c0,1.2-1,2.1-2.1,2.1c-1.2,0-2.1-1-2.1-2.1s1-2.1,2.1-2.1
			C1130.9,511.7,1131.9,512.7,1131.9,513.8"/>
		<path class="st20" d="M1174.5,513.8c0,1.1-0.9,1.9-1.9,1.9s-1.9-0.9-1.9-1.9s0.9-1.9,1.9-1.9S1174.5,512.8,1174.5,513.8"/>
	</g>
	<g>
		<path class="st20" d="M150.7,586.6c0,3.1-2.5,5.6-5.6,5.6c-3.1,0-5.6-2.5-5.6-5.6c0-3.1,2.5-5.6,5.6-5.6
			C148.2,581,150.7,583.5,150.7,586.6"/>
		<path class="st20" d="M192.2,586.6c0,2.4-1.9,4.3-4.3,4.3s-4.3-1.9-4.3-4.3c0-2.4,1.9-4.3,4.3-4.3S192.2,584.2,192.2,586.6"/>
		<path class="st20" d="M235.1,586.6c0,2.4-2,4.4-4.4,4.4c-2.4,0-4.4-2-4.4-4.4c0,0,0,0,0,0c0-2.4,2-4.4,4.4-4.4
			C233.2,582.2,235.1,584.2,235.1,586.6C235.1,586.6,235.1,586.6,235.1,586.6"/>
		<path class="st20" d="M279.1,586.6c0,3.1-2.5,5.5-5.5,5.5c-3.1,0-5.5-2.5-5.5-5.5c0,0,0,0,0,0c0-3.1,2.5-5.5,5.5-5.5
			C276.6,581.1,279,583.5,279.1,586.6C279.1,586.6,279.1,586.6,279.1,586.6"/>
		<path class="st20" d="M325.8,586.6c0,5.2-4.2,9.5-9.5,9.5c-5.2,0-9.5-4.2-9.5-9.5c0,0,0,0,0,0c0-5.2,4.2-9.5,9.5-9.5
			C321.6,577.1,325.8,581.4,325.8,586.6C325.8,586.6,325.8,586.6,325.8,586.6"/>
		<path class="st20" d="M369.6,586.6c0,5.8-4.7,10.5-10.5,10.5c-5.8,0-10.5-4.7-10.5-10.5c0,0,0,0,0,0c0-5.8,4.7-10.5,10.5-10.5
			C364.9,576.1,369.6,580.8,369.6,586.6C369.6,586.6,369.6,586.6,369.6,586.6"/>
		<path class="st20" d="M410.8,586.6c0,4.9-3.9,8.8-8.8,8.8c-4.9,0-8.8-3.9-8.8-8.8c0,0,0,0,0,0c0-4.9,3.9-8.8,8.8-8.8
			C406.8,577.8,410.8,581.7,410.8,586.6C410.8,586.6,410.8,586.6,410.8,586.6"/>
		<path class="st20" d="M453.6,586.6c0,4.9-3.9,8.8-8.8,8.8c-4.9,0-8.8-3.9-8.8-8.8c0,0,0,0,0,0c0-4.9,3.9-8.8,8.8-8.8
			C449.6,577.8,453.6,581.7,453.6,586.6C453.6,586.6,453.6,586.6,453.6,586.6"/>
		<path class="st20" d="M496.1,586.6c0,4.7-3.8,8.5-8.5,8.5s-8.5-3.8-8.5-8.5c0-4.7,3.8-8.5,8.5-8.5S496.1,581.9,496.1,586.6"/>
		<path class="st20" d="M538.4,586.6c0,4.4-3.6,8-8,8c-4.4,0-8-3.6-8-8c0-4.4,3.6-8,8-8C534.8,578.6,538.4,582.2,538.4,586.6"/>
		<path class="st20" d="M580.6,586.6c0,4.1-3.3,7.4-7.4,7.4c-4.1,0-7.4-3.3-7.4-7.4c0,0,0,0,0,0c0-4.1,3.3-7.4,7.4-7.4
			S580.6,582.5,580.6,586.6C580.6,586.6,580.6,586.6,580.6,586.6"/>
		<path class="st20" d="M623.3,586.6c0,4-3.3,7.3-7.3,7.3s-7.3-3.3-7.3-7.3c0,0,0,0,0,0c0-4,3.3-7.3,7.3-7.3
			S623.3,582.6,623.3,586.6C623.3,586.6,623.3,586.6,623.3,586.6"/>
		<path class="st20" d="M665.2,586.6c0,3.5-2.8,6.4-6.4,6.4c-3.5,0-6.4-2.8-6.4-6.4c0,0,0,0,0,0c0-3.5,2.8-6.4,6.4-6.4
			C662.4,580.2,665.2,583.1,665.2,586.6C665.2,586.6,665.2,586.6,665.2,586.6"/>
		<path class="st20" d="M708,586.6c0,3.5-2.8,6.3-6.3,6.3s-6.3-2.8-6.3-6.3c0-3.5,2.8-6.3,6.3-6.3S708,583.1,708,586.6"/>
		<path class="st20" d="M750.4,586.6c0,3.3-2.7,6-6,6c-3.3,0-6-2.7-6-6c0,0,0,0,0,0c0-3.3,2.7-6,6-6
			C747.7,580.6,750.4,583.3,750.4,586.6C750.4,586.6,750.4,586.6,750.4,586.6"/>
		<path class="st20" d="M793,586.6c0,3.2-2.6,5.8-5.8,5.8c-3.2,0-5.8-2.6-5.8-5.8c0-3.2,2.6-5.8,5.8-5.8
			C790.5,580.8,793,583.4,793,586.6"/>
		<path class="st20" d="M835.6,586.6c0,3-2.5,5.5-5.5,5.5c-3,0-5.5-2.5-5.5-5.5c0-3,2.5-5.5,5.5-5.5
			C833.1,581.1,835.6,583.6,835.6,586.6"/>
		<path class="st20" d="M878.6,586.6c0,3.1-2.5,5.7-5.7,5.7s-5.7-2.5-5.7-5.7s2.5-5.7,5.7-5.7S878.6,583.5,878.6,586.6"/>
		<path class="st20" d="M921.5,586.6c0,3.2-2.6,5.8-5.8,5.8s-5.8-2.6-5.8-5.8c0-3.2,2.6-5.8,5.8-5.8S921.5,583.4,921.5,586.6"/>
		<path class="st20" d="M963.7,586.6c0,2.9-2.3,5.2-5.2,5.2c-2.9,0-5.2-2.3-5.2-5.2c0-2.9,2.3-5.2,5.2-5.2
			C961.4,581.4,963.7,583.7,963.7,586.6"/>
		<path class="st20" d="M1009,586.6c0,4.2-3.4,7.7-7.7,7.7s-7.7-3.4-7.7-7.7c0,0,0,0,0,0c0-4.2,3.4-7.7,7.7-7.7
			C1005.6,578.9,1009,582.4,1009,586.6C1009,586.6,1009,586.6,1009,586.6"/>
		<path class="st20" d="M1049.9,586.6c0,3.2-2.6,5.8-5.8,5.8s-5.8-2.6-5.8-5.8c0,0,0,0,0,0c0-3.2,2.6-5.8,5.8-5.8
			S1049.9,583.4,1049.9,586.6C1049.9,586.6,1049.9,586.6,1049.9,586.6"/>
		<path class="st20" d="M1091.4,586.6c0,2.5-2,4.5-4.5,4.5s-4.5-2-4.5-4.5c0-2.5,2-4.5,4.5-4.5S1091.4,584.1,1091.4,586.6"/>
		<path class="st20" d="M1134,586.6c0,2.3-1.9,4.2-4.2,4.2c-2.3,0-4.2-1.9-4.2-4.2c0,0,0,0,0,0c0-2.3,1.9-4.2,4.2-4.2
			C1132.1,582.4,1134,584.3,1134,586.6C1134,586.6,1134,586.6,1134,586.6"/>
		<path class="st20" d="M1177,586.6c0,2.4-2,4.4-4.4,4.4s-4.4-2-4.4-4.4s2-4.4,4.4-4.4S1177,584.2,1177,586.6"/>
	</g>
	<g>
		<path class="st20" d="M152.5,658.4c0,4.1-3.3,7.4-7.4,7.4c-4.1,0-7.4-3.3-7.4-7.4c0,0,0,0,0,0c0-4.1,3.3-7.4,7.4-7.4
			C149.2,650.9,152.5,654.3,152.5,658.4C152.5,658.4,152.5,658.4,152.5,658.4"/>
		<path class="st20" d="M195.6,658.4c0,4.3-3.5,7.7-7.7,7.7s-7.7-3.5-7.7-7.7s3.5-7.7,7.7-7.7S195.6,654.1,195.6,658.4"/>
		<path class="st20" d="M238.5,658.4c0,4.3-3.5,7.8-7.8,7.8c-4.3,0-7.8-3.5-7.8-7.8c0,0,0,0,0,0c0-4.3,3.5-7.8,7.8-7.8
			C235,650.6,238.5,654.1,238.5,658.4C238.5,658.4,238.5,658.4,238.5,658.4"/>
		<path class="st20" d="M281.6,658.4c0,4.5-3.6,8.1-8.1,8.1c-4.5,0-8.1-3.6-8.1-8.1c0,0,0,0,0,0c0-4.5,3.6-8.1,8.1-8.1
			C278,650.3,281.6,653.9,281.6,658.4C281.6,658.4,281.6,658.4,281.6,658.4"/>
		<path class="st20" d="M324.7,658.4c0,4.6-3.8,8.4-8.4,8.4c-4.6,0-8.4-3.8-8.4-8.4c0,0,0,0,0,0c0-4.6,3.8-8.4,8.4-8.4
			C321,650,324.7,653.7,324.7,658.4C324.7,658.4,324.7,658.4,324.7,658.4"/>
		<path class="st20" d="M367.7,658.4c0,4.7-3.8,8.6-8.6,8.6c-4.7,0-8.6-3.8-8.6-8.6s3.8-8.6,8.6-8.6
			C363.9,649.8,367.7,653.6,367.7,658.4"/>
		<path class="st20" d="M410.6,658.4c0,4.8-3.9,8.6-8.6,8.6c-4.8,0-8.6-3.9-8.6-8.6s3.9-8.6,8.6-8.6
			C406.7,649.7,410.6,653.6,410.6,658.4"/>
		<path class="st20" d="M453.6,658.4c0,4.9-3.9,8.8-8.8,8.8c-4.9,0-8.8-3.9-8.8-8.8s3.9-8.8,8.8-8.8
			C449.6,649.6,453.6,653.5,453.6,658.4"/>
		<path class="st20" d="M495.5,658.4c0,4.4-3.6,8-8,8c-4.4,0-8-3.6-8-8c0-4.4,3.6-8,8-8C492,650.4,495.5,654,495.5,658.4"/>
		<path class="st20" d="M538.3,658.4c0,4.4-3.6,7.9-7.9,7.9c-4.4,0-7.9-3.6-7.9-7.9c0,0,0,0,0,0c0-4.4,3.6-7.9,7.9-7.9
			S538.3,654,538.3,658.4C538.3,658.4,538.3,658.4,538.3,658.4"/>
		<path class="st20" d="M580.3,658.4c0,3.9-3.2,7.1-7.1,7.1c-3.9,0-7.1-3.2-7.1-7.1c0,0,0,0,0,0c0-3.9,3.2-7.1,7.1-7.1
			C577.1,651.3,580.3,654.4,580.3,658.4C580.3,658.4,580.3,658.4,580.3,658.4"/>
		<path class="st20" d="M623.6,658.4c0,4.2-3.4,7.6-7.6,7.6s-7.6-3.4-7.6-7.6s3.4-7.6,7.6-7.6S623.6,654.2,623.6,658.4"/>
		<path class="st20" d="M666.5,658.4c0,4.2-3.4,7.6-7.6,7.6c-4.2,0-7.6-3.4-7.6-7.6c0,0,0,0,0,0c0-4.2,3.4-7.6,7.6-7.6
			C663,650.8,666.5,654.2,666.5,658.4C666.5,658.4,666.5,658.4,666.5,658.4"/>
		<path class="st20" d="M709.7,658.4c0,4.4-3.6,8-8,8c-4.4,0-8-3.6-8-8s3.6-8,8-8C706.1,650.4,709.7,654,709.7,658.4"/>
		<path class="st20" d="M752,658.4c0,4.2-3.4,7.6-7.6,7.6s-7.6-3.4-7.6-7.6c0,0,0,0,0,0c0-4.2,3.4-7.6,7.6-7.6
			C748.7,650.8,752,654.2,752,658.4C752,658.4,752,658.4,752,658.4"/>
		<path class="st20" d="M794.8,658.4c0,4.2-3.4,7.5-7.5,7.5c-4.2,0-7.5-3.4-7.5-7.5c0-4.2,3.4-7.5,7.5-7.5
			C791.4,650.8,794.8,654.2,794.8,658.4"/>
		<path class="st20" d="M837.7,658.4c0,4.2-3.4,7.6-7.6,7.6c-4.2,0-7.6-3.4-7.6-7.6s3.4-7.6,7.6-7.6
			C834.3,650.8,837.7,654.2,837.7,658.4"/>
		<path class="st20" d="M880.5,658.4c0,4.2-3.4,7.6-7.6,7.6c-4.2,0-7.6-3.4-7.6-7.6s3.4-7.6,7.6-7.6
			C877.1,650.8,880.5,654.2,880.5,658.4"/>
		<path class="st20" d="M923.3,658.4c0,4.2-3.4,7.6-7.6,7.6s-7.6-3.4-7.6-7.6s3.4-7.6,7.6-7.6S923.3,654.2,923.3,658.4"/>
		<path class="st20" d="M966.1,658.4c0,4.2-3.4,7.5-7.5,7.5c-4.2,0-7.5-3.4-7.5-7.5c0,0,0,0,0,0c0-4.2,3.4-7.5,7.5-7.5
			S966.1,654.2,966.1,658.4C966.1,658.4,966.1,658.4,966.1,658.4"/>
		<path class="st20" d="M1009.1,658.4c0,4.3-3.5,7.8-7.8,7.8c-4.3,0-7.8-3.5-7.8-7.8s3.5-7.8,7.8-7.8
			C1005.6,650.6,1009.1,654.1,1009.1,658.4"/>
		<path class="st20" d="M1052.5,658.4c0,4.6-3.7,8.4-8.4,8.4c-4.6,0-8.4-3.7-8.4-8.4c0,0,0,0,0,0c0-4.6,3.7-8.4,8.4-8.4
			C1048.8,650,1052.5,653.8,1052.5,658.4C1052.5,658.4,1052.5,658.4,1052.5,658.4"/>
		<path class="st20" d="M1095.1,658.4c0,4.5-3.6,8.1-8.1,8.1s-8.1-3.6-8.1-8.1c0-4.5,3.6-8.1,8.1-8.1S1095.1,653.9,1095.1,658.4"/>
		<path class="st20" d="M1136,658.4c0,3.4-2.8,6.2-6.2,6.2c-3.4,0-6.2-2.8-6.2-6.2s2.8-6.2,6.2-6.2
			C1133.2,652.2,1136,654.9,1136,658.4"/>
		<path class="st20" d="M1178.6,658.4c0,3.3-2.7,6-6,6c-3.3,0-6-2.7-6-6c0,0,0,0,0,0c0-3.3,2.7-6,6-6
			C1175.9,652.4,1178.6,655,1178.6,658.4C1178.6,658.4,1178.6,658.4,1178.6,658.4"/>
	</g>
	<g>
		<path class="st22" d="M1139,14.2L1139,14.2 M1139,14.2l-8.1,21.7l-8.1-21.7H1139 M1139,11.2L1139,11.2h-16.3c-1,0-1.9,0.5-2.5,1.3
			c-0.6,0.8-0.7,1.8-0.3,2.8l8.1,21.7c0.4,1.2,1.6,1.9,2.8,1.9s2.4-0.8,2.8-1.9l8.1-21.6c0.2-0.4,0.2-0.8,0.2-1.2
			C1142,12.6,1140.7,11.2,1139,11.2L1139,11.2z M1139,17.2L1139,17.2L1139,17.2L1139,17.2z"/>
	</g>
</g>
<g id="guides" class="st0">
</g>
<g id="legend">
	<g>
		<g>
			<text transform="matrix(1 0 0 1 1303.8324 330.826)" class="st9 st17 st23">20k</text>
			<text transform="matrix(1 0 0 1 1303.8325 358.616)"><tspan x="0" y="0" class="st9 st17 st23">4</tspan><tspan x="14.6" y="0" class="st9 st17 st23">0</tspan><tspan x="29.6" y="0" class="st9 st17 st23">k</tspan></text>
			<text transform="matrix(1 0 0 1 1303.832 392.5558)" class="st9 st17 st23">60k</text>
			<text transform="matrix(1 0 0 1 1303.8323 431.1627)" class="st9 st17 st23">80k</text>
			<text transform="matrix(1 0 0 1 1303.8324 472.649)" class="st9 st17 st23">100k</text>
		</g>
		<g>
			<path class="st24" d="M1284.5,325.7C1284.5,325.7,1284.5,325.7,1284.5,325.7c0,4.1-3.4,7.5-7.5,7.5c-4.1,0-7.5-3.4-7.5-7.5
				c0,0,0,0,0,0c0-4.1,3.4-7.5,7.5-7.5C1281.1,318.3,1284.5,321.6,1284.5,325.7"/>
			<path class="st24" d="M1287.6,354.1c0,5.8-4.7,10.6-10.6,10.6c-5.8,0-10.6-4.7-10.6-10.6s4.7-10.6,10.6-10.6
				C1282.8,343.5,1287.6,348.2,1287.6,354.1"/>
			<path class="st24" d="M1289.9,387.7C1289.9,387.7,1289.9,387.7,1289.9,387.7c0,7.2-5.8,13-13,13c-7.2,0-13-5.8-13-13c0,0,0,0,0,0
				c0-7.2,5.8-13,13-13C1284.1,374.7,1289.9,380.5,1289.9,387.7"/>
			<path class="st24" d="M1291.9,425.7C1291.9,425.7,1291.9,425.7,1291.9,425.7c0,8.3-6.7,15-15,15s-15-6.7-15-15c0,0,0,0,0,0
				c0-8.3,6.7-15,15-15S1291.9,417.4,1291.9,425.7"/>
			<path class="st24" d="M1293.6,467.5C1293.6,467.5,1293.6,467.5,1293.6,467.5c0,9.3-7.5,16.8-16.8,16.8c-9.2,0-16.7-7.5-16.7-16.8
				c0,0,0,0,0,0c0-9.2,7.5-16.7,16.8-16.7C1286.1,450.7,1293.6,458.2,1293.6,467.5"/>
		</g>
	</g>
</g>
<g id="palette" class="st0">
	<rect x="1516.5" y="139.9" class="st25" width="96.7" height="96.7"/>
	<rect x="1516.5" y="240.7" class="st26" width="96.7" height="96.7"/>
	<rect x="1516.5" y="341.6" class="st27" width="96.7" height="96.7"/>
	<rect x="1516.5" y="442.5" class="st28" width="96.7" height="96.7"/>
	<rect x="1516.5" y="543.3" class="st29" width="96.7" height="96.7"/>
	<rect x="1516.5" y="39" class="st30" width="96.7" height="96.7"/>
	<rect x="1621.3" y="38.5" class="st31" width="96.7" height="96.7"/>
	<rect x="1516.5" y="644.2" class="st32" width="96.7" height="96.7"/>
	<rect x="1516.5" y="-61.9" class="st33" width="96.7" height="96.7"/>
	<rect x="1516.5" y="745.1" class="st12" width="96.7" height="96.7"/>
</g>
</svg>
